G04 MADE WITH FRITZING*
G04 WWW.FRITZING.ORG*
G04 DOUBLE SIDED*
G04 HOLES PLATED*
G04 CONTOUR ON CENTER OF CONTOUR VECTOR*
%ASAXBY*%
%FSLAX23Y23*%
%MOIN*%
%OFA0B0*%
%SFA1.0B1.0*%
%ADD10C,0.010417*%
%ADD11C,0.006000*%
%ADD12R,0.001000X0.001000*%
%LNSILK0*%
G90*
G70*
G54D10*
X574Y667D02*
X574Y1261D01*
D02*
X574Y1261D02*
X330Y1261D01*
D02*
X330Y1261D02*
X299Y1261D01*
D02*
X299Y1261D02*
X299Y667D01*
D02*
X299Y667D02*
X330Y667D01*
D02*
X330Y1261D02*
X330Y667D01*
G54D11*
D02*
X3290Y1223D02*
X3290Y1304D01*
D02*
X3191Y1224D02*
X3191Y1304D01*
D02*
X2968Y1099D02*
X2887Y1099D01*
D02*
X2967Y1001D02*
X2887Y1001D01*
D02*
X1213Y1001D02*
X1294Y1001D01*
D02*
X1214Y1099D02*
X1294Y1099D01*
G54D12*
X0Y3017D02*
X3620Y3017D01*
X0Y3016D02*
X3620Y3016D01*
X0Y3015D02*
X3620Y3015D01*
X0Y3014D02*
X3620Y3014D01*
X0Y3013D02*
X3620Y3013D01*
X0Y3012D02*
X3620Y3012D01*
X0Y3011D02*
X3620Y3011D01*
X0Y3010D02*
X3620Y3010D01*
X0Y3009D02*
X7Y3009D01*
X3613Y3009D02*
X3620Y3009D01*
X0Y3008D02*
X7Y3008D01*
X3613Y3008D02*
X3620Y3008D01*
X0Y3007D02*
X7Y3007D01*
X3613Y3007D02*
X3620Y3007D01*
X0Y3006D02*
X7Y3006D01*
X3613Y3006D02*
X3620Y3006D01*
X0Y3005D02*
X7Y3005D01*
X3613Y3005D02*
X3620Y3005D01*
X0Y3004D02*
X7Y3004D01*
X3613Y3004D02*
X3620Y3004D01*
X0Y3003D02*
X7Y3003D01*
X3613Y3003D02*
X3620Y3003D01*
X0Y3002D02*
X7Y3002D01*
X3613Y3002D02*
X3620Y3002D01*
X0Y3001D02*
X7Y3001D01*
X3613Y3001D02*
X3620Y3001D01*
X0Y3000D02*
X7Y3000D01*
X3613Y3000D02*
X3620Y3000D01*
X0Y2999D02*
X7Y2999D01*
X3613Y2999D02*
X3620Y2999D01*
X0Y2998D02*
X7Y2998D01*
X3613Y2998D02*
X3620Y2998D01*
X0Y2997D02*
X7Y2997D01*
X3613Y2997D02*
X3620Y2997D01*
X0Y2996D02*
X7Y2996D01*
X3613Y2996D02*
X3620Y2996D01*
X0Y2995D02*
X7Y2995D01*
X3613Y2995D02*
X3620Y2995D01*
X0Y2994D02*
X7Y2994D01*
X3613Y2994D02*
X3620Y2994D01*
X0Y2993D02*
X7Y2993D01*
X3613Y2993D02*
X3620Y2993D01*
X0Y2992D02*
X7Y2992D01*
X3613Y2992D02*
X3620Y2992D01*
X0Y2991D02*
X7Y2991D01*
X3613Y2991D02*
X3620Y2991D01*
X0Y2990D02*
X7Y2990D01*
X3613Y2990D02*
X3620Y2990D01*
X0Y2989D02*
X7Y2989D01*
X3613Y2989D02*
X3620Y2989D01*
X0Y2988D02*
X7Y2988D01*
X3613Y2988D02*
X3620Y2988D01*
X0Y2987D02*
X7Y2987D01*
X3613Y2987D02*
X3620Y2987D01*
X0Y2986D02*
X7Y2986D01*
X3613Y2986D02*
X3620Y2986D01*
X0Y2985D02*
X7Y2985D01*
X3613Y2985D02*
X3620Y2985D01*
X0Y2984D02*
X7Y2984D01*
X3613Y2984D02*
X3620Y2984D01*
X0Y2983D02*
X7Y2983D01*
X3613Y2983D02*
X3620Y2983D01*
X0Y2982D02*
X7Y2982D01*
X3613Y2982D02*
X3620Y2982D01*
X0Y2981D02*
X7Y2981D01*
X3613Y2981D02*
X3620Y2981D01*
X0Y2980D02*
X7Y2980D01*
X3613Y2980D02*
X3620Y2980D01*
X0Y2979D02*
X7Y2979D01*
X3613Y2979D02*
X3620Y2979D01*
X0Y2978D02*
X7Y2978D01*
X3613Y2978D02*
X3620Y2978D01*
X0Y2977D02*
X7Y2977D01*
X3613Y2977D02*
X3620Y2977D01*
X0Y2976D02*
X7Y2976D01*
X3613Y2976D02*
X3620Y2976D01*
X0Y2975D02*
X7Y2975D01*
X3613Y2975D02*
X3620Y2975D01*
X0Y2974D02*
X7Y2974D01*
X3613Y2974D02*
X3620Y2974D01*
X0Y2973D02*
X7Y2973D01*
X3613Y2973D02*
X3620Y2973D01*
X0Y2972D02*
X7Y2972D01*
X3613Y2972D02*
X3620Y2972D01*
X0Y2971D02*
X7Y2971D01*
X3613Y2971D02*
X3620Y2971D01*
X0Y2970D02*
X7Y2970D01*
X3613Y2970D02*
X3620Y2970D01*
X0Y2969D02*
X7Y2969D01*
X3613Y2969D02*
X3620Y2969D01*
X0Y2968D02*
X7Y2968D01*
X3613Y2968D02*
X3620Y2968D01*
X0Y2967D02*
X7Y2967D01*
X3613Y2967D02*
X3620Y2967D01*
X0Y2966D02*
X7Y2966D01*
X3613Y2966D02*
X3620Y2966D01*
X0Y2965D02*
X7Y2965D01*
X3613Y2965D02*
X3620Y2965D01*
X0Y2964D02*
X7Y2964D01*
X3613Y2964D02*
X3620Y2964D01*
X0Y2963D02*
X7Y2963D01*
X3613Y2963D02*
X3620Y2963D01*
X0Y2962D02*
X7Y2962D01*
X3613Y2962D02*
X3620Y2962D01*
X0Y2961D02*
X7Y2961D01*
X3613Y2961D02*
X3620Y2961D01*
X0Y2960D02*
X7Y2960D01*
X3613Y2960D02*
X3620Y2960D01*
X0Y2959D02*
X7Y2959D01*
X3613Y2959D02*
X3620Y2959D01*
X0Y2958D02*
X7Y2958D01*
X3613Y2958D02*
X3620Y2958D01*
X0Y2957D02*
X7Y2957D01*
X3613Y2957D02*
X3620Y2957D01*
X0Y2956D02*
X7Y2956D01*
X3613Y2956D02*
X3620Y2956D01*
X0Y2955D02*
X7Y2955D01*
X3613Y2955D02*
X3620Y2955D01*
X0Y2954D02*
X7Y2954D01*
X3613Y2954D02*
X3620Y2954D01*
X0Y2953D02*
X7Y2953D01*
X3613Y2953D02*
X3620Y2953D01*
X0Y2952D02*
X7Y2952D01*
X3613Y2952D02*
X3620Y2952D01*
X0Y2951D02*
X7Y2951D01*
X3613Y2951D02*
X3620Y2951D01*
X0Y2950D02*
X7Y2950D01*
X3613Y2950D02*
X3620Y2950D01*
X0Y2949D02*
X7Y2949D01*
X3613Y2949D02*
X3620Y2949D01*
X0Y2948D02*
X7Y2948D01*
X3613Y2948D02*
X3620Y2948D01*
X0Y2947D02*
X7Y2947D01*
X3613Y2947D02*
X3620Y2947D01*
X0Y2946D02*
X7Y2946D01*
X3613Y2946D02*
X3620Y2946D01*
X0Y2945D02*
X7Y2945D01*
X3613Y2945D02*
X3620Y2945D01*
X0Y2944D02*
X7Y2944D01*
X3613Y2944D02*
X3620Y2944D01*
X0Y2943D02*
X7Y2943D01*
X3613Y2943D02*
X3620Y2943D01*
X0Y2942D02*
X7Y2942D01*
X3613Y2942D02*
X3620Y2942D01*
X0Y2941D02*
X7Y2941D01*
X3613Y2941D02*
X3620Y2941D01*
X0Y2940D02*
X7Y2940D01*
X3613Y2940D02*
X3620Y2940D01*
X0Y2939D02*
X7Y2939D01*
X3613Y2939D02*
X3620Y2939D01*
X0Y2938D02*
X7Y2938D01*
X3613Y2938D02*
X3620Y2938D01*
X0Y2937D02*
X7Y2937D01*
X3613Y2937D02*
X3620Y2937D01*
X0Y2936D02*
X7Y2936D01*
X3613Y2936D02*
X3620Y2936D01*
X0Y2935D02*
X7Y2935D01*
X3613Y2935D02*
X3620Y2935D01*
X0Y2934D02*
X7Y2934D01*
X3613Y2934D02*
X3620Y2934D01*
X0Y2933D02*
X7Y2933D01*
X3613Y2933D02*
X3620Y2933D01*
X0Y2932D02*
X7Y2932D01*
X3613Y2932D02*
X3620Y2932D01*
X0Y2931D02*
X7Y2931D01*
X3613Y2931D02*
X3620Y2931D01*
X0Y2930D02*
X7Y2930D01*
X3613Y2930D02*
X3620Y2930D01*
X0Y2929D02*
X7Y2929D01*
X3613Y2929D02*
X3620Y2929D01*
X0Y2928D02*
X7Y2928D01*
X3613Y2928D02*
X3620Y2928D01*
X0Y2927D02*
X7Y2927D01*
X3613Y2927D02*
X3620Y2927D01*
X0Y2926D02*
X7Y2926D01*
X3613Y2926D02*
X3620Y2926D01*
X0Y2925D02*
X7Y2925D01*
X3613Y2925D02*
X3620Y2925D01*
X0Y2924D02*
X7Y2924D01*
X3613Y2924D02*
X3620Y2924D01*
X0Y2923D02*
X7Y2923D01*
X3613Y2923D02*
X3620Y2923D01*
X0Y2922D02*
X7Y2922D01*
X3613Y2922D02*
X3620Y2922D01*
X0Y2921D02*
X7Y2921D01*
X3613Y2921D02*
X3620Y2921D01*
X0Y2920D02*
X7Y2920D01*
X3613Y2920D02*
X3620Y2920D01*
X0Y2919D02*
X7Y2919D01*
X3613Y2919D02*
X3620Y2919D01*
X0Y2918D02*
X7Y2918D01*
X3613Y2918D02*
X3620Y2918D01*
X0Y2917D02*
X7Y2917D01*
X3613Y2917D02*
X3620Y2917D01*
X0Y2916D02*
X7Y2916D01*
X3613Y2916D02*
X3620Y2916D01*
X0Y2915D02*
X7Y2915D01*
X3613Y2915D02*
X3620Y2915D01*
X0Y2914D02*
X7Y2914D01*
X3613Y2914D02*
X3620Y2914D01*
X0Y2913D02*
X7Y2913D01*
X3613Y2913D02*
X3620Y2913D01*
X0Y2912D02*
X7Y2912D01*
X3613Y2912D02*
X3620Y2912D01*
X0Y2911D02*
X7Y2911D01*
X3613Y2911D02*
X3620Y2911D01*
X0Y2910D02*
X7Y2910D01*
X3613Y2910D02*
X3620Y2910D01*
X0Y2909D02*
X7Y2909D01*
X3613Y2909D02*
X3620Y2909D01*
X0Y2908D02*
X7Y2908D01*
X3613Y2908D02*
X3620Y2908D01*
X0Y2907D02*
X7Y2907D01*
X3613Y2907D02*
X3620Y2907D01*
X0Y2906D02*
X7Y2906D01*
X3613Y2906D02*
X3620Y2906D01*
X0Y2905D02*
X7Y2905D01*
X3613Y2905D02*
X3620Y2905D01*
X0Y2904D02*
X7Y2904D01*
X3613Y2904D02*
X3620Y2904D01*
X0Y2903D02*
X7Y2903D01*
X3613Y2903D02*
X3620Y2903D01*
X0Y2902D02*
X7Y2902D01*
X3613Y2902D02*
X3620Y2902D01*
X0Y2901D02*
X7Y2901D01*
X3613Y2901D02*
X3620Y2901D01*
X0Y2900D02*
X7Y2900D01*
X3613Y2900D02*
X3620Y2900D01*
X0Y2899D02*
X7Y2899D01*
X3613Y2899D02*
X3620Y2899D01*
X0Y2898D02*
X7Y2898D01*
X3613Y2898D02*
X3620Y2898D01*
X0Y2897D02*
X7Y2897D01*
X3613Y2897D02*
X3620Y2897D01*
X0Y2896D02*
X7Y2896D01*
X3613Y2896D02*
X3620Y2896D01*
X0Y2895D02*
X7Y2895D01*
X3613Y2895D02*
X3620Y2895D01*
X0Y2894D02*
X7Y2894D01*
X3613Y2894D02*
X3620Y2894D01*
X0Y2893D02*
X7Y2893D01*
X3613Y2893D02*
X3620Y2893D01*
X0Y2892D02*
X7Y2892D01*
X3613Y2892D02*
X3620Y2892D01*
X0Y2891D02*
X7Y2891D01*
X3613Y2891D02*
X3620Y2891D01*
X0Y2890D02*
X7Y2890D01*
X3613Y2890D02*
X3620Y2890D01*
X0Y2889D02*
X7Y2889D01*
X3613Y2889D02*
X3620Y2889D01*
X0Y2888D02*
X7Y2888D01*
X3613Y2888D02*
X3620Y2888D01*
X0Y2887D02*
X7Y2887D01*
X3613Y2887D02*
X3620Y2887D01*
X0Y2886D02*
X7Y2886D01*
X3613Y2886D02*
X3620Y2886D01*
X0Y2885D02*
X7Y2885D01*
X3613Y2885D02*
X3620Y2885D01*
X0Y2884D02*
X7Y2884D01*
X3613Y2884D02*
X3620Y2884D01*
X0Y2883D02*
X7Y2883D01*
X3613Y2883D02*
X3620Y2883D01*
X0Y2882D02*
X7Y2882D01*
X3613Y2882D02*
X3620Y2882D01*
X0Y2881D02*
X7Y2881D01*
X3613Y2881D02*
X3620Y2881D01*
X0Y2880D02*
X7Y2880D01*
X3613Y2880D02*
X3620Y2880D01*
X0Y2879D02*
X7Y2879D01*
X3613Y2879D02*
X3620Y2879D01*
X0Y2878D02*
X7Y2878D01*
X3613Y2878D02*
X3620Y2878D01*
X0Y2877D02*
X7Y2877D01*
X3613Y2877D02*
X3620Y2877D01*
X0Y2876D02*
X7Y2876D01*
X3613Y2876D02*
X3620Y2876D01*
X0Y2875D02*
X7Y2875D01*
X3613Y2875D02*
X3620Y2875D01*
X0Y2874D02*
X7Y2874D01*
X3613Y2874D02*
X3620Y2874D01*
X0Y2873D02*
X7Y2873D01*
X3613Y2873D02*
X3620Y2873D01*
X0Y2872D02*
X7Y2872D01*
X3613Y2872D02*
X3620Y2872D01*
X0Y2871D02*
X7Y2871D01*
X3613Y2871D02*
X3620Y2871D01*
X0Y2870D02*
X7Y2870D01*
X3613Y2870D02*
X3620Y2870D01*
X0Y2869D02*
X7Y2869D01*
X3613Y2869D02*
X3620Y2869D01*
X0Y2868D02*
X7Y2868D01*
X3613Y2868D02*
X3620Y2868D01*
X0Y2867D02*
X7Y2867D01*
X3613Y2867D02*
X3620Y2867D01*
X0Y2866D02*
X7Y2866D01*
X3613Y2866D02*
X3620Y2866D01*
X0Y2865D02*
X7Y2865D01*
X3613Y2865D02*
X3620Y2865D01*
X0Y2864D02*
X7Y2864D01*
X3613Y2864D02*
X3620Y2864D01*
X0Y2863D02*
X7Y2863D01*
X3613Y2863D02*
X3620Y2863D01*
X0Y2862D02*
X7Y2862D01*
X3613Y2862D02*
X3620Y2862D01*
X0Y2861D02*
X7Y2861D01*
X3613Y2861D02*
X3620Y2861D01*
X0Y2860D02*
X7Y2860D01*
X3613Y2860D02*
X3620Y2860D01*
X0Y2859D02*
X7Y2859D01*
X3613Y2859D02*
X3620Y2859D01*
X0Y2858D02*
X7Y2858D01*
X3613Y2858D02*
X3620Y2858D01*
X0Y2857D02*
X7Y2857D01*
X3613Y2857D02*
X3620Y2857D01*
X0Y2856D02*
X7Y2856D01*
X3613Y2856D02*
X3620Y2856D01*
X0Y2855D02*
X7Y2855D01*
X3613Y2855D02*
X3620Y2855D01*
X0Y2854D02*
X7Y2854D01*
X3613Y2854D02*
X3620Y2854D01*
X0Y2853D02*
X7Y2853D01*
X3613Y2853D02*
X3620Y2853D01*
X0Y2852D02*
X7Y2852D01*
X3613Y2852D02*
X3620Y2852D01*
X0Y2851D02*
X7Y2851D01*
X3613Y2851D02*
X3620Y2851D01*
X0Y2850D02*
X7Y2850D01*
X3613Y2850D02*
X3620Y2850D01*
X0Y2849D02*
X7Y2849D01*
X3613Y2849D02*
X3620Y2849D01*
X0Y2848D02*
X7Y2848D01*
X3613Y2848D02*
X3620Y2848D01*
X0Y2847D02*
X7Y2847D01*
X3613Y2847D02*
X3620Y2847D01*
X0Y2846D02*
X7Y2846D01*
X3613Y2846D02*
X3620Y2846D01*
X0Y2845D02*
X7Y2845D01*
X3613Y2845D02*
X3620Y2845D01*
X0Y2844D02*
X7Y2844D01*
X3613Y2844D02*
X3620Y2844D01*
X0Y2843D02*
X7Y2843D01*
X3613Y2843D02*
X3620Y2843D01*
X0Y2842D02*
X7Y2842D01*
X3613Y2842D02*
X3620Y2842D01*
X0Y2841D02*
X7Y2841D01*
X3613Y2841D02*
X3620Y2841D01*
X0Y2840D02*
X7Y2840D01*
X3613Y2840D02*
X3620Y2840D01*
X0Y2839D02*
X7Y2839D01*
X3613Y2839D02*
X3620Y2839D01*
X0Y2838D02*
X7Y2838D01*
X3613Y2838D02*
X3620Y2838D01*
X0Y2837D02*
X7Y2837D01*
X3613Y2837D02*
X3620Y2837D01*
X0Y2836D02*
X7Y2836D01*
X3613Y2836D02*
X3620Y2836D01*
X0Y2835D02*
X7Y2835D01*
X3613Y2835D02*
X3620Y2835D01*
X0Y2834D02*
X7Y2834D01*
X3613Y2834D02*
X3620Y2834D01*
X0Y2833D02*
X7Y2833D01*
X3613Y2833D02*
X3620Y2833D01*
X0Y2832D02*
X7Y2832D01*
X3613Y2832D02*
X3620Y2832D01*
X0Y2831D02*
X7Y2831D01*
X3613Y2831D02*
X3620Y2831D01*
X0Y2830D02*
X7Y2830D01*
X3613Y2830D02*
X3620Y2830D01*
X0Y2829D02*
X7Y2829D01*
X3613Y2829D02*
X3620Y2829D01*
X0Y2828D02*
X7Y2828D01*
X3613Y2828D02*
X3620Y2828D01*
X0Y2827D02*
X7Y2827D01*
X3613Y2827D02*
X3620Y2827D01*
X0Y2826D02*
X7Y2826D01*
X3613Y2826D02*
X3620Y2826D01*
X0Y2825D02*
X7Y2825D01*
X3613Y2825D02*
X3620Y2825D01*
X0Y2824D02*
X7Y2824D01*
X3613Y2824D02*
X3620Y2824D01*
X0Y2823D02*
X7Y2823D01*
X3613Y2823D02*
X3620Y2823D01*
X0Y2822D02*
X7Y2822D01*
X3613Y2822D02*
X3620Y2822D01*
X0Y2821D02*
X7Y2821D01*
X3613Y2821D02*
X3620Y2821D01*
X0Y2820D02*
X7Y2820D01*
X3613Y2820D02*
X3620Y2820D01*
X0Y2819D02*
X7Y2819D01*
X3613Y2819D02*
X3620Y2819D01*
X0Y2818D02*
X7Y2818D01*
X3613Y2818D02*
X3620Y2818D01*
X0Y2817D02*
X7Y2817D01*
X3613Y2817D02*
X3620Y2817D01*
X0Y2816D02*
X7Y2816D01*
X3613Y2816D02*
X3620Y2816D01*
X0Y2815D02*
X7Y2815D01*
X3613Y2815D02*
X3620Y2815D01*
X0Y2814D02*
X7Y2814D01*
X3613Y2814D02*
X3620Y2814D01*
X0Y2813D02*
X7Y2813D01*
X3613Y2813D02*
X3620Y2813D01*
X0Y2812D02*
X7Y2812D01*
X3613Y2812D02*
X3620Y2812D01*
X0Y2811D02*
X7Y2811D01*
X3613Y2811D02*
X3620Y2811D01*
X0Y2810D02*
X7Y2810D01*
X3613Y2810D02*
X3620Y2810D01*
X0Y2809D02*
X7Y2809D01*
X3613Y2809D02*
X3620Y2809D01*
X0Y2808D02*
X7Y2808D01*
X3613Y2808D02*
X3620Y2808D01*
X0Y2807D02*
X7Y2807D01*
X3613Y2807D02*
X3620Y2807D01*
X0Y2806D02*
X7Y2806D01*
X3613Y2806D02*
X3620Y2806D01*
X0Y2805D02*
X7Y2805D01*
X3613Y2805D02*
X3620Y2805D01*
X0Y2804D02*
X7Y2804D01*
X3613Y2804D02*
X3620Y2804D01*
X0Y2803D02*
X7Y2803D01*
X3613Y2803D02*
X3620Y2803D01*
X0Y2802D02*
X7Y2802D01*
X3613Y2802D02*
X3620Y2802D01*
X0Y2801D02*
X7Y2801D01*
X3613Y2801D02*
X3620Y2801D01*
X0Y2800D02*
X7Y2800D01*
X3613Y2800D02*
X3620Y2800D01*
X0Y2799D02*
X7Y2799D01*
X3613Y2799D02*
X3620Y2799D01*
X0Y2798D02*
X7Y2798D01*
X3613Y2798D02*
X3620Y2798D01*
X0Y2797D02*
X7Y2797D01*
X3613Y2797D02*
X3620Y2797D01*
X0Y2796D02*
X7Y2796D01*
X3613Y2796D02*
X3620Y2796D01*
X0Y2795D02*
X7Y2795D01*
X3613Y2795D02*
X3620Y2795D01*
X0Y2794D02*
X7Y2794D01*
X3613Y2794D02*
X3620Y2794D01*
X0Y2793D02*
X7Y2793D01*
X3613Y2793D02*
X3620Y2793D01*
X0Y2792D02*
X7Y2792D01*
X3613Y2792D02*
X3620Y2792D01*
X0Y2791D02*
X7Y2791D01*
X3613Y2791D02*
X3620Y2791D01*
X0Y2790D02*
X7Y2790D01*
X3613Y2790D02*
X3620Y2790D01*
X0Y2789D02*
X7Y2789D01*
X3613Y2789D02*
X3620Y2789D01*
X0Y2788D02*
X7Y2788D01*
X3613Y2788D02*
X3620Y2788D01*
X0Y2787D02*
X7Y2787D01*
X3613Y2787D02*
X3620Y2787D01*
X0Y2786D02*
X7Y2786D01*
X3613Y2786D02*
X3620Y2786D01*
X0Y2785D02*
X7Y2785D01*
X3613Y2785D02*
X3620Y2785D01*
X0Y2784D02*
X7Y2784D01*
X3613Y2784D02*
X3620Y2784D01*
X0Y2783D02*
X7Y2783D01*
X3613Y2783D02*
X3620Y2783D01*
X0Y2782D02*
X7Y2782D01*
X3613Y2782D02*
X3620Y2782D01*
X0Y2781D02*
X7Y2781D01*
X3613Y2781D02*
X3620Y2781D01*
X0Y2780D02*
X7Y2780D01*
X3613Y2780D02*
X3620Y2780D01*
X0Y2779D02*
X7Y2779D01*
X3613Y2779D02*
X3620Y2779D01*
X0Y2778D02*
X7Y2778D01*
X3613Y2778D02*
X3620Y2778D01*
X0Y2777D02*
X7Y2777D01*
X3613Y2777D02*
X3620Y2777D01*
X0Y2776D02*
X7Y2776D01*
X3613Y2776D02*
X3620Y2776D01*
X0Y2775D02*
X7Y2775D01*
X3613Y2775D02*
X3620Y2775D01*
X0Y2774D02*
X7Y2774D01*
X3613Y2774D02*
X3620Y2774D01*
X0Y2773D02*
X7Y2773D01*
X3613Y2773D02*
X3620Y2773D01*
X0Y2772D02*
X7Y2772D01*
X3613Y2772D02*
X3620Y2772D01*
X0Y2771D02*
X7Y2771D01*
X3613Y2771D02*
X3620Y2771D01*
X0Y2770D02*
X7Y2770D01*
X3613Y2770D02*
X3620Y2770D01*
X0Y2769D02*
X7Y2769D01*
X3613Y2769D02*
X3620Y2769D01*
X0Y2768D02*
X7Y2768D01*
X3613Y2768D02*
X3620Y2768D01*
X0Y2767D02*
X7Y2767D01*
X3613Y2767D02*
X3620Y2767D01*
X0Y2766D02*
X7Y2766D01*
X3613Y2766D02*
X3620Y2766D01*
X0Y2765D02*
X7Y2765D01*
X3613Y2765D02*
X3620Y2765D01*
X0Y2764D02*
X7Y2764D01*
X3613Y2764D02*
X3620Y2764D01*
X0Y2763D02*
X7Y2763D01*
X3613Y2763D02*
X3620Y2763D01*
X0Y2762D02*
X7Y2762D01*
X3613Y2762D02*
X3620Y2762D01*
X0Y2761D02*
X7Y2761D01*
X3613Y2761D02*
X3620Y2761D01*
X0Y2760D02*
X7Y2760D01*
X3613Y2760D02*
X3620Y2760D01*
X0Y2759D02*
X7Y2759D01*
X3613Y2759D02*
X3620Y2759D01*
X0Y2758D02*
X7Y2758D01*
X3613Y2758D02*
X3620Y2758D01*
X0Y2757D02*
X7Y2757D01*
X3613Y2757D02*
X3620Y2757D01*
X0Y2756D02*
X7Y2756D01*
X3613Y2756D02*
X3620Y2756D01*
X0Y2755D02*
X7Y2755D01*
X3613Y2755D02*
X3620Y2755D01*
X0Y2754D02*
X7Y2754D01*
X3613Y2754D02*
X3620Y2754D01*
X0Y2753D02*
X7Y2753D01*
X3613Y2753D02*
X3620Y2753D01*
X0Y2752D02*
X7Y2752D01*
X3613Y2752D02*
X3620Y2752D01*
X0Y2751D02*
X7Y2751D01*
X3613Y2751D02*
X3620Y2751D01*
X0Y2750D02*
X7Y2750D01*
X3613Y2750D02*
X3620Y2750D01*
X0Y2749D02*
X7Y2749D01*
X3613Y2749D02*
X3620Y2749D01*
X0Y2748D02*
X7Y2748D01*
X3613Y2748D02*
X3620Y2748D01*
X0Y2747D02*
X7Y2747D01*
X3613Y2747D02*
X3620Y2747D01*
X0Y2746D02*
X7Y2746D01*
X3613Y2746D02*
X3620Y2746D01*
X0Y2745D02*
X7Y2745D01*
X3613Y2745D02*
X3620Y2745D01*
X0Y2744D02*
X7Y2744D01*
X3613Y2744D02*
X3620Y2744D01*
X0Y2743D02*
X7Y2743D01*
X3613Y2743D02*
X3620Y2743D01*
X0Y2742D02*
X7Y2742D01*
X3613Y2742D02*
X3620Y2742D01*
X0Y2741D02*
X7Y2741D01*
X3613Y2741D02*
X3620Y2741D01*
X0Y2740D02*
X7Y2740D01*
X3613Y2740D02*
X3620Y2740D01*
X0Y2739D02*
X7Y2739D01*
X3613Y2739D02*
X3620Y2739D01*
X0Y2738D02*
X7Y2738D01*
X3613Y2738D02*
X3620Y2738D01*
X0Y2737D02*
X7Y2737D01*
X3613Y2737D02*
X3620Y2737D01*
X0Y2736D02*
X7Y2736D01*
X3613Y2736D02*
X3620Y2736D01*
X0Y2735D02*
X7Y2735D01*
X3613Y2735D02*
X3620Y2735D01*
X0Y2734D02*
X7Y2734D01*
X3613Y2734D02*
X3620Y2734D01*
X0Y2733D02*
X7Y2733D01*
X3613Y2733D02*
X3620Y2733D01*
X0Y2732D02*
X7Y2732D01*
X3613Y2732D02*
X3620Y2732D01*
X0Y2731D02*
X7Y2731D01*
X3613Y2731D02*
X3620Y2731D01*
X0Y2730D02*
X7Y2730D01*
X3613Y2730D02*
X3620Y2730D01*
X0Y2729D02*
X7Y2729D01*
X3613Y2729D02*
X3620Y2729D01*
X0Y2728D02*
X7Y2728D01*
X3613Y2728D02*
X3620Y2728D01*
X0Y2727D02*
X7Y2727D01*
X3613Y2727D02*
X3620Y2727D01*
X0Y2726D02*
X7Y2726D01*
X3613Y2726D02*
X3620Y2726D01*
X0Y2725D02*
X7Y2725D01*
X3613Y2725D02*
X3620Y2725D01*
X0Y2724D02*
X7Y2724D01*
X3613Y2724D02*
X3620Y2724D01*
X0Y2723D02*
X7Y2723D01*
X3613Y2723D02*
X3620Y2723D01*
X0Y2722D02*
X7Y2722D01*
X3613Y2722D02*
X3620Y2722D01*
X0Y2721D02*
X7Y2721D01*
X3613Y2721D02*
X3620Y2721D01*
X0Y2720D02*
X7Y2720D01*
X3613Y2720D02*
X3620Y2720D01*
X0Y2719D02*
X7Y2719D01*
X3613Y2719D02*
X3620Y2719D01*
X0Y2718D02*
X7Y2718D01*
X3613Y2718D02*
X3620Y2718D01*
X0Y2717D02*
X7Y2717D01*
X3613Y2717D02*
X3620Y2717D01*
X0Y2716D02*
X7Y2716D01*
X3613Y2716D02*
X3620Y2716D01*
X0Y2715D02*
X7Y2715D01*
X3613Y2715D02*
X3620Y2715D01*
X0Y2714D02*
X7Y2714D01*
X3613Y2714D02*
X3620Y2714D01*
X0Y2713D02*
X7Y2713D01*
X3613Y2713D02*
X3620Y2713D01*
X0Y2712D02*
X7Y2712D01*
X3613Y2712D02*
X3620Y2712D01*
X0Y2711D02*
X7Y2711D01*
X3613Y2711D02*
X3620Y2711D01*
X0Y2710D02*
X7Y2710D01*
X3613Y2710D02*
X3620Y2710D01*
X0Y2709D02*
X7Y2709D01*
X3613Y2709D02*
X3620Y2709D01*
X0Y2708D02*
X7Y2708D01*
X3613Y2708D02*
X3620Y2708D01*
X0Y2707D02*
X7Y2707D01*
X3613Y2707D02*
X3620Y2707D01*
X0Y2706D02*
X7Y2706D01*
X3613Y2706D02*
X3620Y2706D01*
X0Y2705D02*
X7Y2705D01*
X3613Y2705D02*
X3620Y2705D01*
X0Y2704D02*
X7Y2704D01*
X3613Y2704D02*
X3620Y2704D01*
X0Y2703D02*
X7Y2703D01*
X3613Y2703D02*
X3620Y2703D01*
X0Y2702D02*
X7Y2702D01*
X3613Y2702D02*
X3620Y2702D01*
X0Y2701D02*
X7Y2701D01*
X3613Y2701D02*
X3620Y2701D01*
X0Y2700D02*
X7Y2700D01*
X3613Y2700D02*
X3620Y2700D01*
X0Y2699D02*
X7Y2699D01*
X3613Y2699D02*
X3620Y2699D01*
X0Y2698D02*
X7Y2698D01*
X3613Y2698D02*
X3620Y2698D01*
X0Y2697D02*
X7Y2697D01*
X3613Y2697D02*
X3620Y2697D01*
X0Y2696D02*
X7Y2696D01*
X3613Y2696D02*
X3620Y2696D01*
X0Y2695D02*
X7Y2695D01*
X3613Y2695D02*
X3620Y2695D01*
X0Y2694D02*
X7Y2694D01*
X3613Y2694D02*
X3620Y2694D01*
X0Y2693D02*
X7Y2693D01*
X3613Y2693D02*
X3620Y2693D01*
X0Y2692D02*
X7Y2692D01*
X3613Y2692D02*
X3620Y2692D01*
X0Y2691D02*
X7Y2691D01*
X3613Y2691D02*
X3620Y2691D01*
X0Y2690D02*
X7Y2690D01*
X3613Y2690D02*
X3620Y2690D01*
X0Y2689D02*
X7Y2689D01*
X3613Y2689D02*
X3620Y2689D01*
X0Y2688D02*
X7Y2688D01*
X3613Y2688D02*
X3620Y2688D01*
X0Y2687D02*
X7Y2687D01*
X3613Y2687D02*
X3620Y2687D01*
X0Y2686D02*
X7Y2686D01*
X3613Y2686D02*
X3620Y2686D01*
X0Y2685D02*
X7Y2685D01*
X3613Y2685D02*
X3620Y2685D01*
X0Y2684D02*
X7Y2684D01*
X3613Y2684D02*
X3620Y2684D01*
X0Y2683D02*
X7Y2683D01*
X3613Y2683D02*
X3620Y2683D01*
X0Y2682D02*
X7Y2682D01*
X3613Y2682D02*
X3620Y2682D01*
X0Y2681D02*
X7Y2681D01*
X3613Y2681D02*
X3620Y2681D01*
X0Y2680D02*
X7Y2680D01*
X3613Y2680D02*
X3620Y2680D01*
X0Y2679D02*
X7Y2679D01*
X3613Y2679D02*
X3620Y2679D01*
X0Y2678D02*
X7Y2678D01*
X3613Y2678D02*
X3620Y2678D01*
X0Y2677D02*
X7Y2677D01*
X3613Y2677D02*
X3620Y2677D01*
X0Y2676D02*
X7Y2676D01*
X3613Y2676D02*
X3620Y2676D01*
X0Y2675D02*
X7Y2675D01*
X3613Y2675D02*
X3620Y2675D01*
X0Y2674D02*
X7Y2674D01*
X3613Y2674D02*
X3620Y2674D01*
X0Y2673D02*
X7Y2673D01*
X3613Y2673D02*
X3620Y2673D01*
X0Y2672D02*
X7Y2672D01*
X3613Y2672D02*
X3620Y2672D01*
X0Y2671D02*
X7Y2671D01*
X3613Y2671D02*
X3620Y2671D01*
X0Y2670D02*
X7Y2670D01*
X3613Y2670D02*
X3620Y2670D01*
X0Y2669D02*
X7Y2669D01*
X3613Y2669D02*
X3620Y2669D01*
X0Y2668D02*
X7Y2668D01*
X3613Y2668D02*
X3620Y2668D01*
X0Y2667D02*
X7Y2667D01*
X3613Y2667D02*
X3620Y2667D01*
X0Y2666D02*
X7Y2666D01*
X3613Y2666D02*
X3620Y2666D01*
X0Y2665D02*
X7Y2665D01*
X3613Y2665D02*
X3620Y2665D01*
X0Y2664D02*
X7Y2664D01*
X3613Y2664D02*
X3620Y2664D01*
X0Y2663D02*
X7Y2663D01*
X3613Y2663D02*
X3620Y2663D01*
X0Y2662D02*
X7Y2662D01*
X3613Y2662D02*
X3620Y2662D01*
X0Y2661D02*
X7Y2661D01*
X3613Y2661D02*
X3620Y2661D01*
X0Y2660D02*
X7Y2660D01*
X3613Y2660D02*
X3620Y2660D01*
X0Y2659D02*
X7Y2659D01*
X3613Y2659D02*
X3620Y2659D01*
X0Y2658D02*
X7Y2658D01*
X3613Y2658D02*
X3620Y2658D01*
X0Y2657D02*
X7Y2657D01*
X3613Y2657D02*
X3620Y2657D01*
X0Y2656D02*
X7Y2656D01*
X3613Y2656D02*
X3620Y2656D01*
X0Y2655D02*
X7Y2655D01*
X3613Y2655D02*
X3620Y2655D01*
X0Y2654D02*
X7Y2654D01*
X3613Y2654D02*
X3620Y2654D01*
X0Y2653D02*
X7Y2653D01*
X3613Y2653D02*
X3620Y2653D01*
X0Y2652D02*
X7Y2652D01*
X3613Y2652D02*
X3620Y2652D01*
X0Y2651D02*
X7Y2651D01*
X3613Y2651D02*
X3620Y2651D01*
X0Y2650D02*
X7Y2650D01*
X3613Y2650D02*
X3620Y2650D01*
X0Y2649D02*
X7Y2649D01*
X3613Y2649D02*
X3620Y2649D01*
X0Y2648D02*
X7Y2648D01*
X3613Y2648D02*
X3620Y2648D01*
X0Y2647D02*
X7Y2647D01*
X3613Y2647D02*
X3620Y2647D01*
X0Y2646D02*
X7Y2646D01*
X3613Y2646D02*
X3620Y2646D01*
X0Y2645D02*
X7Y2645D01*
X3613Y2645D02*
X3620Y2645D01*
X0Y2644D02*
X7Y2644D01*
X3613Y2644D02*
X3620Y2644D01*
X0Y2643D02*
X7Y2643D01*
X3613Y2643D02*
X3620Y2643D01*
X0Y2642D02*
X7Y2642D01*
X3613Y2642D02*
X3620Y2642D01*
X0Y2641D02*
X7Y2641D01*
X3613Y2641D02*
X3620Y2641D01*
X0Y2640D02*
X7Y2640D01*
X3613Y2640D02*
X3620Y2640D01*
X0Y2639D02*
X7Y2639D01*
X3613Y2639D02*
X3620Y2639D01*
X0Y2638D02*
X7Y2638D01*
X3613Y2638D02*
X3620Y2638D01*
X0Y2637D02*
X7Y2637D01*
X3613Y2637D02*
X3620Y2637D01*
X0Y2636D02*
X7Y2636D01*
X3613Y2636D02*
X3620Y2636D01*
X0Y2635D02*
X7Y2635D01*
X3613Y2635D02*
X3620Y2635D01*
X0Y2634D02*
X7Y2634D01*
X3613Y2634D02*
X3620Y2634D01*
X0Y2633D02*
X7Y2633D01*
X3613Y2633D02*
X3620Y2633D01*
X0Y2632D02*
X7Y2632D01*
X3613Y2632D02*
X3620Y2632D01*
X0Y2631D02*
X7Y2631D01*
X3613Y2631D02*
X3620Y2631D01*
X0Y2630D02*
X7Y2630D01*
X3613Y2630D02*
X3620Y2630D01*
X0Y2629D02*
X7Y2629D01*
X3613Y2629D02*
X3620Y2629D01*
X0Y2628D02*
X7Y2628D01*
X3613Y2628D02*
X3620Y2628D01*
X0Y2627D02*
X7Y2627D01*
X3613Y2627D02*
X3620Y2627D01*
X0Y2626D02*
X7Y2626D01*
X3613Y2626D02*
X3620Y2626D01*
X0Y2625D02*
X7Y2625D01*
X3613Y2625D02*
X3620Y2625D01*
X0Y2624D02*
X7Y2624D01*
X3613Y2624D02*
X3620Y2624D01*
X0Y2623D02*
X7Y2623D01*
X3613Y2623D02*
X3620Y2623D01*
X0Y2622D02*
X7Y2622D01*
X3613Y2622D02*
X3620Y2622D01*
X0Y2621D02*
X7Y2621D01*
X3613Y2621D02*
X3620Y2621D01*
X0Y2620D02*
X7Y2620D01*
X3613Y2620D02*
X3620Y2620D01*
X0Y2619D02*
X7Y2619D01*
X3613Y2619D02*
X3620Y2619D01*
X0Y2618D02*
X7Y2618D01*
X3613Y2618D02*
X3620Y2618D01*
X0Y2617D02*
X7Y2617D01*
X3613Y2617D02*
X3620Y2617D01*
X0Y2616D02*
X7Y2616D01*
X3613Y2616D02*
X3620Y2616D01*
X0Y2615D02*
X7Y2615D01*
X3613Y2615D02*
X3620Y2615D01*
X0Y2614D02*
X7Y2614D01*
X3613Y2614D02*
X3620Y2614D01*
X0Y2613D02*
X7Y2613D01*
X3613Y2613D02*
X3620Y2613D01*
X0Y2612D02*
X7Y2612D01*
X3613Y2612D02*
X3620Y2612D01*
X0Y2611D02*
X7Y2611D01*
X3613Y2611D02*
X3620Y2611D01*
X0Y2610D02*
X7Y2610D01*
X3613Y2610D02*
X3620Y2610D01*
X0Y2609D02*
X7Y2609D01*
X3613Y2609D02*
X3620Y2609D01*
X0Y2608D02*
X7Y2608D01*
X3613Y2608D02*
X3620Y2608D01*
X0Y2607D02*
X7Y2607D01*
X3613Y2607D02*
X3620Y2607D01*
X0Y2606D02*
X7Y2606D01*
X3613Y2606D02*
X3620Y2606D01*
X0Y2605D02*
X7Y2605D01*
X3613Y2605D02*
X3620Y2605D01*
X0Y2604D02*
X7Y2604D01*
X3613Y2604D02*
X3620Y2604D01*
X0Y2603D02*
X7Y2603D01*
X3613Y2603D02*
X3620Y2603D01*
X0Y2602D02*
X7Y2602D01*
X3613Y2602D02*
X3620Y2602D01*
X0Y2601D02*
X7Y2601D01*
X3613Y2601D02*
X3620Y2601D01*
X0Y2600D02*
X7Y2600D01*
X3613Y2600D02*
X3620Y2600D01*
X0Y2599D02*
X7Y2599D01*
X3613Y2599D02*
X3620Y2599D01*
X0Y2598D02*
X7Y2598D01*
X3613Y2598D02*
X3620Y2598D01*
X0Y2597D02*
X7Y2597D01*
X3613Y2597D02*
X3620Y2597D01*
X0Y2596D02*
X7Y2596D01*
X3613Y2596D02*
X3620Y2596D01*
X0Y2595D02*
X7Y2595D01*
X3613Y2595D02*
X3620Y2595D01*
X0Y2594D02*
X7Y2594D01*
X3613Y2594D02*
X3620Y2594D01*
X0Y2593D02*
X7Y2593D01*
X3613Y2593D02*
X3620Y2593D01*
X0Y2592D02*
X7Y2592D01*
X3613Y2592D02*
X3620Y2592D01*
X0Y2591D02*
X7Y2591D01*
X3613Y2591D02*
X3620Y2591D01*
X0Y2590D02*
X7Y2590D01*
X3613Y2590D02*
X3620Y2590D01*
X0Y2589D02*
X7Y2589D01*
X3613Y2589D02*
X3620Y2589D01*
X0Y2588D02*
X7Y2588D01*
X3613Y2588D02*
X3620Y2588D01*
X0Y2587D02*
X7Y2587D01*
X3613Y2587D02*
X3620Y2587D01*
X0Y2586D02*
X7Y2586D01*
X3613Y2586D02*
X3620Y2586D01*
X0Y2585D02*
X7Y2585D01*
X3613Y2585D02*
X3620Y2585D01*
X0Y2584D02*
X7Y2584D01*
X3613Y2584D02*
X3620Y2584D01*
X0Y2583D02*
X7Y2583D01*
X3613Y2583D02*
X3620Y2583D01*
X0Y2582D02*
X7Y2582D01*
X3613Y2582D02*
X3620Y2582D01*
X0Y2581D02*
X7Y2581D01*
X3613Y2581D02*
X3620Y2581D01*
X0Y2580D02*
X7Y2580D01*
X3613Y2580D02*
X3620Y2580D01*
X0Y2579D02*
X7Y2579D01*
X3613Y2579D02*
X3620Y2579D01*
X0Y2578D02*
X7Y2578D01*
X3613Y2578D02*
X3620Y2578D01*
X0Y2577D02*
X7Y2577D01*
X3613Y2577D02*
X3620Y2577D01*
X0Y2576D02*
X7Y2576D01*
X3613Y2576D02*
X3620Y2576D01*
X0Y2575D02*
X7Y2575D01*
X3613Y2575D02*
X3620Y2575D01*
X0Y2574D02*
X7Y2574D01*
X3613Y2574D02*
X3620Y2574D01*
X0Y2573D02*
X7Y2573D01*
X3613Y2573D02*
X3620Y2573D01*
X0Y2572D02*
X7Y2572D01*
X3613Y2572D02*
X3620Y2572D01*
X0Y2571D02*
X7Y2571D01*
X3613Y2571D02*
X3620Y2571D01*
X0Y2570D02*
X7Y2570D01*
X3613Y2570D02*
X3620Y2570D01*
X0Y2569D02*
X7Y2569D01*
X3613Y2569D02*
X3620Y2569D01*
X0Y2568D02*
X7Y2568D01*
X3613Y2568D02*
X3620Y2568D01*
X0Y2567D02*
X7Y2567D01*
X3613Y2567D02*
X3620Y2567D01*
X0Y2566D02*
X7Y2566D01*
X3613Y2566D02*
X3620Y2566D01*
X0Y2565D02*
X7Y2565D01*
X3613Y2565D02*
X3620Y2565D01*
X0Y2564D02*
X7Y2564D01*
X3613Y2564D02*
X3620Y2564D01*
X0Y2563D02*
X7Y2563D01*
X3613Y2563D02*
X3620Y2563D01*
X0Y2562D02*
X7Y2562D01*
X3613Y2562D02*
X3620Y2562D01*
X0Y2561D02*
X7Y2561D01*
X3613Y2561D02*
X3620Y2561D01*
X0Y2560D02*
X7Y2560D01*
X3613Y2560D02*
X3620Y2560D01*
X0Y2559D02*
X7Y2559D01*
X3613Y2559D02*
X3620Y2559D01*
X0Y2558D02*
X7Y2558D01*
X3613Y2558D02*
X3620Y2558D01*
X0Y2557D02*
X7Y2557D01*
X3613Y2557D02*
X3620Y2557D01*
X0Y2556D02*
X7Y2556D01*
X3613Y2556D02*
X3620Y2556D01*
X0Y2555D02*
X7Y2555D01*
X3613Y2555D02*
X3620Y2555D01*
X0Y2554D02*
X7Y2554D01*
X3613Y2554D02*
X3620Y2554D01*
X0Y2553D02*
X7Y2553D01*
X3613Y2553D02*
X3620Y2553D01*
X0Y2552D02*
X7Y2552D01*
X3613Y2552D02*
X3620Y2552D01*
X0Y2551D02*
X7Y2551D01*
X3613Y2551D02*
X3620Y2551D01*
X0Y2550D02*
X7Y2550D01*
X3613Y2550D02*
X3620Y2550D01*
X0Y2549D02*
X7Y2549D01*
X3613Y2549D02*
X3620Y2549D01*
X0Y2548D02*
X7Y2548D01*
X3613Y2548D02*
X3620Y2548D01*
X0Y2547D02*
X7Y2547D01*
X3613Y2547D02*
X3620Y2547D01*
X0Y2546D02*
X7Y2546D01*
X3613Y2546D02*
X3620Y2546D01*
X0Y2545D02*
X7Y2545D01*
X3613Y2545D02*
X3620Y2545D01*
X0Y2544D02*
X7Y2544D01*
X3613Y2544D02*
X3620Y2544D01*
X0Y2543D02*
X7Y2543D01*
X3613Y2543D02*
X3620Y2543D01*
X0Y2542D02*
X7Y2542D01*
X3613Y2542D02*
X3620Y2542D01*
X0Y2541D02*
X7Y2541D01*
X3613Y2541D02*
X3620Y2541D01*
X0Y2540D02*
X7Y2540D01*
X3613Y2540D02*
X3620Y2540D01*
X0Y2539D02*
X7Y2539D01*
X3613Y2539D02*
X3620Y2539D01*
X0Y2538D02*
X7Y2538D01*
X3613Y2538D02*
X3620Y2538D01*
X0Y2537D02*
X7Y2537D01*
X3613Y2537D02*
X3620Y2537D01*
X0Y2536D02*
X7Y2536D01*
X3613Y2536D02*
X3620Y2536D01*
X0Y2535D02*
X7Y2535D01*
X3613Y2535D02*
X3620Y2535D01*
X0Y2534D02*
X7Y2534D01*
X3613Y2534D02*
X3620Y2534D01*
X0Y2533D02*
X7Y2533D01*
X3613Y2533D02*
X3620Y2533D01*
X0Y2532D02*
X7Y2532D01*
X3613Y2532D02*
X3620Y2532D01*
X0Y2531D02*
X7Y2531D01*
X3613Y2531D02*
X3620Y2531D01*
X0Y2530D02*
X7Y2530D01*
X3613Y2530D02*
X3620Y2530D01*
X0Y2529D02*
X7Y2529D01*
X3613Y2529D02*
X3620Y2529D01*
X0Y2528D02*
X7Y2528D01*
X3613Y2528D02*
X3620Y2528D01*
X0Y2527D02*
X7Y2527D01*
X3613Y2527D02*
X3620Y2527D01*
X0Y2526D02*
X7Y2526D01*
X3613Y2526D02*
X3620Y2526D01*
X0Y2525D02*
X7Y2525D01*
X3613Y2525D02*
X3620Y2525D01*
X0Y2524D02*
X7Y2524D01*
X3613Y2524D02*
X3620Y2524D01*
X0Y2523D02*
X7Y2523D01*
X3613Y2523D02*
X3620Y2523D01*
X0Y2522D02*
X7Y2522D01*
X3613Y2522D02*
X3620Y2522D01*
X0Y2521D02*
X7Y2521D01*
X3613Y2521D02*
X3620Y2521D01*
X0Y2520D02*
X7Y2520D01*
X3613Y2520D02*
X3620Y2520D01*
X0Y2519D02*
X7Y2519D01*
X3613Y2519D02*
X3620Y2519D01*
X0Y2518D02*
X7Y2518D01*
X3613Y2518D02*
X3620Y2518D01*
X0Y2517D02*
X7Y2517D01*
X3613Y2517D02*
X3620Y2517D01*
X0Y2516D02*
X7Y2516D01*
X3613Y2516D02*
X3620Y2516D01*
X0Y2515D02*
X7Y2515D01*
X3613Y2515D02*
X3620Y2515D01*
X0Y2514D02*
X7Y2514D01*
X3613Y2514D02*
X3620Y2514D01*
X0Y2513D02*
X7Y2513D01*
X3613Y2513D02*
X3620Y2513D01*
X0Y2512D02*
X7Y2512D01*
X3613Y2512D02*
X3620Y2512D01*
X0Y2511D02*
X7Y2511D01*
X3613Y2511D02*
X3620Y2511D01*
X0Y2510D02*
X7Y2510D01*
X3613Y2510D02*
X3620Y2510D01*
X0Y2509D02*
X7Y2509D01*
X3613Y2509D02*
X3620Y2509D01*
X0Y2508D02*
X7Y2508D01*
X3613Y2508D02*
X3620Y2508D01*
X0Y2507D02*
X7Y2507D01*
X3613Y2507D02*
X3620Y2507D01*
X0Y2506D02*
X7Y2506D01*
X3613Y2506D02*
X3620Y2506D01*
X0Y2505D02*
X7Y2505D01*
X3613Y2505D02*
X3620Y2505D01*
X0Y2504D02*
X7Y2504D01*
X3613Y2504D02*
X3620Y2504D01*
X0Y2503D02*
X7Y2503D01*
X3613Y2503D02*
X3620Y2503D01*
X0Y2502D02*
X7Y2502D01*
X3613Y2502D02*
X3620Y2502D01*
X0Y2501D02*
X7Y2501D01*
X3613Y2501D02*
X3620Y2501D01*
X0Y2500D02*
X7Y2500D01*
X3613Y2500D02*
X3620Y2500D01*
X0Y2499D02*
X7Y2499D01*
X3613Y2499D02*
X3620Y2499D01*
X0Y2498D02*
X7Y2498D01*
X3613Y2498D02*
X3620Y2498D01*
X0Y2497D02*
X7Y2497D01*
X3613Y2497D02*
X3620Y2497D01*
X0Y2496D02*
X7Y2496D01*
X3613Y2496D02*
X3620Y2496D01*
X0Y2495D02*
X7Y2495D01*
X3613Y2495D02*
X3620Y2495D01*
X0Y2494D02*
X7Y2494D01*
X3613Y2494D02*
X3620Y2494D01*
X0Y2493D02*
X7Y2493D01*
X3613Y2493D02*
X3620Y2493D01*
X0Y2492D02*
X7Y2492D01*
X3613Y2492D02*
X3620Y2492D01*
X0Y2491D02*
X7Y2491D01*
X3613Y2491D02*
X3620Y2491D01*
X0Y2490D02*
X7Y2490D01*
X3613Y2490D02*
X3620Y2490D01*
X0Y2489D02*
X7Y2489D01*
X3613Y2489D02*
X3620Y2489D01*
X0Y2488D02*
X7Y2488D01*
X3613Y2488D02*
X3620Y2488D01*
X0Y2487D02*
X7Y2487D01*
X3613Y2487D02*
X3620Y2487D01*
X0Y2486D02*
X7Y2486D01*
X3613Y2486D02*
X3620Y2486D01*
X0Y2485D02*
X7Y2485D01*
X3613Y2485D02*
X3620Y2485D01*
X0Y2484D02*
X7Y2484D01*
X3613Y2484D02*
X3620Y2484D01*
X0Y2483D02*
X7Y2483D01*
X3613Y2483D02*
X3620Y2483D01*
X0Y2482D02*
X7Y2482D01*
X3613Y2482D02*
X3620Y2482D01*
X0Y2481D02*
X7Y2481D01*
X3613Y2481D02*
X3620Y2481D01*
X0Y2480D02*
X7Y2480D01*
X3613Y2480D02*
X3620Y2480D01*
X0Y2479D02*
X7Y2479D01*
X3613Y2479D02*
X3620Y2479D01*
X0Y2478D02*
X7Y2478D01*
X3613Y2478D02*
X3620Y2478D01*
X0Y2477D02*
X7Y2477D01*
X3613Y2477D02*
X3620Y2477D01*
X0Y2476D02*
X7Y2476D01*
X3613Y2476D02*
X3620Y2476D01*
X0Y2475D02*
X7Y2475D01*
X3613Y2475D02*
X3620Y2475D01*
X0Y2474D02*
X7Y2474D01*
X3613Y2474D02*
X3620Y2474D01*
X0Y2473D02*
X7Y2473D01*
X3613Y2473D02*
X3620Y2473D01*
X0Y2472D02*
X7Y2472D01*
X3613Y2472D02*
X3620Y2472D01*
X0Y2471D02*
X7Y2471D01*
X3613Y2471D02*
X3620Y2471D01*
X0Y2470D02*
X7Y2470D01*
X3613Y2470D02*
X3620Y2470D01*
X0Y2469D02*
X7Y2469D01*
X3613Y2469D02*
X3620Y2469D01*
X0Y2468D02*
X7Y2468D01*
X3613Y2468D02*
X3620Y2468D01*
X0Y2467D02*
X7Y2467D01*
X3613Y2467D02*
X3620Y2467D01*
X0Y2466D02*
X7Y2466D01*
X3613Y2466D02*
X3620Y2466D01*
X0Y2465D02*
X7Y2465D01*
X3613Y2465D02*
X3620Y2465D01*
X0Y2464D02*
X7Y2464D01*
X3613Y2464D02*
X3620Y2464D01*
X0Y2463D02*
X7Y2463D01*
X3613Y2463D02*
X3620Y2463D01*
X0Y2462D02*
X7Y2462D01*
X3613Y2462D02*
X3620Y2462D01*
X0Y2461D02*
X7Y2461D01*
X3613Y2461D02*
X3620Y2461D01*
X0Y2460D02*
X7Y2460D01*
X3613Y2460D02*
X3620Y2460D01*
X0Y2459D02*
X7Y2459D01*
X3613Y2459D02*
X3620Y2459D01*
X0Y2458D02*
X7Y2458D01*
X3613Y2458D02*
X3620Y2458D01*
X0Y2457D02*
X7Y2457D01*
X3613Y2457D02*
X3620Y2457D01*
X0Y2456D02*
X7Y2456D01*
X3613Y2456D02*
X3620Y2456D01*
X0Y2455D02*
X7Y2455D01*
X3613Y2455D02*
X3620Y2455D01*
X0Y2454D02*
X7Y2454D01*
X3613Y2454D02*
X3620Y2454D01*
X0Y2453D02*
X7Y2453D01*
X3613Y2453D02*
X3620Y2453D01*
X0Y2452D02*
X7Y2452D01*
X3613Y2452D02*
X3620Y2452D01*
X0Y2451D02*
X7Y2451D01*
X3613Y2451D02*
X3620Y2451D01*
X0Y2450D02*
X7Y2450D01*
X3613Y2450D02*
X3620Y2450D01*
X0Y2449D02*
X7Y2449D01*
X3613Y2449D02*
X3620Y2449D01*
X0Y2448D02*
X7Y2448D01*
X3613Y2448D02*
X3620Y2448D01*
X0Y2447D02*
X7Y2447D01*
X3613Y2447D02*
X3620Y2447D01*
X0Y2446D02*
X7Y2446D01*
X3613Y2446D02*
X3620Y2446D01*
X0Y2445D02*
X7Y2445D01*
X3613Y2445D02*
X3620Y2445D01*
X0Y2444D02*
X7Y2444D01*
X3613Y2444D02*
X3620Y2444D01*
X0Y2443D02*
X7Y2443D01*
X3613Y2443D02*
X3620Y2443D01*
X0Y2442D02*
X7Y2442D01*
X3613Y2442D02*
X3620Y2442D01*
X0Y2441D02*
X7Y2441D01*
X3613Y2441D02*
X3620Y2441D01*
X0Y2440D02*
X7Y2440D01*
X3613Y2440D02*
X3620Y2440D01*
X0Y2439D02*
X7Y2439D01*
X3613Y2439D02*
X3620Y2439D01*
X0Y2438D02*
X7Y2438D01*
X3613Y2438D02*
X3620Y2438D01*
X0Y2437D02*
X7Y2437D01*
X3613Y2437D02*
X3620Y2437D01*
X0Y2436D02*
X7Y2436D01*
X3613Y2436D02*
X3620Y2436D01*
X0Y2435D02*
X7Y2435D01*
X3613Y2435D02*
X3620Y2435D01*
X0Y2434D02*
X7Y2434D01*
X3613Y2434D02*
X3620Y2434D01*
X0Y2433D02*
X7Y2433D01*
X3613Y2433D02*
X3620Y2433D01*
X0Y2432D02*
X7Y2432D01*
X3613Y2432D02*
X3620Y2432D01*
X0Y2431D02*
X7Y2431D01*
X3613Y2431D02*
X3620Y2431D01*
X0Y2430D02*
X7Y2430D01*
X3613Y2430D02*
X3620Y2430D01*
X0Y2429D02*
X7Y2429D01*
X3613Y2429D02*
X3620Y2429D01*
X0Y2428D02*
X7Y2428D01*
X3613Y2428D02*
X3620Y2428D01*
X0Y2427D02*
X7Y2427D01*
X3613Y2427D02*
X3620Y2427D01*
X0Y2426D02*
X7Y2426D01*
X3613Y2426D02*
X3620Y2426D01*
X0Y2425D02*
X7Y2425D01*
X3613Y2425D02*
X3620Y2425D01*
X0Y2424D02*
X7Y2424D01*
X3613Y2424D02*
X3620Y2424D01*
X0Y2423D02*
X7Y2423D01*
X3613Y2423D02*
X3620Y2423D01*
X0Y2422D02*
X7Y2422D01*
X3613Y2422D02*
X3620Y2422D01*
X0Y2421D02*
X7Y2421D01*
X3613Y2421D02*
X3620Y2421D01*
X0Y2420D02*
X7Y2420D01*
X3613Y2420D02*
X3620Y2420D01*
X0Y2419D02*
X7Y2419D01*
X3613Y2419D02*
X3620Y2419D01*
X0Y2418D02*
X7Y2418D01*
X3613Y2418D02*
X3620Y2418D01*
X0Y2417D02*
X7Y2417D01*
X3613Y2417D02*
X3620Y2417D01*
X0Y2416D02*
X7Y2416D01*
X3613Y2416D02*
X3620Y2416D01*
X0Y2415D02*
X7Y2415D01*
X3613Y2415D02*
X3620Y2415D01*
X0Y2414D02*
X7Y2414D01*
X3613Y2414D02*
X3620Y2414D01*
X0Y2413D02*
X7Y2413D01*
X3613Y2413D02*
X3620Y2413D01*
X0Y2412D02*
X7Y2412D01*
X3613Y2412D02*
X3620Y2412D01*
X0Y2411D02*
X7Y2411D01*
X3613Y2411D02*
X3620Y2411D01*
X0Y2410D02*
X7Y2410D01*
X3613Y2410D02*
X3620Y2410D01*
X0Y2409D02*
X7Y2409D01*
X3613Y2409D02*
X3620Y2409D01*
X0Y2408D02*
X7Y2408D01*
X3613Y2408D02*
X3620Y2408D01*
X0Y2407D02*
X7Y2407D01*
X3613Y2407D02*
X3620Y2407D01*
X0Y2406D02*
X7Y2406D01*
X3613Y2406D02*
X3620Y2406D01*
X0Y2405D02*
X7Y2405D01*
X3613Y2405D02*
X3620Y2405D01*
X0Y2404D02*
X7Y2404D01*
X3613Y2404D02*
X3620Y2404D01*
X0Y2403D02*
X7Y2403D01*
X3613Y2403D02*
X3620Y2403D01*
X0Y2402D02*
X7Y2402D01*
X3613Y2402D02*
X3620Y2402D01*
X0Y2401D02*
X7Y2401D01*
X3613Y2401D02*
X3620Y2401D01*
X0Y2400D02*
X7Y2400D01*
X3613Y2400D02*
X3620Y2400D01*
X0Y2399D02*
X7Y2399D01*
X3613Y2399D02*
X3620Y2399D01*
X0Y2398D02*
X7Y2398D01*
X3613Y2398D02*
X3620Y2398D01*
X0Y2397D02*
X7Y2397D01*
X3613Y2397D02*
X3620Y2397D01*
X0Y2396D02*
X7Y2396D01*
X3613Y2396D02*
X3620Y2396D01*
X0Y2395D02*
X7Y2395D01*
X3613Y2395D02*
X3620Y2395D01*
X0Y2394D02*
X7Y2394D01*
X3613Y2394D02*
X3620Y2394D01*
X0Y2393D02*
X7Y2393D01*
X3613Y2393D02*
X3620Y2393D01*
X0Y2392D02*
X7Y2392D01*
X3613Y2392D02*
X3620Y2392D01*
X0Y2391D02*
X7Y2391D01*
X3613Y2391D02*
X3620Y2391D01*
X0Y2390D02*
X7Y2390D01*
X3613Y2390D02*
X3620Y2390D01*
X0Y2389D02*
X7Y2389D01*
X3613Y2389D02*
X3620Y2389D01*
X0Y2388D02*
X7Y2388D01*
X3613Y2388D02*
X3620Y2388D01*
X0Y2387D02*
X7Y2387D01*
X3613Y2387D02*
X3620Y2387D01*
X0Y2386D02*
X7Y2386D01*
X3613Y2386D02*
X3620Y2386D01*
X0Y2385D02*
X7Y2385D01*
X3613Y2385D02*
X3620Y2385D01*
X0Y2384D02*
X7Y2384D01*
X3613Y2384D02*
X3620Y2384D01*
X0Y2383D02*
X7Y2383D01*
X3613Y2383D02*
X3620Y2383D01*
X0Y2382D02*
X7Y2382D01*
X3613Y2382D02*
X3620Y2382D01*
X0Y2381D02*
X7Y2381D01*
X3613Y2381D02*
X3620Y2381D01*
X0Y2380D02*
X7Y2380D01*
X3613Y2380D02*
X3620Y2380D01*
X0Y2379D02*
X7Y2379D01*
X3613Y2379D02*
X3620Y2379D01*
X0Y2378D02*
X7Y2378D01*
X3613Y2378D02*
X3620Y2378D01*
X0Y2377D02*
X7Y2377D01*
X3613Y2377D02*
X3620Y2377D01*
X0Y2376D02*
X7Y2376D01*
X3613Y2376D02*
X3620Y2376D01*
X0Y2375D02*
X7Y2375D01*
X3613Y2375D02*
X3620Y2375D01*
X0Y2374D02*
X7Y2374D01*
X3613Y2374D02*
X3620Y2374D01*
X0Y2373D02*
X7Y2373D01*
X3613Y2373D02*
X3620Y2373D01*
X0Y2372D02*
X7Y2372D01*
X3613Y2372D02*
X3620Y2372D01*
X0Y2371D02*
X7Y2371D01*
X3613Y2371D02*
X3620Y2371D01*
X0Y2370D02*
X7Y2370D01*
X3613Y2370D02*
X3620Y2370D01*
X0Y2369D02*
X7Y2369D01*
X3613Y2369D02*
X3620Y2369D01*
X0Y2368D02*
X7Y2368D01*
X3613Y2368D02*
X3620Y2368D01*
X0Y2367D02*
X7Y2367D01*
X3613Y2367D02*
X3620Y2367D01*
X0Y2366D02*
X7Y2366D01*
X3613Y2366D02*
X3620Y2366D01*
X0Y2365D02*
X7Y2365D01*
X3613Y2365D02*
X3620Y2365D01*
X0Y2364D02*
X7Y2364D01*
X3613Y2364D02*
X3620Y2364D01*
X0Y2363D02*
X7Y2363D01*
X3613Y2363D02*
X3620Y2363D01*
X0Y2362D02*
X7Y2362D01*
X3613Y2362D02*
X3620Y2362D01*
X0Y2361D02*
X7Y2361D01*
X3613Y2361D02*
X3620Y2361D01*
X0Y2360D02*
X7Y2360D01*
X3613Y2360D02*
X3620Y2360D01*
X0Y2359D02*
X7Y2359D01*
X3613Y2359D02*
X3620Y2359D01*
X0Y2358D02*
X7Y2358D01*
X3613Y2358D02*
X3620Y2358D01*
X0Y2357D02*
X7Y2357D01*
X3613Y2357D02*
X3620Y2357D01*
X0Y2356D02*
X7Y2356D01*
X3613Y2356D02*
X3620Y2356D01*
X0Y2355D02*
X7Y2355D01*
X3613Y2355D02*
X3620Y2355D01*
X0Y2354D02*
X7Y2354D01*
X3613Y2354D02*
X3620Y2354D01*
X0Y2353D02*
X7Y2353D01*
X3613Y2353D02*
X3620Y2353D01*
X0Y2352D02*
X7Y2352D01*
X3613Y2352D02*
X3620Y2352D01*
X0Y2351D02*
X7Y2351D01*
X3613Y2351D02*
X3620Y2351D01*
X0Y2350D02*
X7Y2350D01*
X3613Y2350D02*
X3620Y2350D01*
X0Y2349D02*
X7Y2349D01*
X3613Y2349D02*
X3620Y2349D01*
X0Y2348D02*
X7Y2348D01*
X3613Y2348D02*
X3620Y2348D01*
X0Y2347D02*
X7Y2347D01*
X3613Y2347D02*
X3620Y2347D01*
X0Y2346D02*
X7Y2346D01*
X3613Y2346D02*
X3620Y2346D01*
X0Y2345D02*
X7Y2345D01*
X3613Y2345D02*
X3620Y2345D01*
X0Y2344D02*
X7Y2344D01*
X3613Y2344D02*
X3620Y2344D01*
X0Y2343D02*
X7Y2343D01*
X3613Y2343D02*
X3620Y2343D01*
X0Y2342D02*
X7Y2342D01*
X3613Y2342D02*
X3620Y2342D01*
X0Y2341D02*
X7Y2341D01*
X3613Y2341D02*
X3620Y2341D01*
X0Y2340D02*
X7Y2340D01*
X3613Y2340D02*
X3620Y2340D01*
X0Y2339D02*
X7Y2339D01*
X3613Y2339D02*
X3620Y2339D01*
X0Y2338D02*
X7Y2338D01*
X3613Y2338D02*
X3620Y2338D01*
X0Y2337D02*
X7Y2337D01*
X3613Y2337D02*
X3620Y2337D01*
X0Y2336D02*
X7Y2336D01*
X3613Y2336D02*
X3620Y2336D01*
X0Y2335D02*
X7Y2335D01*
X3613Y2335D02*
X3620Y2335D01*
X0Y2334D02*
X7Y2334D01*
X3613Y2334D02*
X3620Y2334D01*
X0Y2333D02*
X7Y2333D01*
X3613Y2333D02*
X3620Y2333D01*
X0Y2332D02*
X7Y2332D01*
X3613Y2332D02*
X3620Y2332D01*
X0Y2331D02*
X7Y2331D01*
X3613Y2331D02*
X3620Y2331D01*
X0Y2330D02*
X7Y2330D01*
X3613Y2330D02*
X3620Y2330D01*
X0Y2329D02*
X7Y2329D01*
X3613Y2329D02*
X3620Y2329D01*
X0Y2328D02*
X7Y2328D01*
X3613Y2328D02*
X3620Y2328D01*
X0Y2327D02*
X7Y2327D01*
X3613Y2327D02*
X3620Y2327D01*
X0Y2326D02*
X7Y2326D01*
X3613Y2326D02*
X3620Y2326D01*
X0Y2325D02*
X7Y2325D01*
X3613Y2325D02*
X3620Y2325D01*
X0Y2324D02*
X7Y2324D01*
X3613Y2324D02*
X3620Y2324D01*
X0Y2323D02*
X7Y2323D01*
X3613Y2323D02*
X3620Y2323D01*
X0Y2322D02*
X7Y2322D01*
X3613Y2322D02*
X3620Y2322D01*
X0Y2321D02*
X7Y2321D01*
X3613Y2321D02*
X3620Y2321D01*
X0Y2320D02*
X7Y2320D01*
X3613Y2320D02*
X3620Y2320D01*
X0Y2319D02*
X7Y2319D01*
X3613Y2319D02*
X3620Y2319D01*
X0Y2318D02*
X7Y2318D01*
X3613Y2318D02*
X3620Y2318D01*
X0Y2317D02*
X7Y2317D01*
X3613Y2317D02*
X3620Y2317D01*
X0Y2316D02*
X7Y2316D01*
X3613Y2316D02*
X3620Y2316D01*
X0Y2315D02*
X7Y2315D01*
X3613Y2315D02*
X3620Y2315D01*
X0Y2314D02*
X7Y2314D01*
X3613Y2314D02*
X3620Y2314D01*
X0Y2313D02*
X7Y2313D01*
X3613Y2313D02*
X3620Y2313D01*
X0Y2312D02*
X7Y2312D01*
X3613Y2312D02*
X3620Y2312D01*
X0Y2311D02*
X7Y2311D01*
X3613Y2311D02*
X3620Y2311D01*
X0Y2310D02*
X7Y2310D01*
X3613Y2310D02*
X3620Y2310D01*
X0Y2309D02*
X7Y2309D01*
X3613Y2309D02*
X3620Y2309D01*
X0Y2308D02*
X7Y2308D01*
X3613Y2308D02*
X3620Y2308D01*
X0Y2307D02*
X7Y2307D01*
X3613Y2307D02*
X3620Y2307D01*
X0Y2306D02*
X7Y2306D01*
X3613Y2306D02*
X3620Y2306D01*
X0Y2305D02*
X7Y2305D01*
X3613Y2305D02*
X3620Y2305D01*
X0Y2304D02*
X7Y2304D01*
X3613Y2304D02*
X3620Y2304D01*
X0Y2303D02*
X7Y2303D01*
X3613Y2303D02*
X3620Y2303D01*
X0Y2302D02*
X7Y2302D01*
X3613Y2302D02*
X3620Y2302D01*
X0Y2301D02*
X7Y2301D01*
X3613Y2301D02*
X3620Y2301D01*
X0Y2300D02*
X7Y2300D01*
X3613Y2300D02*
X3620Y2300D01*
X0Y2299D02*
X7Y2299D01*
X3613Y2299D02*
X3620Y2299D01*
X0Y2298D02*
X7Y2298D01*
X3613Y2298D02*
X3620Y2298D01*
X0Y2297D02*
X7Y2297D01*
X3613Y2297D02*
X3620Y2297D01*
X0Y2296D02*
X7Y2296D01*
X3613Y2296D02*
X3620Y2296D01*
X0Y2295D02*
X7Y2295D01*
X3613Y2295D02*
X3620Y2295D01*
X0Y2294D02*
X7Y2294D01*
X3613Y2294D02*
X3620Y2294D01*
X0Y2293D02*
X7Y2293D01*
X3613Y2293D02*
X3620Y2293D01*
X0Y2292D02*
X7Y2292D01*
X3613Y2292D02*
X3620Y2292D01*
X0Y2291D02*
X7Y2291D01*
X3613Y2291D02*
X3620Y2291D01*
X0Y2290D02*
X7Y2290D01*
X3613Y2290D02*
X3620Y2290D01*
X0Y2289D02*
X7Y2289D01*
X3613Y2289D02*
X3620Y2289D01*
X0Y2288D02*
X7Y2288D01*
X3613Y2288D02*
X3620Y2288D01*
X0Y2287D02*
X7Y2287D01*
X3613Y2287D02*
X3620Y2287D01*
X0Y2286D02*
X7Y2286D01*
X3613Y2286D02*
X3620Y2286D01*
X0Y2285D02*
X7Y2285D01*
X3613Y2285D02*
X3620Y2285D01*
X0Y2284D02*
X7Y2284D01*
X3613Y2284D02*
X3620Y2284D01*
X0Y2283D02*
X7Y2283D01*
X3613Y2283D02*
X3620Y2283D01*
X0Y2282D02*
X7Y2282D01*
X3613Y2282D02*
X3620Y2282D01*
X0Y2281D02*
X7Y2281D01*
X3613Y2281D02*
X3620Y2281D01*
X0Y2280D02*
X7Y2280D01*
X3613Y2280D02*
X3620Y2280D01*
X0Y2279D02*
X7Y2279D01*
X3613Y2279D02*
X3620Y2279D01*
X0Y2278D02*
X7Y2278D01*
X3613Y2278D02*
X3620Y2278D01*
X0Y2277D02*
X7Y2277D01*
X3613Y2277D02*
X3620Y2277D01*
X0Y2276D02*
X7Y2276D01*
X3613Y2276D02*
X3620Y2276D01*
X0Y2275D02*
X7Y2275D01*
X3613Y2275D02*
X3620Y2275D01*
X0Y2274D02*
X7Y2274D01*
X3613Y2274D02*
X3620Y2274D01*
X0Y2273D02*
X7Y2273D01*
X3613Y2273D02*
X3620Y2273D01*
X0Y2272D02*
X7Y2272D01*
X3613Y2272D02*
X3620Y2272D01*
X0Y2271D02*
X7Y2271D01*
X3613Y2271D02*
X3620Y2271D01*
X0Y2270D02*
X7Y2270D01*
X3613Y2270D02*
X3620Y2270D01*
X0Y2269D02*
X7Y2269D01*
X3613Y2269D02*
X3620Y2269D01*
X0Y2268D02*
X7Y2268D01*
X3613Y2268D02*
X3620Y2268D01*
X0Y2267D02*
X7Y2267D01*
X3613Y2267D02*
X3620Y2267D01*
X0Y2266D02*
X7Y2266D01*
X3613Y2266D02*
X3620Y2266D01*
X0Y2265D02*
X7Y2265D01*
X3613Y2265D02*
X3620Y2265D01*
X0Y2264D02*
X7Y2264D01*
X3613Y2264D02*
X3620Y2264D01*
X0Y2263D02*
X7Y2263D01*
X3613Y2263D02*
X3620Y2263D01*
X0Y2262D02*
X7Y2262D01*
X3613Y2262D02*
X3620Y2262D01*
X0Y2261D02*
X7Y2261D01*
X3613Y2261D02*
X3620Y2261D01*
X0Y2260D02*
X7Y2260D01*
X3613Y2260D02*
X3620Y2260D01*
X0Y2259D02*
X7Y2259D01*
X3613Y2259D02*
X3620Y2259D01*
X0Y2258D02*
X7Y2258D01*
X3613Y2258D02*
X3620Y2258D01*
X0Y2257D02*
X7Y2257D01*
X3613Y2257D02*
X3620Y2257D01*
X0Y2256D02*
X7Y2256D01*
X3613Y2256D02*
X3620Y2256D01*
X0Y2255D02*
X7Y2255D01*
X3613Y2255D02*
X3620Y2255D01*
X0Y2254D02*
X7Y2254D01*
X3613Y2254D02*
X3620Y2254D01*
X0Y2253D02*
X7Y2253D01*
X3613Y2253D02*
X3620Y2253D01*
X0Y2252D02*
X7Y2252D01*
X3613Y2252D02*
X3620Y2252D01*
X0Y2251D02*
X7Y2251D01*
X3613Y2251D02*
X3620Y2251D01*
X0Y2250D02*
X7Y2250D01*
X3613Y2250D02*
X3620Y2250D01*
X0Y2249D02*
X7Y2249D01*
X3613Y2249D02*
X3620Y2249D01*
X0Y2248D02*
X7Y2248D01*
X3613Y2248D02*
X3620Y2248D01*
X0Y2247D02*
X7Y2247D01*
X3613Y2247D02*
X3620Y2247D01*
X0Y2246D02*
X7Y2246D01*
X3613Y2246D02*
X3620Y2246D01*
X0Y2245D02*
X7Y2245D01*
X3613Y2245D02*
X3620Y2245D01*
X0Y2244D02*
X7Y2244D01*
X3613Y2244D02*
X3620Y2244D01*
X0Y2243D02*
X7Y2243D01*
X3613Y2243D02*
X3620Y2243D01*
X0Y2242D02*
X7Y2242D01*
X3613Y2242D02*
X3620Y2242D01*
X0Y2241D02*
X7Y2241D01*
X3613Y2241D02*
X3620Y2241D01*
X0Y2240D02*
X7Y2240D01*
X3613Y2240D02*
X3620Y2240D01*
X0Y2239D02*
X7Y2239D01*
X3613Y2239D02*
X3620Y2239D01*
X0Y2238D02*
X7Y2238D01*
X3613Y2238D02*
X3620Y2238D01*
X0Y2237D02*
X7Y2237D01*
X3613Y2237D02*
X3620Y2237D01*
X0Y2236D02*
X7Y2236D01*
X3613Y2236D02*
X3620Y2236D01*
X0Y2235D02*
X7Y2235D01*
X3613Y2235D02*
X3620Y2235D01*
X0Y2234D02*
X7Y2234D01*
X3613Y2234D02*
X3620Y2234D01*
X0Y2233D02*
X7Y2233D01*
X3613Y2233D02*
X3620Y2233D01*
X0Y2232D02*
X7Y2232D01*
X3613Y2232D02*
X3620Y2232D01*
X0Y2231D02*
X7Y2231D01*
X3613Y2231D02*
X3620Y2231D01*
X0Y2230D02*
X7Y2230D01*
X3613Y2230D02*
X3620Y2230D01*
X0Y2229D02*
X7Y2229D01*
X3613Y2229D02*
X3620Y2229D01*
X0Y2228D02*
X7Y2228D01*
X3613Y2228D02*
X3620Y2228D01*
X0Y2227D02*
X7Y2227D01*
X3613Y2227D02*
X3620Y2227D01*
X0Y2226D02*
X7Y2226D01*
X3613Y2226D02*
X3620Y2226D01*
X0Y2225D02*
X7Y2225D01*
X3613Y2225D02*
X3620Y2225D01*
X0Y2224D02*
X7Y2224D01*
X3613Y2224D02*
X3620Y2224D01*
X0Y2223D02*
X7Y2223D01*
X3613Y2223D02*
X3620Y2223D01*
X0Y2222D02*
X7Y2222D01*
X3613Y2222D02*
X3620Y2222D01*
X0Y2221D02*
X7Y2221D01*
X3613Y2221D02*
X3620Y2221D01*
X0Y2220D02*
X7Y2220D01*
X3613Y2220D02*
X3620Y2220D01*
X0Y2219D02*
X7Y2219D01*
X3613Y2219D02*
X3620Y2219D01*
X0Y2218D02*
X7Y2218D01*
X3613Y2218D02*
X3620Y2218D01*
X0Y2217D02*
X7Y2217D01*
X3613Y2217D02*
X3620Y2217D01*
X0Y2216D02*
X7Y2216D01*
X3613Y2216D02*
X3620Y2216D01*
X0Y2215D02*
X7Y2215D01*
X3613Y2215D02*
X3620Y2215D01*
X0Y2214D02*
X7Y2214D01*
X3613Y2214D02*
X3620Y2214D01*
X0Y2213D02*
X7Y2213D01*
X3613Y2213D02*
X3620Y2213D01*
X0Y2212D02*
X7Y2212D01*
X3613Y2212D02*
X3620Y2212D01*
X0Y2211D02*
X7Y2211D01*
X3613Y2211D02*
X3620Y2211D01*
X0Y2210D02*
X7Y2210D01*
X3613Y2210D02*
X3620Y2210D01*
X0Y2209D02*
X7Y2209D01*
X3613Y2209D02*
X3620Y2209D01*
X0Y2208D02*
X7Y2208D01*
X3613Y2208D02*
X3620Y2208D01*
X0Y2207D02*
X7Y2207D01*
X3613Y2207D02*
X3620Y2207D01*
X0Y2206D02*
X7Y2206D01*
X3613Y2206D02*
X3620Y2206D01*
X0Y2205D02*
X7Y2205D01*
X3613Y2205D02*
X3620Y2205D01*
X0Y2204D02*
X7Y2204D01*
X3613Y2204D02*
X3620Y2204D01*
X0Y2203D02*
X7Y2203D01*
X3613Y2203D02*
X3620Y2203D01*
X0Y2202D02*
X7Y2202D01*
X3613Y2202D02*
X3620Y2202D01*
X0Y2201D02*
X7Y2201D01*
X3613Y2201D02*
X3620Y2201D01*
X0Y2200D02*
X7Y2200D01*
X3613Y2200D02*
X3620Y2200D01*
X0Y2199D02*
X7Y2199D01*
X3613Y2199D02*
X3620Y2199D01*
X0Y2198D02*
X7Y2198D01*
X3613Y2198D02*
X3620Y2198D01*
X0Y2197D02*
X7Y2197D01*
X3613Y2197D02*
X3620Y2197D01*
X0Y2196D02*
X7Y2196D01*
X3613Y2196D02*
X3620Y2196D01*
X0Y2195D02*
X7Y2195D01*
X3613Y2195D02*
X3620Y2195D01*
X0Y2194D02*
X7Y2194D01*
X3613Y2194D02*
X3620Y2194D01*
X0Y2193D02*
X7Y2193D01*
X3613Y2193D02*
X3620Y2193D01*
X0Y2192D02*
X7Y2192D01*
X3613Y2192D02*
X3620Y2192D01*
X0Y2191D02*
X7Y2191D01*
X3613Y2191D02*
X3620Y2191D01*
X0Y2190D02*
X7Y2190D01*
X3613Y2190D02*
X3620Y2190D01*
X0Y2189D02*
X7Y2189D01*
X3613Y2189D02*
X3620Y2189D01*
X0Y2188D02*
X7Y2188D01*
X3613Y2188D02*
X3620Y2188D01*
X0Y2187D02*
X7Y2187D01*
X3613Y2187D02*
X3620Y2187D01*
X0Y2186D02*
X7Y2186D01*
X3613Y2186D02*
X3620Y2186D01*
X0Y2185D02*
X7Y2185D01*
X3613Y2185D02*
X3620Y2185D01*
X0Y2184D02*
X7Y2184D01*
X3613Y2184D02*
X3620Y2184D01*
X0Y2183D02*
X7Y2183D01*
X3613Y2183D02*
X3620Y2183D01*
X0Y2182D02*
X7Y2182D01*
X3613Y2182D02*
X3620Y2182D01*
X0Y2181D02*
X7Y2181D01*
X3613Y2181D02*
X3620Y2181D01*
X0Y2180D02*
X7Y2180D01*
X3613Y2180D02*
X3620Y2180D01*
X0Y2179D02*
X7Y2179D01*
X3613Y2179D02*
X3620Y2179D01*
X0Y2178D02*
X7Y2178D01*
X3613Y2178D02*
X3620Y2178D01*
X0Y2177D02*
X7Y2177D01*
X3613Y2177D02*
X3620Y2177D01*
X0Y2176D02*
X7Y2176D01*
X3613Y2176D02*
X3620Y2176D01*
X0Y2175D02*
X7Y2175D01*
X3613Y2175D02*
X3620Y2175D01*
X0Y2174D02*
X7Y2174D01*
X3613Y2174D02*
X3620Y2174D01*
X0Y2173D02*
X7Y2173D01*
X3613Y2173D02*
X3620Y2173D01*
X0Y2172D02*
X7Y2172D01*
X3613Y2172D02*
X3620Y2172D01*
X0Y2171D02*
X7Y2171D01*
X3613Y2171D02*
X3620Y2171D01*
X0Y2170D02*
X7Y2170D01*
X3613Y2170D02*
X3620Y2170D01*
X0Y2169D02*
X7Y2169D01*
X3613Y2169D02*
X3620Y2169D01*
X0Y2168D02*
X7Y2168D01*
X3613Y2168D02*
X3620Y2168D01*
X0Y2167D02*
X7Y2167D01*
X3613Y2167D02*
X3620Y2167D01*
X0Y2166D02*
X7Y2166D01*
X3613Y2166D02*
X3620Y2166D01*
X0Y2165D02*
X7Y2165D01*
X3613Y2165D02*
X3620Y2165D01*
X0Y2164D02*
X7Y2164D01*
X3613Y2164D02*
X3620Y2164D01*
X0Y2163D02*
X7Y2163D01*
X3613Y2163D02*
X3620Y2163D01*
X0Y2162D02*
X7Y2162D01*
X3613Y2162D02*
X3620Y2162D01*
X0Y2161D02*
X7Y2161D01*
X3613Y2161D02*
X3620Y2161D01*
X0Y2160D02*
X7Y2160D01*
X3613Y2160D02*
X3620Y2160D01*
X0Y2159D02*
X7Y2159D01*
X3613Y2159D02*
X3620Y2159D01*
X0Y2158D02*
X7Y2158D01*
X3613Y2158D02*
X3620Y2158D01*
X0Y2157D02*
X7Y2157D01*
X3613Y2157D02*
X3620Y2157D01*
X0Y2156D02*
X7Y2156D01*
X3613Y2156D02*
X3620Y2156D01*
X0Y2155D02*
X7Y2155D01*
X3613Y2155D02*
X3620Y2155D01*
X0Y2154D02*
X7Y2154D01*
X3613Y2154D02*
X3620Y2154D01*
X0Y2153D02*
X7Y2153D01*
X3613Y2153D02*
X3620Y2153D01*
X0Y2152D02*
X7Y2152D01*
X3613Y2152D02*
X3620Y2152D01*
X0Y2151D02*
X7Y2151D01*
X3613Y2151D02*
X3620Y2151D01*
X0Y2150D02*
X7Y2150D01*
X3613Y2150D02*
X3620Y2150D01*
X0Y2149D02*
X7Y2149D01*
X3613Y2149D02*
X3620Y2149D01*
X0Y2148D02*
X7Y2148D01*
X3613Y2148D02*
X3620Y2148D01*
X0Y2147D02*
X7Y2147D01*
X3613Y2147D02*
X3620Y2147D01*
X0Y2146D02*
X7Y2146D01*
X3613Y2146D02*
X3620Y2146D01*
X0Y2145D02*
X7Y2145D01*
X3613Y2145D02*
X3620Y2145D01*
X0Y2144D02*
X7Y2144D01*
X3613Y2144D02*
X3620Y2144D01*
X0Y2143D02*
X7Y2143D01*
X3613Y2143D02*
X3620Y2143D01*
X0Y2142D02*
X7Y2142D01*
X3613Y2142D02*
X3620Y2142D01*
X0Y2141D02*
X7Y2141D01*
X3613Y2141D02*
X3620Y2141D01*
X0Y2140D02*
X7Y2140D01*
X3613Y2140D02*
X3620Y2140D01*
X0Y2139D02*
X7Y2139D01*
X3613Y2139D02*
X3620Y2139D01*
X0Y2138D02*
X7Y2138D01*
X3613Y2138D02*
X3620Y2138D01*
X0Y2137D02*
X7Y2137D01*
X3613Y2137D02*
X3620Y2137D01*
X0Y2136D02*
X7Y2136D01*
X3613Y2136D02*
X3620Y2136D01*
X0Y2135D02*
X7Y2135D01*
X3613Y2135D02*
X3620Y2135D01*
X0Y2134D02*
X7Y2134D01*
X3613Y2134D02*
X3620Y2134D01*
X0Y2133D02*
X7Y2133D01*
X3613Y2133D02*
X3620Y2133D01*
X0Y2132D02*
X7Y2132D01*
X3613Y2132D02*
X3620Y2132D01*
X0Y2131D02*
X7Y2131D01*
X3613Y2131D02*
X3620Y2131D01*
X0Y2130D02*
X7Y2130D01*
X3613Y2130D02*
X3620Y2130D01*
X0Y2129D02*
X7Y2129D01*
X3613Y2129D02*
X3620Y2129D01*
X0Y2128D02*
X7Y2128D01*
X3613Y2128D02*
X3620Y2128D01*
X0Y2127D02*
X7Y2127D01*
X3613Y2127D02*
X3620Y2127D01*
X0Y2126D02*
X7Y2126D01*
X3613Y2126D02*
X3620Y2126D01*
X0Y2125D02*
X7Y2125D01*
X3613Y2125D02*
X3620Y2125D01*
X0Y2124D02*
X7Y2124D01*
X3613Y2124D02*
X3620Y2124D01*
X0Y2123D02*
X7Y2123D01*
X3613Y2123D02*
X3620Y2123D01*
X0Y2122D02*
X7Y2122D01*
X3613Y2122D02*
X3620Y2122D01*
X0Y2121D02*
X7Y2121D01*
X3613Y2121D02*
X3620Y2121D01*
X0Y2120D02*
X7Y2120D01*
X3613Y2120D02*
X3620Y2120D01*
X0Y2119D02*
X7Y2119D01*
X3613Y2119D02*
X3620Y2119D01*
X0Y2118D02*
X7Y2118D01*
X3613Y2118D02*
X3620Y2118D01*
X0Y2117D02*
X7Y2117D01*
X3613Y2117D02*
X3620Y2117D01*
X0Y2116D02*
X7Y2116D01*
X3613Y2116D02*
X3620Y2116D01*
X0Y2115D02*
X7Y2115D01*
X3613Y2115D02*
X3620Y2115D01*
X0Y2114D02*
X7Y2114D01*
X3613Y2114D02*
X3620Y2114D01*
X0Y2113D02*
X7Y2113D01*
X3613Y2113D02*
X3620Y2113D01*
X0Y2112D02*
X7Y2112D01*
X3613Y2112D02*
X3620Y2112D01*
X0Y2111D02*
X7Y2111D01*
X3613Y2111D02*
X3620Y2111D01*
X0Y2110D02*
X7Y2110D01*
X3613Y2110D02*
X3620Y2110D01*
X0Y2109D02*
X7Y2109D01*
X3613Y2109D02*
X3620Y2109D01*
X0Y2108D02*
X7Y2108D01*
X3613Y2108D02*
X3620Y2108D01*
X0Y2107D02*
X7Y2107D01*
X3613Y2107D02*
X3620Y2107D01*
X0Y2106D02*
X7Y2106D01*
X3613Y2106D02*
X3620Y2106D01*
X0Y2105D02*
X7Y2105D01*
X3613Y2105D02*
X3620Y2105D01*
X0Y2104D02*
X7Y2104D01*
X3613Y2104D02*
X3620Y2104D01*
X0Y2103D02*
X7Y2103D01*
X3613Y2103D02*
X3620Y2103D01*
X0Y2102D02*
X7Y2102D01*
X3613Y2102D02*
X3620Y2102D01*
X0Y2101D02*
X7Y2101D01*
X3613Y2101D02*
X3620Y2101D01*
X0Y2100D02*
X7Y2100D01*
X3613Y2100D02*
X3620Y2100D01*
X0Y2099D02*
X7Y2099D01*
X3613Y2099D02*
X3620Y2099D01*
X0Y2098D02*
X7Y2098D01*
X3613Y2098D02*
X3620Y2098D01*
X0Y2097D02*
X7Y2097D01*
X3613Y2097D02*
X3620Y2097D01*
X0Y2096D02*
X7Y2096D01*
X3613Y2096D02*
X3620Y2096D01*
X0Y2095D02*
X7Y2095D01*
X3613Y2095D02*
X3620Y2095D01*
X0Y2094D02*
X7Y2094D01*
X3613Y2094D02*
X3620Y2094D01*
X0Y2093D02*
X7Y2093D01*
X3613Y2093D02*
X3620Y2093D01*
X0Y2092D02*
X7Y2092D01*
X3613Y2092D02*
X3620Y2092D01*
X0Y2091D02*
X7Y2091D01*
X3613Y2091D02*
X3620Y2091D01*
X0Y2090D02*
X7Y2090D01*
X3613Y2090D02*
X3620Y2090D01*
X0Y2089D02*
X7Y2089D01*
X3613Y2089D02*
X3620Y2089D01*
X0Y2088D02*
X7Y2088D01*
X3613Y2088D02*
X3620Y2088D01*
X0Y2087D02*
X7Y2087D01*
X3613Y2087D02*
X3620Y2087D01*
X0Y2086D02*
X7Y2086D01*
X3613Y2086D02*
X3620Y2086D01*
X0Y2085D02*
X7Y2085D01*
X3613Y2085D02*
X3620Y2085D01*
X0Y2084D02*
X7Y2084D01*
X3613Y2084D02*
X3620Y2084D01*
X0Y2083D02*
X7Y2083D01*
X3613Y2083D02*
X3620Y2083D01*
X0Y2082D02*
X7Y2082D01*
X3613Y2082D02*
X3620Y2082D01*
X0Y2081D02*
X7Y2081D01*
X3613Y2081D02*
X3620Y2081D01*
X0Y2080D02*
X7Y2080D01*
X3613Y2080D02*
X3620Y2080D01*
X0Y2079D02*
X7Y2079D01*
X3613Y2079D02*
X3620Y2079D01*
X0Y2078D02*
X7Y2078D01*
X3613Y2078D02*
X3620Y2078D01*
X0Y2077D02*
X7Y2077D01*
X3613Y2077D02*
X3620Y2077D01*
X0Y2076D02*
X7Y2076D01*
X3613Y2076D02*
X3620Y2076D01*
X0Y2075D02*
X7Y2075D01*
X3613Y2075D02*
X3620Y2075D01*
X0Y2074D02*
X7Y2074D01*
X3613Y2074D02*
X3620Y2074D01*
X0Y2073D02*
X7Y2073D01*
X3613Y2073D02*
X3620Y2073D01*
X0Y2072D02*
X7Y2072D01*
X3613Y2072D02*
X3620Y2072D01*
X0Y2071D02*
X7Y2071D01*
X3613Y2071D02*
X3620Y2071D01*
X0Y2070D02*
X7Y2070D01*
X3613Y2070D02*
X3620Y2070D01*
X0Y2069D02*
X7Y2069D01*
X3613Y2069D02*
X3620Y2069D01*
X0Y2068D02*
X7Y2068D01*
X3613Y2068D02*
X3620Y2068D01*
X0Y2067D02*
X7Y2067D01*
X3613Y2067D02*
X3620Y2067D01*
X0Y2066D02*
X7Y2066D01*
X3613Y2066D02*
X3620Y2066D01*
X0Y2065D02*
X7Y2065D01*
X3613Y2065D02*
X3620Y2065D01*
X0Y2064D02*
X7Y2064D01*
X3613Y2064D02*
X3620Y2064D01*
X0Y2063D02*
X7Y2063D01*
X3613Y2063D02*
X3620Y2063D01*
X0Y2062D02*
X7Y2062D01*
X3613Y2062D02*
X3620Y2062D01*
X0Y2061D02*
X7Y2061D01*
X3613Y2061D02*
X3620Y2061D01*
X0Y2060D02*
X7Y2060D01*
X3613Y2060D02*
X3620Y2060D01*
X0Y2059D02*
X7Y2059D01*
X3613Y2059D02*
X3620Y2059D01*
X0Y2058D02*
X7Y2058D01*
X3613Y2058D02*
X3620Y2058D01*
X0Y2057D02*
X7Y2057D01*
X3613Y2057D02*
X3620Y2057D01*
X0Y2056D02*
X7Y2056D01*
X3613Y2056D02*
X3620Y2056D01*
X0Y2055D02*
X7Y2055D01*
X3613Y2055D02*
X3620Y2055D01*
X0Y2054D02*
X7Y2054D01*
X3613Y2054D02*
X3620Y2054D01*
X0Y2053D02*
X7Y2053D01*
X3613Y2053D02*
X3620Y2053D01*
X0Y2052D02*
X7Y2052D01*
X3613Y2052D02*
X3620Y2052D01*
X0Y2051D02*
X7Y2051D01*
X3613Y2051D02*
X3620Y2051D01*
X0Y2050D02*
X7Y2050D01*
X3613Y2050D02*
X3620Y2050D01*
X0Y2049D02*
X7Y2049D01*
X3613Y2049D02*
X3620Y2049D01*
X0Y2048D02*
X7Y2048D01*
X3613Y2048D02*
X3620Y2048D01*
X0Y2047D02*
X7Y2047D01*
X3613Y2047D02*
X3620Y2047D01*
X0Y2046D02*
X7Y2046D01*
X3613Y2046D02*
X3620Y2046D01*
X0Y2045D02*
X7Y2045D01*
X3613Y2045D02*
X3620Y2045D01*
X0Y2044D02*
X7Y2044D01*
X3613Y2044D02*
X3620Y2044D01*
X0Y2043D02*
X7Y2043D01*
X3613Y2043D02*
X3620Y2043D01*
X0Y2042D02*
X7Y2042D01*
X3613Y2042D02*
X3620Y2042D01*
X0Y2041D02*
X7Y2041D01*
X3613Y2041D02*
X3620Y2041D01*
X0Y2040D02*
X7Y2040D01*
X3613Y2040D02*
X3620Y2040D01*
X0Y2039D02*
X7Y2039D01*
X3613Y2039D02*
X3620Y2039D01*
X0Y2038D02*
X7Y2038D01*
X3613Y2038D02*
X3620Y2038D01*
X0Y2037D02*
X7Y2037D01*
X3613Y2037D02*
X3620Y2037D01*
X0Y2036D02*
X7Y2036D01*
X3613Y2036D02*
X3620Y2036D01*
X0Y2035D02*
X7Y2035D01*
X3613Y2035D02*
X3620Y2035D01*
X0Y2034D02*
X7Y2034D01*
X3613Y2034D02*
X3620Y2034D01*
X0Y2033D02*
X7Y2033D01*
X3613Y2033D02*
X3620Y2033D01*
X0Y2032D02*
X7Y2032D01*
X3613Y2032D02*
X3620Y2032D01*
X0Y2031D02*
X7Y2031D01*
X3613Y2031D02*
X3620Y2031D01*
X0Y2030D02*
X7Y2030D01*
X3613Y2030D02*
X3620Y2030D01*
X0Y2029D02*
X7Y2029D01*
X3613Y2029D02*
X3620Y2029D01*
X0Y2028D02*
X7Y2028D01*
X3613Y2028D02*
X3620Y2028D01*
X0Y2027D02*
X7Y2027D01*
X3613Y2027D02*
X3620Y2027D01*
X0Y2026D02*
X7Y2026D01*
X3613Y2026D02*
X3620Y2026D01*
X0Y2025D02*
X7Y2025D01*
X3613Y2025D02*
X3620Y2025D01*
X0Y2024D02*
X7Y2024D01*
X3613Y2024D02*
X3620Y2024D01*
X0Y2023D02*
X7Y2023D01*
X3613Y2023D02*
X3620Y2023D01*
X0Y2022D02*
X7Y2022D01*
X3613Y2022D02*
X3620Y2022D01*
X0Y2021D02*
X7Y2021D01*
X3613Y2021D02*
X3620Y2021D01*
X0Y2020D02*
X7Y2020D01*
X3613Y2020D02*
X3620Y2020D01*
X0Y2019D02*
X7Y2019D01*
X3613Y2019D02*
X3620Y2019D01*
X0Y2018D02*
X7Y2018D01*
X3613Y2018D02*
X3620Y2018D01*
X0Y2017D02*
X7Y2017D01*
X3613Y2017D02*
X3620Y2017D01*
X0Y2016D02*
X7Y2016D01*
X3613Y2016D02*
X3620Y2016D01*
X0Y2015D02*
X7Y2015D01*
X3613Y2015D02*
X3620Y2015D01*
X0Y2014D02*
X7Y2014D01*
X3613Y2014D02*
X3620Y2014D01*
X0Y2013D02*
X7Y2013D01*
X3613Y2013D02*
X3620Y2013D01*
X0Y2012D02*
X7Y2012D01*
X3613Y2012D02*
X3620Y2012D01*
X0Y2011D02*
X7Y2011D01*
X3613Y2011D02*
X3620Y2011D01*
X0Y2010D02*
X7Y2010D01*
X3613Y2010D02*
X3620Y2010D01*
X0Y2009D02*
X7Y2009D01*
X3613Y2009D02*
X3620Y2009D01*
X0Y2008D02*
X7Y2008D01*
X3613Y2008D02*
X3620Y2008D01*
X0Y2007D02*
X7Y2007D01*
X3613Y2007D02*
X3620Y2007D01*
X0Y2006D02*
X7Y2006D01*
X3613Y2006D02*
X3620Y2006D01*
X0Y2005D02*
X7Y2005D01*
X3613Y2005D02*
X3620Y2005D01*
X0Y2004D02*
X7Y2004D01*
X3613Y2004D02*
X3620Y2004D01*
X0Y2003D02*
X7Y2003D01*
X3613Y2003D02*
X3620Y2003D01*
X0Y2002D02*
X7Y2002D01*
X3613Y2002D02*
X3620Y2002D01*
X0Y2001D02*
X7Y2001D01*
X3613Y2001D02*
X3620Y2001D01*
X0Y2000D02*
X7Y2000D01*
X3613Y2000D02*
X3620Y2000D01*
X0Y1999D02*
X7Y1999D01*
X3613Y1999D02*
X3620Y1999D01*
X0Y1998D02*
X7Y1998D01*
X3613Y1998D02*
X3620Y1998D01*
X0Y1997D02*
X7Y1997D01*
X3613Y1997D02*
X3620Y1997D01*
X0Y1996D02*
X7Y1996D01*
X3613Y1996D02*
X3620Y1996D01*
X0Y1995D02*
X7Y1995D01*
X3613Y1995D02*
X3620Y1995D01*
X0Y1994D02*
X7Y1994D01*
X3613Y1994D02*
X3620Y1994D01*
X0Y1993D02*
X7Y1993D01*
X3613Y1993D02*
X3620Y1993D01*
X0Y1992D02*
X7Y1992D01*
X3613Y1992D02*
X3620Y1992D01*
X0Y1991D02*
X7Y1991D01*
X3613Y1991D02*
X3620Y1991D01*
X0Y1990D02*
X7Y1990D01*
X3613Y1990D02*
X3620Y1990D01*
X0Y1989D02*
X7Y1989D01*
X3613Y1989D02*
X3620Y1989D01*
X0Y1988D02*
X7Y1988D01*
X3613Y1988D02*
X3620Y1988D01*
X0Y1987D02*
X7Y1987D01*
X3613Y1987D02*
X3620Y1987D01*
X0Y1986D02*
X7Y1986D01*
X3613Y1986D02*
X3620Y1986D01*
X0Y1985D02*
X7Y1985D01*
X3613Y1985D02*
X3620Y1985D01*
X0Y1984D02*
X7Y1984D01*
X3613Y1984D02*
X3620Y1984D01*
X0Y1983D02*
X7Y1983D01*
X3613Y1983D02*
X3620Y1983D01*
X0Y1982D02*
X7Y1982D01*
X3613Y1982D02*
X3620Y1982D01*
X0Y1981D02*
X7Y1981D01*
X3613Y1981D02*
X3620Y1981D01*
X0Y1980D02*
X7Y1980D01*
X3613Y1980D02*
X3620Y1980D01*
X0Y1979D02*
X7Y1979D01*
X3613Y1979D02*
X3620Y1979D01*
X0Y1978D02*
X7Y1978D01*
X3613Y1978D02*
X3620Y1978D01*
X0Y1977D02*
X7Y1977D01*
X3613Y1977D02*
X3620Y1977D01*
X0Y1976D02*
X7Y1976D01*
X3613Y1976D02*
X3620Y1976D01*
X0Y1975D02*
X7Y1975D01*
X3613Y1975D02*
X3620Y1975D01*
X0Y1974D02*
X7Y1974D01*
X3613Y1974D02*
X3620Y1974D01*
X0Y1973D02*
X7Y1973D01*
X3613Y1973D02*
X3620Y1973D01*
X0Y1972D02*
X7Y1972D01*
X3613Y1972D02*
X3620Y1972D01*
X0Y1971D02*
X7Y1971D01*
X3613Y1971D02*
X3620Y1971D01*
X0Y1970D02*
X7Y1970D01*
X3613Y1970D02*
X3620Y1970D01*
X0Y1969D02*
X7Y1969D01*
X3613Y1969D02*
X3620Y1969D01*
X0Y1968D02*
X7Y1968D01*
X3613Y1968D02*
X3620Y1968D01*
X0Y1967D02*
X7Y1967D01*
X3613Y1967D02*
X3620Y1967D01*
X0Y1966D02*
X7Y1966D01*
X3613Y1966D02*
X3620Y1966D01*
X0Y1965D02*
X7Y1965D01*
X3613Y1965D02*
X3620Y1965D01*
X0Y1964D02*
X7Y1964D01*
X3613Y1964D02*
X3620Y1964D01*
X0Y1963D02*
X7Y1963D01*
X3613Y1963D02*
X3620Y1963D01*
X0Y1962D02*
X7Y1962D01*
X3613Y1962D02*
X3620Y1962D01*
X0Y1961D02*
X7Y1961D01*
X3613Y1961D02*
X3620Y1961D01*
X0Y1960D02*
X7Y1960D01*
X3613Y1960D02*
X3620Y1960D01*
X0Y1959D02*
X7Y1959D01*
X3613Y1959D02*
X3620Y1959D01*
X0Y1958D02*
X7Y1958D01*
X3613Y1958D02*
X3620Y1958D01*
X0Y1957D02*
X7Y1957D01*
X3613Y1957D02*
X3620Y1957D01*
X0Y1956D02*
X7Y1956D01*
X3613Y1956D02*
X3620Y1956D01*
X0Y1955D02*
X7Y1955D01*
X3613Y1955D02*
X3620Y1955D01*
X0Y1954D02*
X7Y1954D01*
X3613Y1954D02*
X3620Y1954D01*
X0Y1953D02*
X7Y1953D01*
X3613Y1953D02*
X3620Y1953D01*
X0Y1952D02*
X7Y1952D01*
X3613Y1952D02*
X3620Y1952D01*
X0Y1951D02*
X7Y1951D01*
X3613Y1951D02*
X3620Y1951D01*
X0Y1950D02*
X7Y1950D01*
X3613Y1950D02*
X3620Y1950D01*
X0Y1949D02*
X7Y1949D01*
X3613Y1949D02*
X3620Y1949D01*
X0Y1948D02*
X7Y1948D01*
X3613Y1948D02*
X3620Y1948D01*
X0Y1947D02*
X7Y1947D01*
X3613Y1947D02*
X3620Y1947D01*
X0Y1946D02*
X7Y1946D01*
X3613Y1946D02*
X3620Y1946D01*
X0Y1945D02*
X7Y1945D01*
X3613Y1945D02*
X3620Y1945D01*
X0Y1944D02*
X7Y1944D01*
X3613Y1944D02*
X3620Y1944D01*
X0Y1943D02*
X7Y1943D01*
X3613Y1943D02*
X3620Y1943D01*
X0Y1942D02*
X7Y1942D01*
X3613Y1942D02*
X3620Y1942D01*
X0Y1941D02*
X7Y1941D01*
X3613Y1941D02*
X3620Y1941D01*
X0Y1940D02*
X7Y1940D01*
X3613Y1940D02*
X3620Y1940D01*
X0Y1939D02*
X7Y1939D01*
X3613Y1939D02*
X3620Y1939D01*
X0Y1938D02*
X7Y1938D01*
X3613Y1938D02*
X3620Y1938D01*
X0Y1937D02*
X7Y1937D01*
X3613Y1937D02*
X3620Y1937D01*
X0Y1936D02*
X7Y1936D01*
X3613Y1936D02*
X3620Y1936D01*
X0Y1935D02*
X7Y1935D01*
X3613Y1935D02*
X3620Y1935D01*
X0Y1934D02*
X7Y1934D01*
X3613Y1934D02*
X3620Y1934D01*
X0Y1933D02*
X7Y1933D01*
X3613Y1933D02*
X3620Y1933D01*
X0Y1932D02*
X7Y1932D01*
X3613Y1932D02*
X3620Y1932D01*
X0Y1931D02*
X7Y1931D01*
X3613Y1931D02*
X3620Y1931D01*
X0Y1930D02*
X7Y1930D01*
X3613Y1930D02*
X3620Y1930D01*
X0Y1929D02*
X7Y1929D01*
X3613Y1929D02*
X3620Y1929D01*
X0Y1928D02*
X7Y1928D01*
X3613Y1928D02*
X3620Y1928D01*
X0Y1927D02*
X7Y1927D01*
X3613Y1927D02*
X3620Y1927D01*
X0Y1926D02*
X7Y1926D01*
X3613Y1926D02*
X3620Y1926D01*
X0Y1925D02*
X7Y1925D01*
X3613Y1925D02*
X3620Y1925D01*
X0Y1924D02*
X7Y1924D01*
X3613Y1924D02*
X3620Y1924D01*
X0Y1923D02*
X7Y1923D01*
X3613Y1923D02*
X3620Y1923D01*
X0Y1922D02*
X7Y1922D01*
X3613Y1922D02*
X3620Y1922D01*
X0Y1921D02*
X7Y1921D01*
X3613Y1921D02*
X3620Y1921D01*
X0Y1920D02*
X7Y1920D01*
X3613Y1920D02*
X3620Y1920D01*
X0Y1919D02*
X7Y1919D01*
X3613Y1919D02*
X3620Y1919D01*
X0Y1918D02*
X7Y1918D01*
X3613Y1918D02*
X3620Y1918D01*
X0Y1917D02*
X7Y1917D01*
X3613Y1917D02*
X3620Y1917D01*
X0Y1916D02*
X7Y1916D01*
X3613Y1916D02*
X3620Y1916D01*
X0Y1915D02*
X7Y1915D01*
X3613Y1915D02*
X3620Y1915D01*
X0Y1914D02*
X7Y1914D01*
X3613Y1914D02*
X3620Y1914D01*
X0Y1913D02*
X7Y1913D01*
X3613Y1913D02*
X3620Y1913D01*
X0Y1912D02*
X7Y1912D01*
X3613Y1912D02*
X3620Y1912D01*
X0Y1911D02*
X7Y1911D01*
X3613Y1911D02*
X3620Y1911D01*
X0Y1910D02*
X7Y1910D01*
X3613Y1910D02*
X3620Y1910D01*
X0Y1909D02*
X7Y1909D01*
X3613Y1909D02*
X3620Y1909D01*
X0Y1908D02*
X7Y1908D01*
X3613Y1908D02*
X3620Y1908D01*
X0Y1907D02*
X7Y1907D01*
X3613Y1907D02*
X3620Y1907D01*
X0Y1906D02*
X7Y1906D01*
X3613Y1906D02*
X3620Y1906D01*
X0Y1905D02*
X7Y1905D01*
X3613Y1905D02*
X3620Y1905D01*
X0Y1904D02*
X7Y1904D01*
X3613Y1904D02*
X3620Y1904D01*
X0Y1903D02*
X7Y1903D01*
X3613Y1903D02*
X3620Y1903D01*
X0Y1902D02*
X7Y1902D01*
X3613Y1902D02*
X3620Y1902D01*
X0Y1901D02*
X7Y1901D01*
X3613Y1901D02*
X3620Y1901D01*
X0Y1900D02*
X7Y1900D01*
X3613Y1900D02*
X3620Y1900D01*
X0Y1899D02*
X7Y1899D01*
X3613Y1899D02*
X3620Y1899D01*
X0Y1898D02*
X7Y1898D01*
X3613Y1898D02*
X3620Y1898D01*
X0Y1897D02*
X7Y1897D01*
X3613Y1897D02*
X3620Y1897D01*
X0Y1896D02*
X7Y1896D01*
X3613Y1896D02*
X3620Y1896D01*
X0Y1895D02*
X7Y1895D01*
X3613Y1895D02*
X3620Y1895D01*
X0Y1894D02*
X7Y1894D01*
X3613Y1894D02*
X3620Y1894D01*
X0Y1893D02*
X7Y1893D01*
X3613Y1893D02*
X3620Y1893D01*
X0Y1892D02*
X7Y1892D01*
X3613Y1892D02*
X3620Y1892D01*
X0Y1891D02*
X7Y1891D01*
X3613Y1891D02*
X3620Y1891D01*
X0Y1890D02*
X7Y1890D01*
X3613Y1890D02*
X3620Y1890D01*
X0Y1889D02*
X7Y1889D01*
X3613Y1889D02*
X3620Y1889D01*
X0Y1888D02*
X7Y1888D01*
X3613Y1888D02*
X3620Y1888D01*
X0Y1887D02*
X7Y1887D01*
X3613Y1887D02*
X3620Y1887D01*
X0Y1886D02*
X7Y1886D01*
X3613Y1886D02*
X3620Y1886D01*
X0Y1885D02*
X7Y1885D01*
X3613Y1885D02*
X3620Y1885D01*
X0Y1884D02*
X7Y1884D01*
X3613Y1884D02*
X3620Y1884D01*
X0Y1883D02*
X7Y1883D01*
X3613Y1883D02*
X3620Y1883D01*
X0Y1882D02*
X7Y1882D01*
X3613Y1882D02*
X3620Y1882D01*
X0Y1881D02*
X7Y1881D01*
X3613Y1881D02*
X3620Y1881D01*
X0Y1880D02*
X7Y1880D01*
X3613Y1880D02*
X3620Y1880D01*
X0Y1879D02*
X7Y1879D01*
X3613Y1879D02*
X3620Y1879D01*
X0Y1878D02*
X7Y1878D01*
X3613Y1878D02*
X3620Y1878D01*
X0Y1877D02*
X7Y1877D01*
X3613Y1877D02*
X3620Y1877D01*
X0Y1876D02*
X7Y1876D01*
X3613Y1876D02*
X3620Y1876D01*
X0Y1875D02*
X7Y1875D01*
X3613Y1875D02*
X3620Y1875D01*
X0Y1874D02*
X7Y1874D01*
X3613Y1874D02*
X3620Y1874D01*
X0Y1873D02*
X7Y1873D01*
X3613Y1873D02*
X3620Y1873D01*
X0Y1872D02*
X7Y1872D01*
X3613Y1872D02*
X3620Y1872D01*
X0Y1871D02*
X7Y1871D01*
X3613Y1871D02*
X3620Y1871D01*
X0Y1870D02*
X7Y1870D01*
X3613Y1870D02*
X3620Y1870D01*
X0Y1869D02*
X7Y1869D01*
X3613Y1869D02*
X3620Y1869D01*
X0Y1868D02*
X7Y1868D01*
X3613Y1868D02*
X3620Y1868D01*
X0Y1867D02*
X7Y1867D01*
X3613Y1867D02*
X3620Y1867D01*
X0Y1866D02*
X7Y1866D01*
X3613Y1866D02*
X3620Y1866D01*
X0Y1865D02*
X7Y1865D01*
X3613Y1865D02*
X3620Y1865D01*
X0Y1864D02*
X7Y1864D01*
X3613Y1864D02*
X3620Y1864D01*
X0Y1863D02*
X7Y1863D01*
X3613Y1863D02*
X3620Y1863D01*
X0Y1862D02*
X7Y1862D01*
X3613Y1862D02*
X3620Y1862D01*
X0Y1861D02*
X7Y1861D01*
X3613Y1861D02*
X3620Y1861D01*
X0Y1860D02*
X7Y1860D01*
X3613Y1860D02*
X3620Y1860D01*
X0Y1859D02*
X7Y1859D01*
X3613Y1859D02*
X3620Y1859D01*
X0Y1858D02*
X7Y1858D01*
X3613Y1858D02*
X3620Y1858D01*
X0Y1857D02*
X7Y1857D01*
X3613Y1857D02*
X3620Y1857D01*
X0Y1856D02*
X7Y1856D01*
X3613Y1856D02*
X3620Y1856D01*
X0Y1855D02*
X7Y1855D01*
X3613Y1855D02*
X3620Y1855D01*
X0Y1854D02*
X7Y1854D01*
X3613Y1854D02*
X3620Y1854D01*
X0Y1853D02*
X7Y1853D01*
X3613Y1853D02*
X3620Y1853D01*
X0Y1852D02*
X7Y1852D01*
X3613Y1852D02*
X3620Y1852D01*
X0Y1851D02*
X7Y1851D01*
X3613Y1851D02*
X3620Y1851D01*
X0Y1850D02*
X7Y1850D01*
X3613Y1850D02*
X3620Y1850D01*
X0Y1849D02*
X7Y1849D01*
X3613Y1849D02*
X3620Y1849D01*
X0Y1848D02*
X7Y1848D01*
X3613Y1848D02*
X3620Y1848D01*
X0Y1847D02*
X7Y1847D01*
X3613Y1847D02*
X3620Y1847D01*
X0Y1846D02*
X7Y1846D01*
X3613Y1846D02*
X3620Y1846D01*
X0Y1845D02*
X7Y1845D01*
X3613Y1845D02*
X3620Y1845D01*
X0Y1844D02*
X7Y1844D01*
X3613Y1844D02*
X3620Y1844D01*
X0Y1843D02*
X7Y1843D01*
X3613Y1843D02*
X3620Y1843D01*
X0Y1842D02*
X7Y1842D01*
X3613Y1842D02*
X3620Y1842D01*
X0Y1841D02*
X7Y1841D01*
X3613Y1841D02*
X3620Y1841D01*
X0Y1840D02*
X7Y1840D01*
X3613Y1840D02*
X3620Y1840D01*
X0Y1839D02*
X7Y1839D01*
X3613Y1839D02*
X3620Y1839D01*
X0Y1838D02*
X7Y1838D01*
X3613Y1838D02*
X3620Y1838D01*
X0Y1837D02*
X7Y1837D01*
X3613Y1837D02*
X3620Y1837D01*
X0Y1836D02*
X7Y1836D01*
X3613Y1836D02*
X3620Y1836D01*
X0Y1835D02*
X7Y1835D01*
X3613Y1835D02*
X3620Y1835D01*
X0Y1834D02*
X7Y1834D01*
X3613Y1834D02*
X3620Y1834D01*
X0Y1833D02*
X7Y1833D01*
X3613Y1833D02*
X3620Y1833D01*
X0Y1832D02*
X7Y1832D01*
X3613Y1832D02*
X3620Y1832D01*
X0Y1831D02*
X7Y1831D01*
X3613Y1831D02*
X3620Y1831D01*
X0Y1830D02*
X7Y1830D01*
X3613Y1830D02*
X3620Y1830D01*
X0Y1829D02*
X7Y1829D01*
X3613Y1829D02*
X3620Y1829D01*
X0Y1828D02*
X7Y1828D01*
X3613Y1828D02*
X3620Y1828D01*
X0Y1827D02*
X7Y1827D01*
X3613Y1827D02*
X3620Y1827D01*
X0Y1826D02*
X7Y1826D01*
X3613Y1826D02*
X3620Y1826D01*
X0Y1825D02*
X7Y1825D01*
X3613Y1825D02*
X3620Y1825D01*
X0Y1824D02*
X7Y1824D01*
X3613Y1824D02*
X3620Y1824D01*
X0Y1823D02*
X7Y1823D01*
X3613Y1823D02*
X3620Y1823D01*
X0Y1822D02*
X7Y1822D01*
X3613Y1822D02*
X3620Y1822D01*
X0Y1821D02*
X7Y1821D01*
X3613Y1821D02*
X3620Y1821D01*
X0Y1820D02*
X7Y1820D01*
X3613Y1820D02*
X3620Y1820D01*
X0Y1819D02*
X7Y1819D01*
X3613Y1819D02*
X3620Y1819D01*
X0Y1818D02*
X7Y1818D01*
X3613Y1818D02*
X3620Y1818D01*
X0Y1817D02*
X7Y1817D01*
X3613Y1817D02*
X3620Y1817D01*
X0Y1816D02*
X7Y1816D01*
X3613Y1816D02*
X3620Y1816D01*
X0Y1815D02*
X7Y1815D01*
X3613Y1815D02*
X3620Y1815D01*
X0Y1814D02*
X7Y1814D01*
X3613Y1814D02*
X3620Y1814D01*
X0Y1813D02*
X7Y1813D01*
X3613Y1813D02*
X3620Y1813D01*
X0Y1812D02*
X7Y1812D01*
X3613Y1812D02*
X3620Y1812D01*
X0Y1811D02*
X7Y1811D01*
X3613Y1811D02*
X3620Y1811D01*
X0Y1810D02*
X7Y1810D01*
X3613Y1810D02*
X3620Y1810D01*
X0Y1809D02*
X7Y1809D01*
X3613Y1809D02*
X3620Y1809D01*
X0Y1808D02*
X7Y1808D01*
X3613Y1808D02*
X3620Y1808D01*
X0Y1807D02*
X7Y1807D01*
X3613Y1807D02*
X3620Y1807D01*
X0Y1806D02*
X7Y1806D01*
X3613Y1806D02*
X3620Y1806D01*
X0Y1805D02*
X7Y1805D01*
X3613Y1805D02*
X3620Y1805D01*
X0Y1804D02*
X7Y1804D01*
X3613Y1804D02*
X3620Y1804D01*
X0Y1803D02*
X7Y1803D01*
X3613Y1803D02*
X3620Y1803D01*
X0Y1802D02*
X7Y1802D01*
X3613Y1802D02*
X3620Y1802D01*
X0Y1801D02*
X7Y1801D01*
X3613Y1801D02*
X3620Y1801D01*
X0Y1800D02*
X7Y1800D01*
X3613Y1800D02*
X3620Y1800D01*
X0Y1799D02*
X7Y1799D01*
X3613Y1799D02*
X3620Y1799D01*
X0Y1798D02*
X7Y1798D01*
X3613Y1798D02*
X3620Y1798D01*
X0Y1797D02*
X7Y1797D01*
X3613Y1797D02*
X3620Y1797D01*
X0Y1796D02*
X7Y1796D01*
X3613Y1796D02*
X3620Y1796D01*
X0Y1795D02*
X7Y1795D01*
X3613Y1795D02*
X3620Y1795D01*
X0Y1794D02*
X7Y1794D01*
X3613Y1794D02*
X3620Y1794D01*
X0Y1793D02*
X7Y1793D01*
X3613Y1793D02*
X3620Y1793D01*
X0Y1792D02*
X7Y1792D01*
X3613Y1792D02*
X3620Y1792D01*
X0Y1791D02*
X7Y1791D01*
X3613Y1791D02*
X3620Y1791D01*
X0Y1790D02*
X7Y1790D01*
X3613Y1790D02*
X3620Y1790D01*
X0Y1789D02*
X7Y1789D01*
X3613Y1789D02*
X3620Y1789D01*
X0Y1788D02*
X7Y1788D01*
X3613Y1788D02*
X3620Y1788D01*
X0Y1787D02*
X7Y1787D01*
X3613Y1787D02*
X3620Y1787D01*
X0Y1786D02*
X7Y1786D01*
X3613Y1786D02*
X3620Y1786D01*
X0Y1785D02*
X7Y1785D01*
X3613Y1785D02*
X3620Y1785D01*
X0Y1784D02*
X7Y1784D01*
X3613Y1784D02*
X3620Y1784D01*
X0Y1783D02*
X7Y1783D01*
X3613Y1783D02*
X3620Y1783D01*
X0Y1782D02*
X7Y1782D01*
X3613Y1782D02*
X3620Y1782D01*
X0Y1781D02*
X7Y1781D01*
X3613Y1781D02*
X3620Y1781D01*
X0Y1780D02*
X7Y1780D01*
X3613Y1780D02*
X3620Y1780D01*
X0Y1779D02*
X7Y1779D01*
X3613Y1779D02*
X3620Y1779D01*
X0Y1778D02*
X7Y1778D01*
X3613Y1778D02*
X3620Y1778D01*
X0Y1777D02*
X7Y1777D01*
X3613Y1777D02*
X3620Y1777D01*
X0Y1776D02*
X7Y1776D01*
X3613Y1776D02*
X3620Y1776D01*
X0Y1775D02*
X7Y1775D01*
X3613Y1775D02*
X3620Y1775D01*
X0Y1774D02*
X7Y1774D01*
X3613Y1774D02*
X3620Y1774D01*
X0Y1773D02*
X7Y1773D01*
X3613Y1773D02*
X3620Y1773D01*
X0Y1772D02*
X7Y1772D01*
X3613Y1772D02*
X3620Y1772D01*
X0Y1771D02*
X7Y1771D01*
X3613Y1771D02*
X3620Y1771D01*
X0Y1770D02*
X7Y1770D01*
X3613Y1770D02*
X3620Y1770D01*
X0Y1769D02*
X7Y1769D01*
X3613Y1769D02*
X3620Y1769D01*
X0Y1768D02*
X7Y1768D01*
X3613Y1768D02*
X3620Y1768D01*
X0Y1767D02*
X7Y1767D01*
X3613Y1767D02*
X3620Y1767D01*
X0Y1766D02*
X7Y1766D01*
X3613Y1766D02*
X3620Y1766D01*
X0Y1765D02*
X7Y1765D01*
X3613Y1765D02*
X3620Y1765D01*
X0Y1764D02*
X7Y1764D01*
X3613Y1764D02*
X3620Y1764D01*
X0Y1763D02*
X7Y1763D01*
X3613Y1763D02*
X3620Y1763D01*
X0Y1762D02*
X7Y1762D01*
X3613Y1762D02*
X3620Y1762D01*
X0Y1761D02*
X7Y1761D01*
X3613Y1761D02*
X3620Y1761D01*
X0Y1760D02*
X7Y1760D01*
X3613Y1760D02*
X3620Y1760D01*
X0Y1759D02*
X7Y1759D01*
X3613Y1759D02*
X3620Y1759D01*
X0Y1758D02*
X7Y1758D01*
X3613Y1758D02*
X3620Y1758D01*
X0Y1757D02*
X7Y1757D01*
X3613Y1757D02*
X3620Y1757D01*
X0Y1756D02*
X7Y1756D01*
X3613Y1756D02*
X3620Y1756D01*
X0Y1755D02*
X7Y1755D01*
X3613Y1755D02*
X3620Y1755D01*
X0Y1754D02*
X7Y1754D01*
X3613Y1754D02*
X3620Y1754D01*
X0Y1753D02*
X7Y1753D01*
X3613Y1753D02*
X3620Y1753D01*
X0Y1752D02*
X7Y1752D01*
X3613Y1752D02*
X3620Y1752D01*
X0Y1751D02*
X7Y1751D01*
X3613Y1751D02*
X3620Y1751D01*
X0Y1750D02*
X7Y1750D01*
X3613Y1750D02*
X3620Y1750D01*
X0Y1749D02*
X7Y1749D01*
X3613Y1749D02*
X3620Y1749D01*
X0Y1748D02*
X7Y1748D01*
X3613Y1748D02*
X3620Y1748D01*
X0Y1747D02*
X7Y1747D01*
X3613Y1747D02*
X3620Y1747D01*
X0Y1746D02*
X7Y1746D01*
X3613Y1746D02*
X3620Y1746D01*
X0Y1745D02*
X7Y1745D01*
X3613Y1745D02*
X3620Y1745D01*
X0Y1744D02*
X7Y1744D01*
X3613Y1744D02*
X3620Y1744D01*
X0Y1743D02*
X7Y1743D01*
X3613Y1743D02*
X3620Y1743D01*
X0Y1742D02*
X7Y1742D01*
X3613Y1742D02*
X3620Y1742D01*
X0Y1741D02*
X7Y1741D01*
X3613Y1741D02*
X3620Y1741D01*
X0Y1740D02*
X7Y1740D01*
X3613Y1740D02*
X3620Y1740D01*
X0Y1739D02*
X7Y1739D01*
X3613Y1739D02*
X3620Y1739D01*
X0Y1738D02*
X7Y1738D01*
X3613Y1738D02*
X3620Y1738D01*
X0Y1737D02*
X7Y1737D01*
X3613Y1737D02*
X3620Y1737D01*
X0Y1736D02*
X7Y1736D01*
X3613Y1736D02*
X3620Y1736D01*
X0Y1735D02*
X7Y1735D01*
X3613Y1735D02*
X3620Y1735D01*
X0Y1734D02*
X7Y1734D01*
X3613Y1734D02*
X3620Y1734D01*
X0Y1733D02*
X7Y1733D01*
X3613Y1733D02*
X3620Y1733D01*
X0Y1732D02*
X7Y1732D01*
X3613Y1732D02*
X3620Y1732D01*
X0Y1731D02*
X7Y1731D01*
X3613Y1731D02*
X3620Y1731D01*
X0Y1730D02*
X7Y1730D01*
X3613Y1730D02*
X3620Y1730D01*
X0Y1729D02*
X7Y1729D01*
X3613Y1729D02*
X3620Y1729D01*
X0Y1728D02*
X7Y1728D01*
X3613Y1728D02*
X3620Y1728D01*
X0Y1727D02*
X7Y1727D01*
X3613Y1727D02*
X3620Y1727D01*
X0Y1726D02*
X7Y1726D01*
X3613Y1726D02*
X3620Y1726D01*
X0Y1725D02*
X7Y1725D01*
X3613Y1725D02*
X3620Y1725D01*
X0Y1724D02*
X7Y1724D01*
X3613Y1724D02*
X3620Y1724D01*
X0Y1723D02*
X7Y1723D01*
X3613Y1723D02*
X3620Y1723D01*
X0Y1722D02*
X7Y1722D01*
X3613Y1722D02*
X3620Y1722D01*
X0Y1721D02*
X7Y1721D01*
X3613Y1721D02*
X3620Y1721D01*
X0Y1720D02*
X7Y1720D01*
X3613Y1720D02*
X3620Y1720D01*
X0Y1719D02*
X7Y1719D01*
X3613Y1719D02*
X3620Y1719D01*
X0Y1718D02*
X7Y1718D01*
X3613Y1718D02*
X3620Y1718D01*
X0Y1717D02*
X7Y1717D01*
X3613Y1717D02*
X3620Y1717D01*
X0Y1716D02*
X7Y1716D01*
X3613Y1716D02*
X3620Y1716D01*
X0Y1715D02*
X7Y1715D01*
X3613Y1715D02*
X3620Y1715D01*
X0Y1714D02*
X7Y1714D01*
X3613Y1714D02*
X3620Y1714D01*
X0Y1713D02*
X7Y1713D01*
X3613Y1713D02*
X3620Y1713D01*
X0Y1712D02*
X7Y1712D01*
X3613Y1712D02*
X3620Y1712D01*
X0Y1711D02*
X7Y1711D01*
X3613Y1711D02*
X3620Y1711D01*
X0Y1710D02*
X7Y1710D01*
X3613Y1710D02*
X3620Y1710D01*
X0Y1709D02*
X7Y1709D01*
X3613Y1709D02*
X3620Y1709D01*
X0Y1708D02*
X7Y1708D01*
X3613Y1708D02*
X3620Y1708D01*
X0Y1707D02*
X7Y1707D01*
X3613Y1707D02*
X3620Y1707D01*
X0Y1706D02*
X7Y1706D01*
X3613Y1706D02*
X3620Y1706D01*
X0Y1705D02*
X7Y1705D01*
X3613Y1705D02*
X3620Y1705D01*
X0Y1704D02*
X7Y1704D01*
X3613Y1704D02*
X3620Y1704D01*
X0Y1703D02*
X7Y1703D01*
X3613Y1703D02*
X3620Y1703D01*
X0Y1702D02*
X7Y1702D01*
X3613Y1702D02*
X3620Y1702D01*
X0Y1701D02*
X7Y1701D01*
X3613Y1701D02*
X3620Y1701D01*
X0Y1700D02*
X7Y1700D01*
X3613Y1700D02*
X3620Y1700D01*
X0Y1699D02*
X7Y1699D01*
X3613Y1699D02*
X3620Y1699D01*
X0Y1698D02*
X7Y1698D01*
X3613Y1698D02*
X3620Y1698D01*
X0Y1697D02*
X7Y1697D01*
X3613Y1697D02*
X3620Y1697D01*
X0Y1696D02*
X7Y1696D01*
X3613Y1696D02*
X3620Y1696D01*
X0Y1695D02*
X7Y1695D01*
X3613Y1695D02*
X3620Y1695D01*
X0Y1694D02*
X7Y1694D01*
X3613Y1694D02*
X3620Y1694D01*
X0Y1693D02*
X7Y1693D01*
X3613Y1693D02*
X3620Y1693D01*
X0Y1692D02*
X7Y1692D01*
X3613Y1692D02*
X3620Y1692D01*
X0Y1691D02*
X7Y1691D01*
X3613Y1691D02*
X3620Y1691D01*
X0Y1690D02*
X7Y1690D01*
X3613Y1690D02*
X3620Y1690D01*
X0Y1689D02*
X7Y1689D01*
X3613Y1689D02*
X3620Y1689D01*
X0Y1688D02*
X7Y1688D01*
X3613Y1688D02*
X3620Y1688D01*
X0Y1687D02*
X7Y1687D01*
X3613Y1687D02*
X3620Y1687D01*
X0Y1686D02*
X7Y1686D01*
X3613Y1686D02*
X3620Y1686D01*
X0Y1685D02*
X7Y1685D01*
X3613Y1685D02*
X3620Y1685D01*
X0Y1684D02*
X7Y1684D01*
X3613Y1684D02*
X3620Y1684D01*
X0Y1683D02*
X7Y1683D01*
X3613Y1683D02*
X3620Y1683D01*
X0Y1682D02*
X7Y1682D01*
X3613Y1682D02*
X3620Y1682D01*
X0Y1681D02*
X7Y1681D01*
X3613Y1681D02*
X3620Y1681D01*
X0Y1680D02*
X7Y1680D01*
X3613Y1680D02*
X3620Y1680D01*
X0Y1679D02*
X7Y1679D01*
X3613Y1679D02*
X3620Y1679D01*
X0Y1678D02*
X7Y1678D01*
X3613Y1678D02*
X3620Y1678D01*
X0Y1677D02*
X7Y1677D01*
X3613Y1677D02*
X3620Y1677D01*
X0Y1676D02*
X7Y1676D01*
X3613Y1676D02*
X3620Y1676D01*
X0Y1675D02*
X7Y1675D01*
X3613Y1675D02*
X3620Y1675D01*
X0Y1674D02*
X7Y1674D01*
X3613Y1674D02*
X3620Y1674D01*
X0Y1673D02*
X7Y1673D01*
X3613Y1673D02*
X3620Y1673D01*
X0Y1672D02*
X7Y1672D01*
X3613Y1672D02*
X3620Y1672D01*
X0Y1671D02*
X7Y1671D01*
X3613Y1671D02*
X3620Y1671D01*
X0Y1670D02*
X7Y1670D01*
X3613Y1670D02*
X3620Y1670D01*
X0Y1669D02*
X7Y1669D01*
X3613Y1669D02*
X3620Y1669D01*
X0Y1668D02*
X7Y1668D01*
X3613Y1668D02*
X3620Y1668D01*
X0Y1667D02*
X7Y1667D01*
X3613Y1667D02*
X3620Y1667D01*
X0Y1666D02*
X7Y1666D01*
X3613Y1666D02*
X3620Y1666D01*
X0Y1665D02*
X7Y1665D01*
X3613Y1665D02*
X3620Y1665D01*
X0Y1664D02*
X7Y1664D01*
X3613Y1664D02*
X3620Y1664D01*
X0Y1663D02*
X7Y1663D01*
X3613Y1663D02*
X3620Y1663D01*
X0Y1662D02*
X7Y1662D01*
X3613Y1662D02*
X3620Y1662D01*
X0Y1661D02*
X7Y1661D01*
X3613Y1661D02*
X3620Y1661D01*
X0Y1660D02*
X7Y1660D01*
X3613Y1660D02*
X3620Y1660D01*
X0Y1659D02*
X7Y1659D01*
X3613Y1659D02*
X3620Y1659D01*
X0Y1658D02*
X7Y1658D01*
X3613Y1658D02*
X3620Y1658D01*
X0Y1657D02*
X7Y1657D01*
X3613Y1657D02*
X3620Y1657D01*
X0Y1656D02*
X7Y1656D01*
X3613Y1656D02*
X3620Y1656D01*
X0Y1655D02*
X7Y1655D01*
X3613Y1655D02*
X3620Y1655D01*
X0Y1654D02*
X7Y1654D01*
X3613Y1654D02*
X3620Y1654D01*
X0Y1653D02*
X7Y1653D01*
X3613Y1653D02*
X3620Y1653D01*
X0Y1652D02*
X7Y1652D01*
X3613Y1652D02*
X3620Y1652D01*
X0Y1651D02*
X7Y1651D01*
X3613Y1651D02*
X3620Y1651D01*
X0Y1650D02*
X7Y1650D01*
X3613Y1650D02*
X3620Y1650D01*
X0Y1649D02*
X7Y1649D01*
X3613Y1649D02*
X3620Y1649D01*
X0Y1648D02*
X7Y1648D01*
X3613Y1648D02*
X3620Y1648D01*
X0Y1647D02*
X7Y1647D01*
X3613Y1647D02*
X3620Y1647D01*
X0Y1646D02*
X7Y1646D01*
X3613Y1646D02*
X3620Y1646D01*
X0Y1645D02*
X7Y1645D01*
X3613Y1645D02*
X3620Y1645D01*
X0Y1644D02*
X7Y1644D01*
X3613Y1644D02*
X3620Y1644D01*
X0Y1643D02*
X7Y1643D01*
X3613Y1643D02*
X3620Y1643D01*
X0Y1642D02*
X7Y1642D01*
X3613Y1642D02*
X3620Y1642D01*
X0Y1641D02*
X7Y1641D01*
X3613Y1641D02*
X3620Y1641D01*
X0Y1640D02*
X7Y1640D01*
X3613Y1640D02*
X3620Y1640D01*
X0Y1639D02*
X7Y1639D01*
X3613Y1639D02*
X3620Y1639D01*
X0Y1638D02*
X7Y1638D01*
X3613Y1638D02*
X3620Y1638D01*
X0Y1637D02*
X7Y1637D01*
X3613Y1637D02*
X3620Y1637D01*
X0Y1636D02*
X7Y1636D01*
X3613Y1636D02*
X3620Y1636D01*
X0Y1635D02*
X7Y1635D01*
X3613Y1635D02*
X3620Y1635D01*
X0Y1634D02*
X7Y1634D01*
X3613Y1634D02*
X3620Y1634D01*
X0Y1633D02*
X7Y1633D01*
X3613Y1633D02*
X3620Y1633D01*
X0Y1632D02*
X7Y1632D01*
X3613Y1632D02*
X3620Y1632D01*
X0Y1631D02*
X7Y1631D01*
X3613Y1631D02*
X3620Y1631D01*
X0Y1630D02*
X7Y1630D01*
X3613Y1630D02*
X3620Y1630D01*
X0Y1629D02*
X7Y1629D01*
X3613Y1629D02*
X3620Y1629D01*
X0Y1628D02*
X7Y1628D01*
X3613Y1628D02*
X3620Y1628D01*
X0Y1627D02*
X7Y1627D01*
X3613Y1627D02*
X3620Y1627D01*
X0Y1626D02*
X7Y1626D01*
X3613Y1626D02*
X3620Y1626D01*
X0Y1625D02*
X7Y1625D01*
X3613Y1625D02*
X3620Y1625D01*
X0Y1624D02*
X7Y1624D01*
X3613Y1624D02*
X3620Y1624D01*
X0Y1623D02*
X7Y1623D01*
X3613Y1623D02*
X3620Y1623D01*
X0Y1622D02*
X7Y1622D01*
X3613Y1622D02*
X3620Y1622D01*
X0Y1621D02*
X7Y1621D01*
X3613Y1621D02*
X3620Y1621D01*
X0Y1620D02*
X7Y1620D01*
X3613Y1620D02*
X3620Y1620D01*
X0Y1619D02*
X7Y1619D01*
X3613Y1619D02*
X3620Y1619D01*
X0Y1618D02*
X7Y1618D01*
X3613Y1618D02*
X3620Y1618D01*
X0Y1617D02*
X7Y1617D01*
X3613Y1617D02*
X3620Y1617D01*
X0Y1616D02*
X7Y1616D01*
X3613Y1616D02*
X3620Y1616D01*
X0Y1615D02*
X7Y1615D01*
X3613Y1615D02*
X3620Y1615D01*
X0Y1614D02*
X7Y1614D01*
X3613Y1614D02*
X3620Y1614D01*
X0Y1613D02*
X7Y1613D01*
X3613Y1613D02*
X3620Y1613D01*
X0Y1612D02*
X7Y1612D01*
X3613Y1612D02*
X3620Y1612D01*
X0Y1611D02*
X7Y1611D01*
X3613Y1611D02*
X3620Y1611D01*
X0Y1610D02*
X7Y1610D01*
X3613Y1610D02*
X3620Y1610D01*
X0Y1609D02*
X7Y1609D01*
X3613Y1609D02*
X3620Y1609D01*
X0Y1608D02*
X7Y1608D01*
X3613Y1608D02*
X3620Y1608D01*
X0Y1607D02*
X7Y1607D01*
X3613Y1607D02*
X3620Y1607D01*
X0Y1606D02*
X7Y1606D01*
X3613Y1606D02*
X3620Y1606D01*
X0Y1605D02*
X7Y1605D01*
X3613Y1605D02*
X3620Y1605D01*
X0Y1604D02*
X7Y1604D01*
X3613Y1604D02*
X3620Y1604D01*
X0Y1603D02*
X7Y1603D01*
X3613Y1603D02*
X3620Y1603D01*
X0Y1602D02*
X7Y1602D01*
X3613Y1602D02*
X3620Y1602D01*
X0Y1601D02*
X7Y1601D01*
X3613Y1601D02*
X3620Y1601D01*
X0Y1600D02*
X7Y1600D01*
X3613Y1600D02*
X3620Y1600D01*
X0Y1599D02*
X7Y1599D01*
X3613Y1599D02*
X3620Y1599D01*
X0Y1598D02*
X7Y1598D01*
X3613Y1598D02*
X3620Y1598D01*
X0Y1597D02*
X7Y1597D01*
X3613Y1597D02*
X3620Y1597D01*
X0Y1596D02*
X7Y1596D01*
X3613Y1596D02*
X3620Y1596D01*
X0Y1595D02*
X7Y1595D01*
X3613Y1595D02*
X3620Y1595D01*
X0Y1594D02*
X7Y1594D01*
X3613Y1594D02*
X3620Y1594D01*
X0Y1593D02*
X7Y1593D01*
X3613Y1593D02*
X3620Y1593D01*
X0Y1592D02*
X7Y1592D01*
X3613Y1592D02*
X3620Y1592D01*
X0Y1591D02*
X7Y1591D01*
X3613Y1591D02*
X3620Y1591D01*
X0Y1590D02*
X7Y1590D01*
X3613Y1590D02*
X3620Y1590D01*
X0Y1589D02*
X7Y1589D01*
X3613Y1589D02*
X3620Y1589D01*
X0Y1588D02*
X7Y1588D01*
X3613Y1588D02*
X3620Y1588D01*
X0Y1587D02*
X7Y1587D01*
X3613Y1587D02*
X3620Y1587D01*
X0Y1586D02*
X7Y1586D01*
X3613Y1586D02*
X3620Y1586D01*
X0Y1585D02*
X7Y1585D01*
X3613Y1585D02*
X3620Y1585D01*
X0Y1584D02*
X7Y1584D01*
X3613Y1584D02*
X3620Y1584D01*
X0Y1583D02*
X7Y1583D01*
X3613Y1583D02*
X3620Y1583D01*
X0Y1582D02*
X7Y1582D01*
X3613Y1582D02*
X3620Y1582D01*
X0Y1581D02*
X7Y1581D01*
X3613Y1581D02*
X3620Y1581D01*
X0Y1580D02*
X7Y1580D01*
X3613Y1580D02*
X3620Y1580D01*
X0Y1579D02*
X7Y1579D01*
X3613Y1579D02*
X3620Y1579D01*
X0Y1578D02*
X7Y1578D01*
X3613Y1578D02*
X3620Y1578D01*
X0Y1577D02*
X7Y1577D01*
X3613Y1577D02*
X3620Y1577D01*
X0Y1576D02*
X7Y1576D01*
X3613Y1576D02*
X3620Y1576D01*
X0Y1575D02*
X7Y1575D01*
X3613Y1575D02*
X3620Y1575D01*
X0Y1574D02*
X7Y1574D01*
X3613Y1574D02*
X3620Y1574D01*
X0Y1573D02*
X7Y1573D01*
X3613Y1573D02*
X3620Y1573D01*
X0Y1572D02*
X7Y1572D01*
X3613Y1572D02*
X3620Y1572D01*
X0Y1571D02*
X7Y1571D01*
X3613Y1571D02*
X3620Y1571D01*
X0Y1570D02*
X7Y1570D01*
X3613Y1570D02*
X3620Y1570D01*
X0Y1569D02*
X7Y1569D01*
X3613Y1569D02*
X3620Y1569D01*
X0Y1568D02*
X7Y1568D01*
X3613Y1568D02*
X3620Y1568D01*
X0Y1567D02*
X7Y1567D01*
X3613Y1567D02*
X3620Y1567D01*
X0Y1566D02*
X7Y1566D01*
X3613Y1566D02*
X3620Y1566D01*
X0Y1565D02*
X7Y1565D01*
X3613Y1565D02*
X3620Y1565D01*
X0Y1564D02*
X7Y1564D01*
X3613Y1564D02*
X3620Y1564D01*
X0Y1563D02*
X7Y1563D01*
X3613Y1563D02*
X3620Y1563D01*
X0Y1562D02*
X7Y1562D01*
X3613Y1562D02*
X3620Y1562D01*
X0Y1561D02*
X7Y1561D01*
X3613Y1561D02*
X3620Y1561D01*
X0Y1560D02*
X7Y1560D01*
X3613Y1560D02*
X3620Y1560D01*
X0Y1559D02*
X7Y1559D01*
X3613Y1559D02*
X3620Y1559D01*
X0Y1558D02*
X7Y1558D01*
X3613Y1558D02*
X3620Y1558D01*
X0Y1557D02*
X7Y1557D01*
X3613Y1557D02*
X3620Y1557D01*
X0Y1556D02*
X7Y1556D01*
X3613Y1556D02*
X3620Y1556D01*
X0Y1555D02*
X7Y1555D01*
X3613Y1555D02*
X3620Y1555D01*
X0Y1554D02*
X7Y1554D01*
X3613Y1554D02*
X3620Y1554D01*
X0Y1553D02*
X7Y1553D01*
X3613Y1553D02*
X3620Y1553D01*
X0Y1552D02*
X7Y1552D01*
X3613Y1552D02*
X3620Y1552D01*
X0Y1551D02*
X7Y1551D01*
X3613Y1551D02*
X3620Y1551D01*
X0Y1550D02*
X7Y1550D01*
X3613Y1550D02*
X3620Y1550D01*
X0Y1549D02*
X7Y1549D01*
X3613Y1549D02*
X3620Y1549D01*
X0Y1548D02*
X7Y1548D01*
X3613Y1548D02*
X3620Y1548D01*
X0Y1547D02*
X7Y1547D01*
X3613Y1547D02*
X3620Y1547D01*
X0Y1546D02*
X7Y1546D01*
X3613Y1546D02*
X3620Y1546D01*
X0Y1545D02*
X7Y1545D01*
X3613Y1545D02*
X3620Y1545D01*
X0Y1544D02*
X7Y1544D01*
X3613Y1544D02*
X3620Y1544D01*
X0Y1543D02*
X7Y1543D01*
X3613Y1543D02*
X3620Y1543D01*
X0Y1542D02*
X7Y1542D01*
X3613Y1542D02*
X3620Y1542D01*
X0Y1541D02*
X7Y1541D01*
X3613Y1541D02*
X3620Y1541D01*
X0Y1540D02*
X7Y1540D01*
X3613Y1540D02*
X3620Y1540D01*
X0Y1539D02*
X7Y1539D01*
X3613Y1539D02*
X3620Y1539D01*
X0Y1538D02*
X7Y1538D01*
X3613Y1538D02*
X3620Y1538D01*
X0Y1537D02*
X7Y1537D01*
X3613Y1537D02*
X3620Y1537D01*
X0Y1536D02*
X7Y1536D01*
X3613Y1536D02*
X3620Y1536D01*
X0Y1535D02*
X7Y1535D01*
X3613Y1535D02*
X3620Y1535D01*
X0Y1534D02*
X7Y1534D01*
X3613Y1534D02*
X3620Y1534D01*
X0Y1533D02*
X7Y1533D01*
X3613Y1533D02*
X3620Y1533D01*
X0Y1532D02*
X7Y1532D01*
X3613Y1532D02*
X3620Y1532D01*
X0Y1531D02*
X7Y1531D01*
X3613Y1531D02*
X3620Y1531D01*
X0Y1530D02*
X7Y1530D01*
X3613Y1530D02*
X3620Y1530D01*
X0Y1529D02*
X7Y1529D01*
X3613Y1529D02*
X3620Y1529D01*
X0Y1528D02*
X7Y1528D01*
X3613Y1528D02*
X3620Y1528D01*
X0Y1527D02*
X7Y1527D01*
X3613Y1527D02*
X3620Y1527D01*
X0Y1526D02*
X7Y1526D01*
X3613Y1526D02*
X3620Y1526D01*
X0Y1525D02*
X7Y1525D01*
X3613Y1525D02*
X3620Y1525D01*
X0Y1524D02*
X7Y1524D01*
X3613Y1524D02*
X3620Y1524D01*
X0Y1523D02*
X7Y1523D01*
X3613Y1523D02*
X3620Y1523D01*
X0Y1522D02*
X7Y1522D01*
X3613Y1522D02*
X3620Y1522D01*
X0Y1521D02*
X7Y1521D01*
X3613Y1521D02*
X3620Y1521D01*
X0Y1520D02*
X7Y1520D01*
X3613Y1520D02*
X3620Y1520D01*
X0Y1519D02*
X7Y1519D01*
X3613Y1519D02*
X3620Y1519D01*
X0Y1518D02*
X7Y1518D01*
X3613Y1518D02*
X3620Y1518D01*
X0Y1517D02*
X7Y1517D01*
X3613Y1517D02*
X3620Y1517D01*
X0Y1516D02*
X7Y1516D01*
X3613Y1516D02*
X3620Y1516D01*
X0Y1515D02*
X7Y1515D01*
X3613Y1515D02*
X3620Y1515D01*
X0Y1514D02*
X7Y1514D01*
X3613Y1514D02*
X3620Y1514D01*
X0Y1513D02*
X7Y1513D01*
X3613Y1513D02*
X3620Y1513D01*
X0Y1512D02*
X7Y1512D01*
X3613Y1512D02*
X3620Y1512D01*
X0Y1511D02*
X7Y1511D01*
X3613Y1511D02*
X3620Y1511D01*
X0Y1510D02*
X7Y1510D01*
X3613Y1510D02*
X3620Y1510D01*
X0Y1509D02*
X7Y1509D01*
X3613Y1509D02*
X3620Y1509D01*
X0Y1508D02*
X7Y1508D01*
X3613Y1508D02*
X3620Y1508D01*
X0Y1507D02*
X7Y1507D01*
X3613Y1507D02*
X3620Y1507D01*
X0Y1506D02*
X7Y1506D01*
X3613Y1506D02*
X3620Y1506D01*
X0Y1505D02*
X7Y1505D01*
X3613Y1505D02*
X3620Y1505D01*
X0Y1504D02*
X7Y1504D01*
X3613Y1504D02*
X3620Y1504D01*
X0Y1503D02*
X7Y1503D01*
X3613Y1503D02*
X3620Y1503D01*
X0Y1502D02*
X7Y1502D01*
X3613Y1502D02*
X3620Y1502D01*
X0Y1501D02*
X7Y1501D01*
X3613Y1501D02*
X3620Y1501D01*
X0Y1500D02*
X7Y1500D01*
X3613Y1500D02*
X3620Y1500D01*
X0Y1499D02*
X7Y1499D01*
X3613Y1499D02*
X3620Y1499D01*
X0Y1498D02*
X7Y1498D01*
X3613Y1498D02*
X3620Y1498D01*
X0Y1497D02*
X7Y1497D01*
X3613Y1497D02*
X3620Y1497D01*
X0Y1496D02*
X7Y1496D01*
X3613Y1496D02*
X3620Y1496D01*
X0Y1495D02*
X7Y1495D01*
X3613Y1495D02*
X3620Y1495D01*
X0Y1494D02*
X7Y1494D01*
X3613Y1494D02*
X3620Y1494D01*
X0Y1493D02*
X7Y1493D01*
X3613Y1493D02*
X3620Y1493D01*
X0Y1492D02*
X7Y1492D01*
X3613Y1492D02*
X3620Y1492D01*
X0Y1491D02*
X7Y1491D01*
X3613Y1491D02*
X3620Y1491D01*
X0Y1490D02*
X7Y1490D01*
X3613Y1490D02*
X3620Y1490D01*
X0Y1489D02*
X7Y1489D01*
X3613Y1489D02*
X3620Y1489D01*
X0Y1488D02*
X7Y1488D01*
X3613Y1488D02*
X3620Y1488D01*
X0Y1487D02*
X7Y1487D01*
X3613Y1487D02*
X3620Y1487D01*
X0Y1486D02*
X7Y1486D01*
X3613Y1486D02*
X3620Y1486D01*
X0Y1485D02*
X7Y1485D01*
X3613Y1485D02*
X3620Y1485D01*
X0Y1484D02*
X7Y1484D01*
X3613Y1484D02*
X3620Y1484D01*
X0Y1483D02*
X7Y1483D01*
X3613Y1483D02*
X3620Y1483D01*
X0Y1482D02*
X7Y1482D01*
X3613Y1482D02*
X3620Y1482D01*
X0Y1481D02*
X7Y1481D01*
X3613Y1481D02*
X3620Y1481D01*
X0Y1480D02*
X7Y1480D01*
X3613Y1480D02*
X3620Y1480D01*
X0Y1479D02*
X7Y1479D01*
X3613Y1479D02*
X3620Y1479D01*
X0Y1478D02*
X7Y1478D01*
X3613Y1478D02*
X3620Y1478D01*
X0Y1477D02*
X7Y1477D01*
X3613Y1477D02*
X3620Y1477D01*
X0Y1476D02*
X7Y1476D01*
X3613Y1476D02*
X3620Y1476D01*
X0Y1475D02*
X7Y1475D01*
X3613Y1475D02*
X3620Y1475D01*
X0Y1474D02*
X7Y1474D01*
X3613Y1474D02*
X3620Y1474D01*
X0Y1473D02*
X7Y1473D01*
X3613Y1473D02*
X3620Y1473D01*
X0Y1472D02*
X7Y1472D01*
X3613Y1472D02*
X3620Y1472D01*
X0Y1471D02*
X7Y1471D01*
X3613Y1471D02*
X3620Y1471D01*
X0Y1470D02*
X7Y1470D01*
X3613Y1470D02*
X3620Y1470D01*
X0Y1469D02*
X7Y1469D01*
X3613Y1469D02*
X3620Y1469D01*
X0Y1468D02*
X7Y1468D01*
X3613Y1468D02*
X3620Y1468D01*
X0Y1467D02*
X7Y1467D01*
X3613Y1467D02*
X3620Y1467D01*
X0Y1466D02*
X7Y1466D01*
X3613Y1466D02*
X3620Y1466D01*
X0Y1465D02*
X7Y1465D01*
X3613Y1465D02*
X3620Y1465D01*
X0Y1464D02*
X7Y1464D01*
X3613Y1464D02*
X3620Y1464D01*
X0Y1463D02*
X7Y1463D01*
X3613Y1463D02*
X3620Y1463D01*
X0Y1462D02*
X7Y1462D01*
X3613Y1462D02*
X3620Y1462D01*
X0Y1461D02*
X7Y1461D01*
X3613Y1461D02*
X3620Y1461D01*
X0Y1460D02*
X7Y1460D01*
X3613Y1460D02*
X3620Y1460D01*
X0Y1459D02*
X7Y1459D01*
X3613Y1459D02*
X3620Y1459D01*
X0Y1458D02*
X7Y1458D01*
X3613Y1458D02*
X3620Y1458D01*
X0Y1457D02*
X7Y1457D01*
X3613Y1457D02*
X3620Y1457D01*
X0Y1456D02*
X7Y1456D01*
X3613Y1456D02*
X3620Y1456D01*
X0Y1455D02*
X7Y1455D01*
X3613Y1455D02*
X3620Y1455D01*
X0Y1454D02*
X7Y1454D01*
X3613Y1454D02*
X3620Y1454D01*
X0Y1453D02*
X7Y1453D01*
X3613Y1453D02*
X3620Y1453D01*
X0Y1452D02*
X7Y1452D01*
X3613Y1452D02*
X3620Y1452D01*
X0Y1451D02*
X7Y1451D01*
X3613Y1451D02*
X3620Y1451D01*
X0Y1450D02*
X7Y1450D01*
X3613Y1450D02*
X3620Y1450D01*
X0Y1449D02*
X7Y1449D01*
X3613Y1449D02*
X3620Y1449D01*
X0Y1448D02*
X7Y1448D01*
X3613Y1448D02*
X3620Y1448D01*
X0Y1447D02*
X7Y1447D01*
X3613Y1447D02*
X3620Y1447D01*
X0Y1446D02*
X7Y1446D01*
X3613Y1446D02*
X3620Y1446D01*
X0Y1445D02*
X7Y1445D01*
X3613Y1445D02*
X3620Y1445D01*
X0Y1444D02*
X7Y1444D01*
X3613Y1444D02*
X3620Y1444D01*
X0Y1443D02*
X7Y1443D01*
X3613Y1443D02*
X3620Y1443D01*
X0Y1442D02*
X7Y1442D01*
X3613Y1442D02*
X3620Y1442D01*
X0Y1441D02*
X7Y1441D01*
X3613Y1441D02*
X3620Y1441D01*
X0Y1440D02*
X7Y1440D01*
X3613Y1440D02*
X3620Y1440D01*
X0Y1439D02*
X7Y1439D01*
X3613Y1439D02*
X3620Y1439D01*
X0Y1438D02*
X7Y1438D01*
X3613Y1438D02*
X3620Y1438D01*
X0Y1437D02*
X7Y1437D01*
X3613Y1437D02*
X3620Y1437D01*
X0Y1436D02*
X7Y1436D01*
X3613Y1436D02*
X3620Y1436D01*
X0Y1435D02*
X7Y1435D01*
X3613Y1435D02*
X3620Y1435D01*
X0Y1434D02*
X7Y1434D01*
X3613Y1434D02*
X3620Y1434D01*
X0Y1433D02*
X7Y1433D01*
X3613Y1433D02*
X3620Y1433D01*
X0Y1432D02*
X7Y1432D01*
X3613Y1432D02*
X3620Y1432D01*
X0Y1431D02*
X7Y1431D01*
X3613Y1431D02*
X3620Y1431D01*
X0Y1430D02*
X7Y1430D01*
X3613Y1430D02*
X3620Y1430D01*
X0Y1429D02*
X7Y1429D01*
X3613Y1429D02*
X3620Y1429D01*
X0Y1428D02*
X7Y1428D01*
X3613Y1428D02*
X3620Y1428D01*
X0Y1427D02*
X7Y1427D01*
X3613Y1427D02*
X3620Y1427D01*
X0Y1426D02*
X7Y1426D01*
X3613Y1426D02*
X3620Y1426D01*
X0Y1425D02*
X7Y1425D01*
X3613Y1425D02*
X3620Y1425D01*
X0Y1424D02*
X7Y1424D01*
X3613Y1424D02*
X3620Y1424D01*
X0Y1423D02*
X7Y1423D01*
X3613Y1423D02*
X3620Y1423D01*
X0Y1422D02*
X7Y1422D01*
X3613Y1422D02*
X3620Y1422D01*
X0Y1421D02*
X7Y1421D01*
X3613Y1421D02*
X3620Y1421D01*
X0Y1420D02*
X7Y1420D01*
X3613Y1420D02*
X3620Y1420D01*
X0Y1419D02*
X7Y1419D01*
X3613Y1419D02*
X3620Y1419D01*
X0Y1418D02*
X7Y1418D01*
X3613Y1418D02*
X3620Y1418D01*
X0Y1417D02*
X7Y1417D01*
X3613Y1417D02*
X3620Y1417D01*
X0Y1416D02*
X7Y1416D01*
X3613Y1416D02*
X3620Y1416D01*
X0Y1415D02*
X7Y1415D01*
X3613Y1415D02*
X3620Y1415D01*
X0Y1414D02*
X7Y1414D01*
X3613Y1414D02*
X3620Y1414D01*
X0Y1413D02*
X7Y1413D01*
X3613Y1413D02*
X3620Y1413D01*
X0Y1412D02*
X7Y1412D01*
X3613Y1412D02*
X3620Y1412D01*
X0Y1411D02*
X7Y1411D01*
X3613Y1411D02*
X3620Y1411D01*
X0Y1410D02*
X7Y1410D01*
X3613Y1410D02*
X3620Y1410D01*
X0Y1409D02*
X7Y1409D01*
X3613Y1409D02*
X3620Y1409D01*
X0Y1408D02*
X7Y1408D01*
X3613Y1408D02*
X3620Y1408D01*
X0Y1407D02*
X7Y1407D01*
X3613Y1407D02*
X3620Y1407D01*
X0Y1406D02*
X7Y1406D01*
X3613Y1406D02*
X3620Y1406D01*
X0Y1405D02*
X7Y1405D01*
X3613Y1405D02*
X3620Y1405D01*
X0Y1404D02*
X7Y1404D01*
X3613Y1404D02*
X3620Y1404D01*
X0Y1403D02*
X7Y1403D01*
X3613Y1403D02*
X3620Y1403D01*
X0Y1402D02*
X7Y1402D01*
X3613Y1402D02*
X3620Y1402D01*
X0Y1401D02*
X7Y1401D01*
X3613Y1401D02*
X3620Y1401D01*
X0Y1400D02*
X7Y1400D01*
X3613Y1400D02*
X3620Y1400D01*
X0Y1399D02*
X7Y1399D01*
X3613Y1399D02*
X3620Y1399D01*
X0Y1398D02*
X7Y1398D01*
X3613Y1398D02*
X3620Y1398D01*
X0Y1397D02*
X7Y1397D01*
X3370Y1397D02*
X3397Y1397D01*
X3421Y1397D02*
X3440Y1397D01*
X3613Y1397D02*
X3620Y1397D01*
X0Y1396D02*
X7Y1396D01*
X3370Y1396D02*
X3398Y1396D01*
X3420Y1396D02*
X3440Y1396D01*
X3613Y1396D02*
X3620Y1396D01*
X0Y1395D02*
X7Y1395D01*
X3370Y1395D02*
X3400Y1395D01*
X3420Y1395D02*
X3440Y1395D01*
X3613Y1395D02*
X3620Y1395D01*
X0Y1394D02*
X7Y1394D01*
X3370Y1394D02*
X3401Y1394D01*
X3420Y1394D02*
X3440Y1394D01*
X3613Y1394D02*
X3620Y1394D01*
X0Y1393D02*
X7Y1393D01*
X3370Y1393D02*
X3401Y1393D01*
X3420Y1393D02*
X3440Y1393D01*
X3613Y1393D02*
X3620Y1393D01*
X0Y1392D02*
X7Y1392D01*
X3370Y1392D02*
X3402Y1392D01*
X3421Y1392D02*
X3440Y1392D01*
X3613Y1392D02*
X3620Y1392D01*
X0Y1391D02*
X7Y1391D01*
X3370Y1391D02*
X3403Y1391D01*
X3422Y1391D02*
X3440Y1391D01*
X3613Y1391D02*
X3620Y1391D01*
X0Y1390D02*
X7Y1390D01*
X3370Y1390D02*
X3376Y1390D01*
X3396Y1390D02*
X3403Y1390D01*
X3434Y1390D02*
X3440Y1390D01*
X3613Y1390D02*
X3620Y1390D01*
X0Y1389D02*
X7Y1389D01*
X3370Y1389D02*
X3376Y1389D01*
X3397Y1389D02*
X3403Y1389D01*
X3434Y1389D02*
X3440Y1389D01*
X3613Y1389D02*
X3620Y1389D01*
X0Y1388D02*
X7Y1388D01*
X3370Y1388D02*
X3376Y1388D01*
X3397Y1388D02*
X3403Y1388D01*
X3434Y1388D02*
X3440Y1388D01*
X3613Y1388D02*
X3620Y1388D01*
X0Y1387D02*
X7Y1387D01*
X3370Y1387D02*
X3376Y1387D01*
X3397Y1387D02*
X3403Y1387D01*
X3434Y1387D02*
X3440Y1387D01*
X3613Y1387D02*
X3620Y1387D01*
X0Y1386D02*
X7Y1386D01*
X3370Y1386D02*
X3376Y1386D01*
X3397Y1386D02*
X3403Y1386D01*
X3434Y1386D02*
X3440Y1386D01*
X3613Y1386D02*
X3620Y1386D01*
X0Y1385D02*
X7Y1385D01*
X3370Y1385D02*
X3376Y1385D01*
X3397Y1385D02*
X3403Y1385D01*
X3434Y1385D02*
X3440Y1385D01*
X3613Y1385D02*
X3620Y1385D01*
X0Y1384D02*
X7Y1384D01*
X3370Y1384D02*
X3376Y1384D01*
X3397Y1384D02*
X3403Y1384D01*
X3434Y1384D02*
X3440Y1384D01*
X3613Y1384D02*
X3620Y1384D01*
X0Y1383D02*
X7Y1383D01*
X3370Y1383D02*
X3376Y1383D01*
X3397Y1383D02*
X3403Y1383D01*
X3434Y1383D02*
X3440Y1383D01*
X3613Y1383D02*
X3620Y1383D01*
X0Y1382D02*
X7Y1382D01*
X3370Y1382D02*
X3376Y1382D01*
X3397Y1382D02*
X3403Y1382D01*
X3434Y1382D02*
X3440Y1382D01*
X3613Y1382D02*
X3620Y1382D01*
X0Y1381D02*
X7Y1381D01*
X3370Y1381D02*
X3376Y1381D01*
X3396Y1381D02*
X3403Y1381D01*
X3434Y1381D02*
X3440Y1381D01*
X3613Y1381D02*
X3620Y1381D01*
X0Y1380D02*
X7Y1380D01*
X3370Y1380D02*
X3403Y1380D01*
X3434Y1380D02*
X3440Y1380D01*
X3613Y1380D02*
X3620Y1380D01*
X0Y1379D02*
X7Y1379D01*
X3370Y1379D02*
X3402Y1379D01*
X3434Y1379D02*
X3440Y1379D01*
X3613Y1379D02*
X3620Y1379D01*
X0Y1378D02*
X7Y1378D01*
X3370Y1378D02*
X3402Y1378D01*
X3434Y1378D02*
X3440Y1378D01*
X3613Y1378D02*
X3620Y1378D01*
X0Y1377D02*
X7Y1377D01*
X3370Y1377D02*
X3401Y1377D01*
X3434Y1377D02*
X3440Y1377D01*
X3613Y1377D02*
X3620Y1377D01*
X0Y1376D02*
X7Y1376D01*
X3370Y1376D02*
X3400Y1376D01*
X3434Y1376D02*
X3440Y1376D01*
X3613Y1376D02*
X3620Y1376D01*
X0Y1375D02*
X7Y1375D01*
X3370Y1375D02*
X3399Y1375D01*
X3434Y1375D02*
X3440Y1375D01*
X3613Y1375D02*
X3620Y1375D01*
X0Y1374D02*
X7Y1374D01*
X3370Y1374D02*
X3397Y1374D01*
X3434Y1374D02*
X3440Y1374D01*
X3613Y1374D02*
X3620Y1374D01*
X0Y1373D02*
X7Y1373D01*
X3370Y1373D02*
X3376Y1373D01*
X3381Y1373D02*
X3389Y1373D01*
X3434Y1373D02*
X3440Y1373D01*
X3613Y1373D02*
X3620Y1373D01*
X0Y1372D02*
X7Y1372D01*
X3370Y1372D02*
X3376Y1372D01*
X3382Y1372D02*
X3389Y1372D01*
X3434Y1372D02*
X3440Y1372D01*
X3613Y1372D02*
X3620Y1372D01*
X0Y1371D02*
X7Y1371D01*
X3370Y1371D02*
X3376Y1371D01*
X3383Y1371D02*
X3390Y1371D01*
X3434Y1371D02*
X3440Y1371D01*
X3613Y1371D02*
X3620Y1371D01*
X0Y1370D02*
X7Y1370D01*
X3370Y1370D02*
X3376Y1370D01*
X3383Y1370D02*
X3390Y1370D01*
X3434Y1370D02*
X3440Y1370D01*
X3613Y1370D02*
X3620Y1370D01*
X0Y1369D02*
X7Y1369D01*
X3370Y1369D02*
X3376Y1369D01*
X3384Y1369D02*
X3391Y1369D01*
X3434Y1369D02*
X3440Y1369D01*
X3613Y1369D02*
X3620Y1369D01*
X0Y1368D02*
X7Y1368D01*
X3370Y1368D02*
X3376Y1368D01*
X3384Y1368D02*
X3392Y1368D01*
X3434Y1368D02*
X3440Y1368D01*
X3450Y1368D02*
X3451Y1368D01*
X3613Y1368D02*
X3620Y1368D01*
X0Y1367D02*
X7Y1367D01*
X3370Y1367D02*
X3376Y1367D01*
X3385Y1367D02*
X3392Y1367D01*
X3434Y1367D02*
X3440Y1367D01*
X3448Y1367D02*
X3453Y1367D01*
X3613Y1367D02*
X3620Y1367D01*
X0Y1366D02*
X7Y1366D01*
X3370Y1366D02*
X3376Y1366D01*
X3386Y1366D02*
X3393Y1366D01*
X3434Y1366D02*
X3440Y1366D01*
X3448Y1366D02*
X3453Y1366D01*
X3613Y1366D02*
X3620Y1366D01*
X0Y1365D02*
X7Y1365D01*
X3370Y1365D02*
X3376Y1365D01*
X3386Y1365D02*
X3393Y1365D01*
X3434Y1365D02*
X3440Y1365D01*
X3447Y1365D02*
X3453Y1365D01*
X3613Y1365D02*
X3620Y1365D01*
X0Y1364D02*
X7Y1364D01*
X3370Y1364D02*
X3376Y1364D01*
X3387Y1364D02*
X3394Y1364D01*
X3434Y1364D02*
X3440Y1364D01*
X3447Y1364D02*
X3453Y1364D01*
X3613Y1364D02*
X3620Y1364D01*
X0Y1363D02*
X7Y1363D01*
X3370Y1363D02*
X3376Y1363D01*
X3387Y1363D02*
X3395Y1363D01*
X3434Y1363D02*
X3440Y1363D01*
X3447Y1363D02*
X3453Y1363D01*
X3613Y1363D02*
X3620Y1363D01*
X0Y1362D02*
X7Y1362D01*
X3370Y1362D02*
X3376Y1362D01*
X3388Y1362D02*
X3395Y1362D01*
X3434Y1362D02*
X3440Y1362D01*
X3447Y1362D02*
X3453Y1362D01*
X3613Y1362D02*
X3620Y1362D01*
X0Y1361D02*
X7Y1361D01*
X3370Y1361D02*
X3376Y1361D01*
X3388Y1361D02*
X3396Y1361D01*
X3434Y1361D02*
X3440Y1361D01*
X3447Y1361D02*
X3453Y1361D01*
X3613Y1361D02*
X3620Y1361D01*
X0Y1360D02*
X7Y1360D01*
X3370Y1360D02*
X3376Y1360D01*
X3389Y1360D02*
X3396Y1360D01*
X3434Y1360D02*
X3440Y1360D01*
X3447Y1360D02*
X3453Y1360D01*
X3613Y1360D02*
X3620Y1360D01*
X0Y1359D02*
X7Y1359D01*
X3370Y1359D02*
X3376Y1359D01*
X3390Y1359D02*
X3397Y1359D01*
X3434Y1359D02*
X3440Y1359D01*
X3447Y1359D02*
X3453Y1359D01*
X3613Y1359D02*
X3620Y1359D01*
X0Y1358D02*
X7Y1358D01*
X3370Y1358D02*
X3376Y1358D01*
X3390Y1358D02*
X3397Y1358D01*
X3434Y1358D02*
X3440Y1358D01*
X3447Y1358D02*
X3453Y1358D01*
X3613Y1358D02*
X3620Y1358D01*
X0Y1357D02*
X7Y1357D01*
X3370Y1357D02*
X3376Y1357D01*
X3391Y1357D02*
X3398Y1357D01*
X3434Y1357D02*
X3440Y1357D01*
X3447Y1357D02*
X3453Y1357D01*
X3613Y1357D02*
X3620Y1357D01*
X0Y1356D02*
X7Y1356D01*
X3370Y1356D02*
X3376Y1356D01*
X3391Y1356D02*
X3399Y1356D01*
X3434Y1356D02*
X3440Y1356D01*
X3447Y1356D02*
X3453Y1356D01*
X3613Y1356D02*
X3620Y1356D01*
X0Y1355D02*
X7Y1355D01*
X3370Y1355D02*
X3376Y1355D01*
X3392Y1355D02*
X3399Y1355D01*
X3434Y1355D02*
X3440Y1355D01*
X3447Y1355D02*
X3453Y1355D01*
X3613Y1355D02*
X3620Y1355D01*
X0Y1354D02*
X7Y1354D01*
X3370Y1354D02*
X3376Y1354D01*
X3393Y1354D02*
X3400Y1354D01*
X3434Y1354D02*
X3440Y1354D01*
X3447Y1354D02*
X3453Y1354D01*
X3613Y1354D02*
X3620Y1354D01*
X0Y1353D02*
X7Y1353D01*
X3370Y1353D02*
X3376Y1353D01*
X3393Y1353D02*
X3400Y1353D01*
X3434Y1353D02*
X3440Y1353D01*
X3447Y1353D02*
X3453Y1353D01*
X3613Y1353D02*
X3620Y1353D01*
X0Y1352D02*
X7Y1352D01*
X3370Y1352D02*
X3376Y1352D01*
X3394Y1352D02*
X3401Y1352D01*
X3434Y1352D02*
X3440Y1352D01*
X3447Y1352D02*
X3453Y1352D01*
X3613Y1352D02*
X3620Y1352D01*
X0Y1351D02*
X7Y1351D01*
X3370Y1351D02*
X3376Y1351D01*
X3394Y1351D02*
X3402Y1351D01*
X3434Y1351D02*
X3440Y1351D01*
X3447Y1351D02*
X3453Y1351D01*
X3613Y1351D02*
X3620Y1351D01*
X0Y1350D02*
X7Y1350D01*
X3370Y1350D02*
X3376Y1350D01*
X3395Y1350D02*
X3402Y1350D01*
X3421Y1350D02*
X3453Y1350D01*
X3613Y1350D02*
X3620Y1350D01*
X0Y1349D02*
X7Y1349D01*
X3370Y1349D02*
X3376Y1349D01*
X3396Y1349D02*
X3403Y1349D01*
X3420Y1349D02*
X3453Y1349D01*
X3613Y1349D02*
X3620Y1349D01*
X0Y1348D02*
X7Y1348D01*
X3370Y1348D02*
X3376Y1348D01*
X3396Y1348D02*
X3403Y1348D01*
X3420Y1348D02*
X3453Y1348D01*
X3613Y1348D02*
X3620Y1348D01*
X0Y1347D02*
X7Y1347D01*
X3370Y1347D02*
X3376Y1347D01*
X3397Y1347D02*
X3403Y1347D01*
X3420Y1347D02*
X3453Y1347D01*
X3613Y1347D02*
X3620Y1347D01*
X0Y1346D02*
X7Y1346D01*
X3370Y1346D02*
X3375Y1346D01*
X3397Y1346D02*
X3403Y1346D01*
X3420Y1346D02*
X3453Y1346D01*
X3613Y1346D02*
X3620Y1346D01*
X0Y1345D02*
X7Y1345D01*
X3370Y1345D02*
X3375Y1345D01*
X3398Y1345D02*
X3402Y1345D01*
X3421Y1345D02*
X3453Y1345D01*
X3613Y1345D02*
X3620Y1345D01*
X0Y1344D02*
X7Y1344D01*
X3372Y1344D02*
X3374Y1344D01*
X3399Y1344D02*
X3401Y1344D01*
X3422Y1344D02*
X3451Y1344D01*
X3613Y1344D02*
X3620Y1344D01*
X0Y1343D02*
X7Y1343D01*
X3613Y1343D02*
X3620Y1343D01*
X0Y1342D02*
X7Y1342D01*
X3613Y1342D02*
X3620Y1342D01*
X0Y1341D02*
X7Y1341D01*
X3613Y1341D02*
X3620Y1341D01*
X0Y1340D02*
X7Y1340D01*
X3613Y1340D02*
X3620Y1340D01*
X0Y1339D02*
X7Y1339D01*
X3613Y1339D02*
X3620Y1339D01*
X0Y1338D02*
X7Y1338D01*
X3613Y1338D02*
X3620Y1338D01*
X0Y1337D02*
X7Y1337D01*
X3613Y1337D02*
X3620Y1337D01*
X0Y1336D02*
X7Y1336D01*
X3613Y1336D02*
X3620Y1336D01*
X0Y1335D02*
X7Y1335D01*
X3613Y1335D02*
X3620Y1335D01*
X0Y1334D02*
X7Y1334D01*
X3613Y1334D02*
X3620Y1334D01*
X0Y1333D02*
X7Y1333D01*
X3613Y1333D02*
X3620Y1333D01*
X0Y1332D02*
X7Y1332D01*
X3613Y1332D02*
X3620Y1332D01*
X0Y1331D02*
X7Y1331D01*
X3613Y1331D02*
X3620Y1331D01*
X0Y1330D02*
X7Y1330D01*
X3613Y1330D02*
X3620Y1330D01*
X0Y1329D02*
X7Y1329D01*
X3613Y1329D02*
X3620Y1329D01*
X0Y1328D02*
X7Y1328D01*
X3613Y1328D02*
X3620Y1328D01*
X0Y1327D02*
X7Y1327D01*
X3613Y1327D02*
X3620Y1327D01*
X0Y1326D02*
X7Y1326D01*
X3613Y1326D02*
X3620Y1326D01*
X0Y1325D02*
X7Y1325D01*
X3613Y1325D02*
X3620Y1325D01*
X0Y1324D02*
X7Y1324D01*
X3613Y1324D02*
X3620Y1324D01*
X0Y1323D02*
X7Y1323D01*
X3613Y1323D02*
X3620Y1323D01*
X0Y1322D02*
X7Y1322D01*
X3613Y1322D02*
X3620Y1322D01*
X0Y1321D02*
X7Y1321D01*
X3613Y1321D02*
X3620Y1321D01*
X0Y1320D02*
X7Y1320D01*
X3613Y1320D02*
X3620Y1320D01*
X0Y1319D02*
X7Y1319D01*
X3613Y1319D02*
X3620Y1319D01*
X0Y1318D02*
X7Y1318D01*
X3613Y1318D02*
X3620Y1318D01*
X0Y1317D02*
X7Y1317D01*
X3613Y1317D02*
X3620Y1317D01*
X0Y1316D02*
X7Y1316D01*
X3613Y1316D02*
X3620Y1316D01*
X0Y1315D02*
X7Y1315D01*
X3613Y1315D02*
X3620Y1315D01*
X0Y1314D02*
X7Y1314D01*
X3613Y1314D02*
X3620Y1314D01*
X0Y1313D02*
X7Y1313D01*
X3613Y1313D02*
X3620Y1313D01*
X0Y1312D02*
X7Y1312D01*
X3613Y1312D02*
X3620Y1312D01*
X0Y1311D02*
X7Y1311D01*
X3613Y1311D02*
X3620Y1311D01*
X0Y1310D02*
X7Y1310D01*
X3613Y1310D02*
X3620Y1310D01*
X0Y1309D02*
X7Y1309D01*
X3613Y1309D02*
X3620Y1309D01*
X0Y1308D02*
X7Y1308D01*
X3613Y1308D02*
X3620Y1308D01*
X0Y1307D02*
X7Y1307D01*
X3613Y1307D02*
X3620Y1307D01*
X0Y1306D02*
X7Y1306D01*
X3613Y1306D02*
X3620Y1306D01*
X0Y1305D02*
X7Y1305D01*
X3613Y1305D02*
X3620Y1305D01*
X0Y1304D02*
X7Y1304D01*
X3613Y1304D02*
X3620Y1304D01*
X0Y1303D02*
X7Y1303D01*
X3613Y1303D02*
X3620Y1303D01*
X0Y1302D02*
X7Y1302D01*
X3613Y1302D02*
X3620Y1302D01*
X0Y1301D02*
X7Y1301D01*
X3613Y1301D02*
X3620Y1301D01*
X0Y1300D02*
X7Y1300D01*
X3613Y1300D02*
X3620Y1300D01*
X0Y1299D02*
X7Y1299D01*
X3613Y1299D02*
X3620Y1299D01*
X0Y1298D02*
X7Y1298D01*
X3613Y1298D02*
X3620Y1298D01*
X0Y1297D02*
X7Y1297D01*
X3613Y1297D02*
X3620Y1297D01*
X0Y1296D02*
X7Y1296D01*
X3613Y1296D02*
X3620Y1296D01*
X0Y1295D02*
X7Y1295D01*
X3613Y1295D02*
X3620Y1295D01*
X0Y1294D02*
X7Y1294D01*
X3613Y1294D02*
X3620Y1294D01*
X0Y1293D02*
X7Y1293D01*
X3613Y1293D02*
X3620Y1293D01*
X0Y1292D02*
X7Y1292D01*
X3613Y1292D02*
X3620Y1292D01*
X0Y1291D02*
X7Y1291D01*
X3613Y1291D02*
X3620Y1291D01*
X0Y1290D02*
X7Y1290D01*
X3613Y1290D02*
X3620Y1290D01*
X0Y1289D02*
X7Y1289D01*
X3613Y1289D02*
X3620Y1289D01*
X0Y1288D02*
X7Y1288D01*
X3613Y1288D02*
X3620Y1288D01*
X0Y1287D02*
X7Y1287D01*
X3613Y1287D02*
X3620Y1287D01*
X0Y1286D02*
X7Y1286D01*
X3613Y1286D02*
X3620Y1286D01*
X0Y1285D02*
X7Y1285D01*
X3613Y1285D02*
X3620Y1285D01*
X0Y1284D02*
X7Y1284D01*
X3613Y1284D02*
X3620Y1284D01*
X0Y1283D02*
X7Y1283D01*
X3613Y1283D02*
X3620Y1283D01*
X0Y1282D02*
X7Y1282D01*
X3613Y1282D02*
X3620Y1282D01*
X0Y1281D02*
X7Y1281D01*
X3613Y1281D02*
X3620Y1281D01*
X0Y1280D02*
X7Y1280D01*
X3613Y1280D02*
X3620Y1280D01*
X0Y1279D02*
X7Y1279D01*
X3613Y1279D02*
X3620Y1279D01*
X0Y1278D02*
X7Y1278D01*
X3613Y1278D02*
X3620Y1278D01*
X0Y1277D02*
X7Y1277D01*
X3613Y1277D02*
X3620Y1277D01*
X0Y1276D02*
X7Y1276D01*
X3613Y1276D02*
X3620Y1276D01*
X0Y1275D02*
X7Y1275D01*
X3613Y1275D02*
X3620Y1275D01*
X0Y1274D02*
X7Y1274D01*
X3613Y1274D02*
X3620Y1274D01*
X0Y1273D02*
X7Y1273D01*
X3613Y1273D02*
X3620Y1273D01*
X0Y1272D02*
X7Y1272D01*
X3613Y1272D02*
X3620Y1272D01*
X0Y1271D02*
X7Y1271D01*
X3613Y1271D02*
X3620Y1271D01*
X0Y1270D02*
X7Y1270D01*
X3613Y1270D02*
X3620Y1270D01*
X0Y1269D02*
X7Y1269D01*
X3613Y1269D02*
X3620Y1269D01*
X0Y1268D02*
X7Y1268D01*
X3613Y1268D02*
X3620Y1268D01*
X0Y1267D02*
X7Y1267D01*
X3613Y1267D02*
X3620Y1267D01*
X0Y1266D02*
X7Y1266D01*
X3613Y1266D02*
X3620Y1266D01*
X0Y1265D02*
X7Y1265D01*
X3613Y1265D02*
X3620Y1265D01*
X0Y1264D02*
X7Y1264D01*
X3613Y1264D02*
X3620Y1264D01*
X0Y1263D02*
X7Y1263D01*
X3613Y1263D02*
X3620Y1263D01*
X0Y1262D02*
X7Y1262D01*
X3613Y1262D02*
X3620Y1262D01*
X0Y1261D02*
X7Y1261D01*
X3613Y1261D02*
X3620Y1261D01*
X0Y1260D02*
X7Y1260D01*
X3613Y1260D02*
X3620Y1260D01*
X0Y1259D02*
X7Y1259D01*
X3613Y1259D02*
X3620Y1259D01*
X0Y1258D02*
X7Y1258D01*
X3613Y1258D02*
X3620Y1258D01*
X0Y1257D02*
X7Y1257D01*
X3613Y1257D02*
X3620Y1257D01*
X0Y1256D02*
X7Y1256D01*
X3613Y1256D02*
X3620Y1256D01*
X0Y1255D02*
X7Y1255D01*
X3613Y1255D02*
X3620Y1255D01*
X0Y1254D02*
X7Y1254D01*
X3613Y1254D02*
X3620Y1254D01*
X0Y1253D02*
X7Y1253D01*
X3613Y1253D02*
X3620Y1253D01*
X0Y1252D02*
X7Y1252D01*
X3613Y1252D02*
X3620Y1252D01*
X0Y1251D02*
X7Y1251D01*
X3613Y1251D02*
X3620Y1251D01*
X0Y1250D02*
X7Y1250D01*
X3613Y1250D02*
X3620Y1250D01*
X0Y1249D02*
X7Y1249D01*
X3613Y1249D02*
X3620Y1249D01*
X0Y1248D02*
X7Y1248D01*
X3613Y1248D02*
X3620Y1248D01*
X0Y1247D02*
X7Y1247D01*
X3613Y1247D02*
X3620Y1247D01*
X0Y1246D02*
X7Y1246D01*
X3613Y1246D02*
X3620Y1246D01*
X0Y1245D02*
X7Y1245D01*
X3613Y1245D02*
X3620Y1245D01*
X0Y1244D02*
X7Y1244D01*
X3613Y1244D02*
X3620Y1244D01*
X0Y1243D02*
X7Y1243D01*
X3613Y1243D02*
X3620Y1243D01*
X0Y1242D02*
X7Y1242D01*
X3613Y1242D02*
X3620Y1242D01*
X0Y1241D02*
X7Y1241D01*
X3613Y1241D02*
X3620Y1241D01*
X0Y1240D02*
X7Y1240D01*
X3613Y1240D02*
X3620Y1240D01*
X0Y1239D02*
X7Y1239D01*
X3613Y1239D02*
X3620Y1239D01*
X0Y1238D02*
X7Y1238D01*
X3613Y1238D02*
X3620Y1238D01*
X0Y1237D02*
X7Y1237D01*
X3613Y1237D02*
X3620Y1237D01*
X0Y1236D02*
X7Y1236D01*
X3613Y1236D02*
X3620Y1236D01*
X0Y1235D02*
X7Y1235D01*
X3613Y1235D02*
X3620Y1235D01*
X0Y1234D02*
X7Y1234D01*
X3613Y1234D02*
X3620Y1234D01*
X0Y1233D02*
X7Y1233D01*
X3613Y1233D02*
X3620Y1233D01*
X0Y1232D02*
X7Y1232D01*
X3613Y1232D02*
X3620Y1232D01*
X0Y1231D02*
X7Y1231D01*
X3613Y1231D02*
X3620Y1231D01*
X0Y1230D02*
X7Y1230D01*
X3613Y1230D02*
X3620Y1230D01*
X0Y1229D02*
X7Y1229D01*
X3613Y1229D02*
X3620Y1229D01*
X0Y1228D02*
X7Y1228D01*
X3613Y1228D02*
X3620Y1228D01*
X0Y1227D02*
X7Y1227D01*
X3613Y1227D02*
X3620Y1227D01*
X0Y1226D02*
X7Y1226D01*
X3613Y1226D02*
X3620Y1226D01*
X0Y1225D02*
X7Y1225D01*
X3613Y1225D02*
X3620Y1225D01*
X0Y1224D02*
X7Y1224D01*
X3613Y1224D02*
X3620Y1224D01*
X0Y1223D02*
X7Y1223D01*
X3613Y1223D02*
X3620Y1223D01*
X0Y1222D02*
X7Y1222D01*
X3613Y1222D02*
X3620Y1222D01*
X0Y1221D02*
X7Y1221D01*
X3613Y1221D02*
X3620Y1221D01*
X0Y1220D02*
X7Y1220D01*
X3613Y1220D02*
X3620Y1220D01*
X0Y1219D02*
X7Y1219D01*
X3613Y1219D02*
X3620Y1219D01*
X0Y1218D02*
X7Y1218D01*
X3613Y1218D02*
X3620Y1218D01*
X0Y1217D02*
X7Y1217D01*
X3613Y1217D02*
X3620Y1217D01*
X0Y1216D02*
X7Y1216D01*
X3613Y1216D02*
X3620Y1216D01*
X0Y1215D02*
X7Y1215D01*
X3613Y1215D02*
X3620Y1215D01*
X0Y1214D02*
X7Y1214D01*
X3613Y1214D02*
X3620Y1214D01*
X0Y1213D02*
X7Y1213D01*
X3613Y1213D02*
X3620Y1213D01*
X0Y1212D02*
X7Y1212D01*
X3613Y1212D02*
X3620Y1212D01*
X0Y1211D02*
X7Y1211D01*
X3613Y1211D02*
X3620Y1211D01*
X0Y1210D02*
X7Y1210D01*
X3613Y1210D02*
X3620Y1210D01*
X0Y1209D02*
X7Y1209D01*
X3613Y1209D02*
X3620Y1209D01*
X0Y1208D02*
X7Y1208D01*
X3613Y1208D02*
X3620Y1208D01*
X0Y1207D02*
X7Y1207D01*
X3613Y1207D02*
X3620Y1207D01*
X0Y1206D02*
X7Y1206D01*
X3613Y1206D02*
X3620Y1206D01*
X0Y1205D02*
X7Y1205D01*
X3613Y1205D02*
X3620Y1205D01*
X0Y1204D02*
X7Y1204D01*
X3613Y1204D02*
X3620Y1204D01*
X0Y1203D02*
X7Y1203D01*
X3613Y1203D02*
X3620Y1203D01*
X0Y1202D02*
X7Y1202D01*
X3613Y1202D02*
X3620Y1202D01*
X0Y1201D02*
X7Y1201D01*
X3613Y1201D02*
X3620Y1201D01*
X0Y1200D02*
X7Y1200D01*
X3613Y1200D02*
X3620Y1200D01*
X0Y1199D02*
X7Y1199D01*
X3613Y1199D02*
X3620Y1199D01*
X0Y1198D02*
X7Y1198D01*
X3613Y1198D02*
X3620Y1198D01*
X0Y1197D02*
X7Y1197D01*
X3613Y1197D02*
X3620Y1197D01*
X0Y1196D02*
X7Y1196D01*
X3613Y1196D02*
X3620Y1196D01*
X0Y1195D02*
X7Y1195D01*
X3613Y1195D02*
X3620Y1195D01*
X0Y1194D02*
X7Y1194D01*
X3613Y1194D02*
X3620Y1194D01*
X0Y1193D02*
X7Y1193D01*
X3613Y1193D02*
X3620Y1193D01*
X0Y1192D02*
X7Y1192D01*
X3613Y1192D02*
X3620Y1192D01*
X0Y1191D02*
X7Y1191D01*
X3613Y1191D02*
X3620Y1191D01*
X0Y1190D02*
X7Y1190D01*
X3613Y1190D02*
X3620Y1190D01*
X0Y1189D02*
X7Y1189D01*
X3613Y1189D02*
X3620Y1189D01*
X0Y1188D02*
X7Y1188D01*
X3613Y1188D02*
X3620Y1188D01*
X0Y1187D02*
X7Y1187D01*
X3613Y1187D02*
X3620Y1187D01*
X0Y1186D02*
X25Y1186D01*
X49Y1186D02*
X76Y1186D01*
X98Y1186D02*
X101Y1186D01*
X3613Y1186D02*
X3620Y1186D01*
X0Y1185D02*
X26Y1185D01*
X48Y1185D02*
X76Y1185D01*
X97Y1185D02*
X102Y1185D01*
X3613Y1185D02*
X3620Y1185D01*
X0Y1184D02*
X26Y1184D01*
X46Y1184D02*
X76Y1184D01*
X96Y1184D02*
X102Y1184D01*
X1384Y1184D02*
X1409Y1184D01*
X1436Y1184D02*
X1463Y1184D01*
X3056Y1184D02*
X3082Y1184D01*
X3108Y1184D02*
X3135Y1184D01*
X3613Y1184D02*
X3620Y1184D01*
X0Y1183D02*
X26Y1183D01*
X45Y1183D02*
X76Y1183D01*
X96Y1183D02*
X102Y1183D01*
X1383Y1183D02*
X1412Y1183D01*
X1434Y1183D02*
X1464Y1183D01*
X3056Y1183D02*
X3085Y1183D01*
X3107Y1183D02*
X3137Y1183D01*
X3613Y1183D02*
X3620Y1183D01*
X0Y1182D02*
X26Y1182D01*
X44Y1182D02*
X76Y1182D01*
X96Y1182D02*
X102Y1182D01*
X1383Y1182D02*
X1413Y1182D01*
X1434Y1182D02*
X1465Y1182D01*
X3056Y1182D02*
X3086Y1182D01*
X3107Y1182D02*
X3138Y1182D01*
X3613Y1182D02*
X3620Y1182D01*
X0Y1181D02*
X25Y1181D01*
X44Y1181D02*
X76Y1181D01*
X96Y1181D02*
X102Y1181D01*
X1383Y1181D02*
X1414Y1181D01*
X1434Y1181D02*
X1466Y1181D01*
X3056Y1181D02*
X3087Y1181D01*
X3107Y1181D02*
X3139Y1181D01*
X3613Y1181D02*
X3620Y1181D01*
X0Y1180D02*
X24Y1180D01*
X43Y1180D02*
X76Y1180D01*
X96Y1180D02*
X102Y1180D01*
X1383Y1180D02*
X1415Y1180D01*
X1434Y1180D02*
X1467Y1180D01*
X3056Y1180D02*
X3088Y1180D01*
X3107Y1180D02*
X3140Y1180D01*
X3613Y1180D02*
X3620Y1180D01*
X0Y1179D02*
X12Y1179D01*
X43Y1179D02*
X50Y1179D01*
X70Y1179D02*
X76Y1179D01*
X96Y1179D02*
X102Y1179D01*
X1383Y1179D02*
X1416Y1179D01*
X1434Y1179D02*
X1467Y1179D01*
X3056Y1179D02*
X3089Y1179D01*
X3107Y1179D02*
X3140Y1179D01*
X3613Y1179D02*
X3620Y1179D01*
X0Y1178D02*
X12Y1178D01*
X43Y1178D02*
X49Y1178D01*
X70Y1178D02*
X76Y1178D01*
X96Y1178D02*
X102Y1178D01*
X1383Y1178D02*
X1416Y1178D01*
X1435Y1178D02*
X1467Y1178D01*
X3056Y1178D02*
X3089Y1178D01*
X3108Y1178D02*
X3140Y1178D01*
X3613Y1178D02*
X3620Y1178D01*
X0Y1177D02*
X12Y1177D01*
X43Y1177D02*
X49Y1177D01*
X70Y1177D02*
X76Y1177D01*
X96Y1177D02*
X102Y1177D01*
X1383Y1177D02*
X1390Y1177D01*
X1409Y1177D02*
X1417Y1177D01*
X1461Y1177D02*
X1467Y1177D01*
X3056Y1177D02*
X3062Y1177D01*
X3082Y1177D02*
X3089Y1177D01*
X3134Y1177D02*
X3140Y1177D01*
X3613Y1177D02*
X3620Y1177D01*
X0Y1176D02*
X12Y1176D01*
X43Y1176D02*
X49Y1176D01*
X70Y1176D02*
X76Y1176D01*
X96Y1176D02*
X102Y1176D01*
X1383Y1176D02*
X1390Y1176D01*
X1410Y1176D02*
X1417Y1176D01*
X1461Y1176D02*
X1467Y1176D01*
X3056Y1176D02*
X3062Y1176D01*
X3083Y1176D02*
X3090Y1176D01*
X3134Y1176D02*
X3140Y1176D01*
X3613Y1176D02*
X3620Y1176D01*
X0Y1175D02*
X12Y1175D01*
X43Y1175D02*
X49Y1175D01*
X70Y1175D02*
X76Y1175D01*
X96Y1175D02*
X102Y1175D01*
X1383Y1175D02*
X1390Y1175D01*
X1411Y1175D02*
X1417Y1175D01*
X1461Y1175D02*
X1467Y1175D01*
X3056Y1175D02*
X3062Y1175D01*
X3084Y1175D02*
X3090Y1175D01*
X3134Y1175D02*
X3140Y1175D01*
X3613Y1175D02*
X3620Y1175D01*
X0Y1174D02*
X12Y1174D01*
X43Y1174D02*
X49Y1174D01*
X70Y1174D02*
X76Y1174D01*
X96Y1174D02*
X102Y1174D01*
X1383Y1174D02*
X1390Y1174D01*
X1411Y1174D02*
X1417Y1174D01*
X1461Y1174D02*
X1467Y1174D01*
X3056Y1174D02*
X3062Y1174D01*
X3084Y1174D02*
X3090Y1174D01*
X3134Y1174D02*
X3140Y1174D01*
X3613Y1174D02*
X3620Y1174D01*
X0Y1173D02*
X12Y1173D01*
X43Y1173D02*
X49Y1173D01*
X70Y1173D02*
X76Y1173D01*
X96Y1173D02*
X102Y1173D01*
X1383Y1173D02*
X1390Y1173D01*
X1411Y1173D02*
X1417Y1173D01*
X1461Y1173D02*
X1467Y1173D01*
X3056Y1173D02*
X3062Y1173D01*
X3084Y1173D02*
X3090Y1173D01*
X3134Y1173D02*
X3140Y1173D01*
X3613Y1173D02*
X3620Y1173D01*
X0Y1172D02*
X12Y1172D01*
X43Y1172D02*
X49Y1172D01*
X70Y1172D02*
X76Y1172D01*
X96Y1172D02*
X102Y1172D01*
X1383Y1172D02*
X1390Y1172D01*
X1411Y1172D02*
X1417Y1172D01*
X1461Y1172D02*
X1467Y1172D01*
X3056Y1172D02*
X3062Y1172D01*
X3084Y1172D02*
X3090Y1172D01*
X3134Y1172D02*
X3140Y1172D01*
X3613Y1172D02*
X3620Y1172D01*
X0Y1171D02*
X12Y1171D01*
X43Y1171D02*
X49Y1171D01*
X70Y1171D02*
X76Y1171D01*
X96Y1171D02*
X102Y1171D01*
X1383Y1171D02*
X1390Y1171D01*
X1411Y1171D02*
X1417Y1171D01*
X1461Y1171D02*
X1467Y1171D01*
X3056Y1171D02*
X3062Y1171D01*
X3084Y1171D02*
X3090Y1171D01*
X3134Y1171D02*
X3140Y1171D01*
X3613Y1171D02*
X3620Y1171D01*
X0Y1170D02*
X12Y1170D01*
X43Y1170D02*
X49Y1170D01*
X70Y1170D02*
X76Y1170D01*
X96Y1170D02*
X102Y1170D01*
X1383Y1170D02*
X1390Y1170D01*
X1411Y1170D02*
X1417Y1170D01*
X1461Y1170D02*
X1467Y1170D01*
X3056Y1170D02*
X3062Y1170D01*
X3084Y1170D02*
X3090Y1170D01*
X3134Y1170D02*
X3140Y1170D01*
X3613Y1170D02*
X3620Y1170D01*
X0Y1169D02*
X12Y1169D01*
X43Y1169D02*
X49Y1169D01*
X70Y1169D02*
X76Y1169D01*
X96Y1169D02*
X102Y1169D01*
X1383Y1169D02*
X1390Y1169D01*
X1411Y1169D02*
X1417Y1169D01*
X1461Y1169D02*
X1467Y1169D01*
X3056Y1169D02*
X3062Y1169D01*
X3084Y1169D02*
X3090Y1169D01*
X3134Y1169D02*
X3140Y1169D01*
X3613Y1169D02*
X3620Y1169D01*
X0Y1168D02*
X12Y1168D01*
X43Y1168D02*
X49Y1168D01*
X70Y1168D02*
X76Y1168D01*
X96Y1168D02*
X102Y1168D01*
X1383Y1168D02*
X1390Y1168D01*
X1410Y1168D02*
X1417Y1168D01*
X1461Y1168D02*
X1467Y1168D01*
X3056Y1168D02*
X3062Y1168D01*
X3083Y1168D02*
X3090Y1168D01*
X3134Y1168D02*
X3140Y1168D01*
X3613Y1168D02*
X3620Y1168D01*
X0Y1167D02*
X12Y1167D01*
X43Y1167D02*
X49Y1167D01*
X70Y1167D02*
X76Y1167D01*
X96Y1167D02*
X102Y1167D01*
X1383Y1167D02*
X1390Y1167D01*
X1409Y1167D02*
X1416Y1167D01*
X1461Y1167D02*
X1467Y1167D01*
X3056Y1167D02*
X3062Y1167D01*
X3082Y1167D02*
X3089Y1167D01*
X3134Y1167D02*
X3140Y1167D01*
X3613Y1167D02*
X3620Y1167D01*
X0Y1166D02*
X12Y1166D01*
X43Y1166D02*
X49Y1166D01*
X70Y1166D02*
X76Y1166D01*
X96Y1166D02*
X102Y1166D01*
X1383Y1166D02*
X1416Y1166D01*
X1461Y1166D02*
X1467Y1166D01*
X3056Y1166D02*
X3089Y1166D01*
X3134Y1166D02*
X3140Y1166D01*
X3613Y1166D02*
X3620Y1166D01*
X0Y1165D02*
X12Y1165D01*
X43Y1165D02*
X49Y1165D01*
X70Y1165D02*
X76Y1165D01*
X96Y1165D02*
X102Y1165D01*
X1383Y1165D02*
X1416Y1165D01*
X1461Y1165D02*
X1467Y1165D01*
X3056Y1165D02*
X3088Y1165D01*
X3134Y1165D02*
X3140Y1165D01*
X3613Y1165D02*
X3620Y1165D01*
X0Y1164D02*
X12Y1164D01*
X43Y1164D02*
X49Y1164D01*
X70Y1164D02*
X76Y1164D01*
X96Y1164D02*
X102Y1164D01*
X1383Y1164D02*
X1415Y1164D01*
X1461Y1164D02*
X1467Y1164D01*
X3056Y1164D02*
X3088Y1164D01*
X3134Y1164D02*
X3140Y1164D01*
X3613Y1164D02*
X3620Y1164D01*
X0Y1163D02*
X12Y1163D01*
X43Y1163D02*
X49Y1163D01*
X70Y1163D02*
X76Y1163D01*
X96Y1163D02*
X102Y1163D01*
X1383Y1163D02*
X1414Y1163D01*
X1461Y1163D02*
X1467Y1163D01*
X3056Y1163D02*
X3087Y1163D01*
X3134Y1163D02*
X3140Y1163D01*
X3613Y1163D02*
X3620Y1163D01*
X0Y1162D02*
X12Y1162D01*
X43Y1162D02*
X49Y1162D01*
X70Y1162D02*
X76Y1162D01*
X96Y1162D02*
X102Y1162D01*
X1383Y1162D02*
X1413Y1162D01*
X1460Y1162D02*
X1467Y1162D01*
X3056Y1162D02*
X3086Y1162D01*
X3134Y1162D02*
X3140Y1162D01*
X3613Y1162D02*
X3620Y1162D01*
X0Y1161D02*
X12Y1161D01*
X43Y1161D02*
X50Y1161D01*
X70Y1161D02*
X76Y1161D01*
X96Y1161D02*
X102Y1161D01*
X1383Y1161D02*
X1411Y1161D01*
X1458Y1161D02*
X1467Y1161D01*
X3056Y1161D02*
X3084Y1161D01*
X3134Y1161D02*
X3140Y1161D01*
X3613Y1161D02*
X3620Y1161D01*
X0Y1160D02*
X12Y1160D01*
X43Y1160D02*
X76Y1160D01*
X96Y1160D02*
X102Y1160D01*
X1383Y1160D02*
X1409Y1160D01*
X1442Y1160D02*
X1466Y1160D01*
X3056Y1160D02*
X3082Y1160D01*
X3110Y1160D02*
X3140Y1160D01*
X3613Y1160D02*
X3620Y1160D01*
X0Y1159D02*
X12Y1159D01*
X44Y1159D02*
X76Y1159D01*
X96Y1159D02*
X102Y1159D01*
X1383Y1159D02*
X1390Y1159D01*
X1396Y1159D02*
X1403Y1159D01*
X1441Y1159D02*
X1466Y1159D01*
X3056Y1159D02*
X3062Y1159D01*
X3069Y1159D02*
X3076Y1159D01*
X3109Y1159D02*
X3140Y1159D01*
X3613Y1159D02*
X3620Y1159D01*
X0Y1158D02*
X12Y1158D01*
X44Y1158D02*
X76Y1158D01*
X96Y1158D02*
X102Y1158D01*
X1383Y1158D02*
X1390Y1158D01*
X1396Y1158D02*
X1403Y1158D01*
X1441Y1158D02*
X1465Y1158D01*
X3056Y1158D02*
X3062Y1158D01*
X3069Y1158D02*
X3076Y1158D01*
X3108Y1158D02*
X3139Y1158D01*
X3613Y1158D02*
X3620Y1158D01*
X0Y1157D02*
X12Y1157D01*
X45Y1157D02*
X76Y1157D01*
X96Y1157D02*
X102Y1157D01*
X119Y1157D02*
X121Y1157D01*
X1383Y1157D02*
X1390Y1157D01*
X1397Y1157D02*
X1404Y1157D01*
X1441Y1157D02*
X1465Y1157D01*
X3056Y1157D02*
X3062Y1157D01*
X3070Y1157D02*
X3077Y1157D01*
X3107Y1157D02*
X3139Y1157D01*
X3613Y1157D02*
X3620Y1157D01*
X0Y1156D02*
X12Y1156D01*
X46Y1156D02*
X76Y1156D01*
X96Y1156D02*
X102Y1156D01*
X118Y1156D02*
X122Y1156D01*
X1383Y1156D02*
X1390Y1156D01*
X1397Y1156D02*
X1405Y1156D01*
X1441Y1156D02*
X1466Y1156D01*
X3056Y1156D02*
X3062Y1156D01*
X3070Y1156D02*
X3078Y1156D01*
X3107Y1156D02*
X3138Y1156D01*
X3613Y1156D02*
X3620Y1156D01*
X0Y1155D02*
X12Y1155D01*
X47Y1155D02*
X76Y1155D01*
X96Y1155D02*
X102Y1155D01*
X117Y1155D02*
X123Y1155D01*
X1383Y1155D02*
X1390Y1155D01*
X1398Y1155D02*
X1405Y1155D01*
X1442Y1155D02*
X1466Y1155D01*
X3056Y1155D02*
X3062Y1155D01*
X3071Y1155D02*
X3078Y1155D01*
X3107Y1155D02*
X3137Y1155D01*
X3613Y1155D02*
X3620Y1155D01*
X0Y1154D02*
X12Y1154D01*
X49Y1154D02*
X76Y1154D01*
X96Y1154D02*
X102Y1154D01*
X117Y1154D02*
X123Y1154D01*
X1383Y1154D02*
X1390Y1154D01*
X1399Y1154D02*
X1406Y1154D01*
X1443Y1154D02*
X1467Y1154D01*
X3056Y1154D02*
X3062Y1154D01*
X3071Y1154D02*
X3079Y1154D01*
X3107Y1154D02*
X3134Y1154D01*
X3613Y1154D02*
X3620Y1154D01*
X0Y1153D02*
X12Y1153D01*
X70Y1153D02*
X76Y1153D01*
X96Y1153D02*
X102Y1153D01*
X117Y1153D02*
X123Y1153D01*
X1383Y1153D02*
X1390Y1153D01*
X1399Y1153D02*
X1406Y1153D01*
X1460Y1153D02*
X1467Y1153D01*
X3056Y1153D02*
X3062Y1153D01*
X3072Y1153D02*
X3079Y1153D01*
X3107Y1153D02*
X3113Y1153D01*
X3613Y1153D02*
X3620Y1153D01*
X0Y1152D02*
X12Y1152D01*
X70Y1152D02*
X76Y1152D01*
X96Y1152D02*
X102Y1152D01*
X117Y1152D02*
X123Y1152D01*
X1383Y1152D02*
X1390Y1152D01*
X1400Y1152D02*
X1407Y1152D01*
X1461Y1152D02*
X1467Y1152D01*
X3056Y1152D02*
X3062Y1152D01*
X3073Y1152D02*
X3080Y1152D01*
X3107Y1152D02*
X3113Y1152D01*
X3613Y1152D02*
X3620Y1152D01*
X0Y1151D02*
X12Y1151D01*
X70Y1151D02*
X76Y1151D01*
X96Y1151D02*
X102Y1151D01*
X117Y1151D02*
X123Y1151D01*
X1383Y1151D02*
X1390Y1151D01*
X1400Y1151D02*
X1408Y1151D01*
X1461Y1151D02*
X1467Y1151D01*
X3056Y1151D02*
X3062Y1151D01*
X3073Y1151D02*
X3080Y1151D01*
X3107Y1151D02*
X3113Y1151D01*
X3613Y1151D02*
X3620Y1151D01*
X0Y1150D02*
X12Y1150D01*
X70Y1150D02*
X76Y1150D01*
X96Y1150D02*
X102Y1150D01*
X117Y1150D02*
X123Y1150D01*
X1383Y1150D02*
X1390Y1150D01*
X1401Y1150D02*
X1408Y1150D01*
X1461Y1150D02*
X1467Y1150D01*
X3056Y1150D02*
X3062Y1150D01*
X3074Y1150D02*
X3081Y1150D01*
X3107Y1150D02*
X3113Y1150D01*
X3613Y1150D02*
X3620Y1150D01*
X0Y1149D02*
X12Y1149D01*
X70Y1149D02*
X76Y1149D01*
X96Y1149D02*
X102Y1149D01*
X117Y1149D02*
X123Y1149D01*
X1383Y1149D02*
X1390Y1149D01*
X1402Y1149D02*
X1409Y1149D01*
X1461Y1149D02*
X1467Y1149D01*
X3056Y1149D02*
X3062Y1149D01*
X3074Y1149D02*
X3082Y1149D01*
X3107Y1149D02*
X3113Y1149D01*
X3613Y1149D02*
X3620Y1149D01*
X0Y1148D02*
X12Y1148D01*
X70Y1148D02*
X76Y1148D01*
X96Y1148D02*
X102Y1148D01*
X117Y1148D02*
X123Y1148D01*
X1383Y1148D02*
X1390Y1148D01*
X1402Y1148D02*
X1409Y1148D01*
X1461Y1148D02*
X1467Y1148D01*
X3056Y1148D02*
X3062Y1148D01*
X3075Y1148D02*
X3082Y1148D01*
X3107Y1148D02*
X3113Y1148D01*
X3613Y1148D02*
X3620Y1148D01*
X0Y1147D02*
X12Y1147D01*
X70Y1147D02*
X76Y1147D01*
X96Y1147D02*
X102Y1147D01*
X117Y1147D02*
X123Y1147D01*
X1383Y1147D02*
X1390Y1147D01*
X1403Y1147D02*
X1410Y1147D01*
X1461Y1147D02*
X1467Y1147D01*
X3056Y1147D02*
X3062Y1147D01*
X3076Y1147D02*
X3083Y1147D01*
X3107Y1147D02*
X3113Y1147D01*
X3613Y1147D02*
X3620Y1147D01*
X0Y1146D02*
X12Y1146D01*
X70Y1146D02*
X76Y1146D01*
X96Y1146D02*
X102Y1146D01*
X117Y1146D02*
X123Y1146D01*
X1383Y1146D02*
X1390Y1146D01*
X1403Y1146D02*
X1410Y1146D01*
X1461Y1146D02*
X1467Y1146D01*
X3056Y1146D02*
X3062Y1146D01*
X3076Y1146D02*
X3083Y1146D01*
X3107Y1146D02*
X3113Y1146D01*
X3613Y1146D02*
X3620Y1146D01*
X0Y1145D02*
X12Y1145D01*
X70Y1145D02*
X76Y1145D01*
X96Y1145D02*
X102Y1145D01*
X117Y1145D02*
X123Y1145D01*
X1383Y1145D02*
X1390Y1145D01*
X1404Y1145D02*
X1411Y1145D01*
X1461Y1145D02*
X1467Y1145D01*
X3056Y1145D02*
X3062Y1145D01*
X3077Y1145D02*
X3084Y1145D01*
X3107Y1145D02*
X3113Y1145D01*
X3613Y1145D02*
X3620Y1145D01*
X0Y1144D02*
X12Y1144D01*
X70Y1144D02*
X76Y1144D01*
X96Y1144D02*
X102Y1144D01*
X117Y1144D02*
X123Y1144D01*
X1383Y1144D02*
X1390Y1144D01*
X1404Y1144D02*
X1412Y1144D01*
X1461Y1144D02*
X1467Y1144D01*
X3056Y1144D02*
X3062Y1144D01*
X3077Y1144D02*
X3085Y1144D01*
X3107Y1144D02*
X3113Y1144D01*
X3613Y1144D02*
X3620Y1144D01*
X0Y1143D02*
X12Y1143D01*
X70Y1143D02*
X76Y1143D01*
X96Y1143D02*
X102Y1143D01*
X117Y1143D02*
X123Y1143D01*
X1383Y1143D02*
X1390Y1143D01*
X1405Y1143D02*
X1412Y1143D01*
X1461Y1143D02*
X1467Y1143D01*
X3056Y1143D02*
X3062Y1143D01*
X3078Y1143D02*
X3085Y1143D01*
X3107Y1143D02*
X3113Y1143D01*
X3613Y1143D02*
X3620Y1143D01*
X0Y1142D02*
X12Y1142D01*
X70Y1142D02*
X76Y1142D01*
X96Y1142D02*
X103Y1142D01*
X117Y1142D02*
X123Y1142D01*
X1383Y1142D02*
X1390Y1142D01*
X1406Y1142D02*
X1413Y1142D01*
X1461Y1142D02*
X1467Y1142D01*
X3056Y1142D02*
X3062Y1142D01*
X3078Y1142D02*
X3086Y1142D01*
X3107Y1142D02*
X3113Y1142D01*
X3613Y1142D02*
X3620Y1142D01*
X0Y1141D02*
X12Y1141D01*
X70Y1141D02*
X76Y1141D01*
X97Y1141D02*
X103Y1141D01*
X116Y1141D02*
X123Y1141D01*
X1383Y1141D02*
X1390Y1141D01*
X1406Y1141D02*
X1413Y1141D01*
X1461Y1141D02*
X1467Y1141D01*
X3056Y1141D02*
X3062Y1141D01*
X3079Y1141D02*
X3086Y1141D01*
X3107Y1141D02*
X3113Y1141D01*
X3613Y1141D02*
X3620Y1141D01*
X0Y1140D02*
X12Y1140D01*
X70Y1140D02*
X76Y1140D01*
X97Y1140D02*
X104Y1140D01*
X115Y1140D02*
X123Y1140D01*
X1383Y1140D02*
X1390Y1140D01*
X1407Y1140D02*
X1414Y1140D01*
X1461Y1140D02*
X1467Y1140D01*
X3056Y1140D02*
X3062Y1140D01*
X3080Y1140D02*
X3087Y1140D01*
X3107Y1140D02*
X3113Y1140D01*
X3613Y1140D02*
X3620Y1140D01*
X0Y1139D02*
X24Y1139D01*
X70Y1139D02*
X76Y1139D01*
X97Y1139D02*
X122Y1139D01*
X1383Y1139D02*
X1390Y1139D01*
X1407Y1139D02*
X1415Y1139D01*
X1461Y1139D02*
X1467Y1139D01*
X3056Y1139D02*
X3062Y1139D01*
X3080Y1139D02*
X3087Y1139D01*
X3107Y1139D02*
X3113Y1139D01*
X3613Y1139D02*
X3620Y1139D01*
X0Y1138D02*
X25Y1138D01*
X70Y1138D02*
X76Y1138D01*
X98Y1138D02*
X122Y1138D01*
X1383Y1138D02*
X1390Y1138D01*
X1408Y1138D02*
X1415Y1138D01*
X1461Y1138D02*
X1467Y1138D01*
X3056Y1138D02*
X3062Y1138D01*
X3081Y1138D02*
X3088Y1138D01*
X3107Y1138D02*
X3113Y1138D01*
X3613Y1138D02*
X3620Y1138D01*
X0Y1137D02*
X26Y1137D01*
X70Y1137D02*
X76Y1137D01*
X98Y1137D02*
X121Y1137D01*
X1383Y1137D02*
X1390Y1137D01*
X1409Y1137D02*
X1416Y1137D01*
X1436Y1137D02*
X1467Y1137D01*
X3056Y1137D02*
X3062Y1137D01*
X3081Y1137D02*
X3089Y1137D01*
X3107Y1137D02*
X3138Y1137D01*
X3613Y1137D02*
X3620Y1137D01*
X0Y1136D02*
X26Y1136D01*
X70Y1136D02*
X76Y1136D01*
X99Y1136D02*
X120Y1136D01*
X1383Y1136D02*
X1390Y1136D01*
X1409Y1136D02*
X1416Y1136D01*
X1435Y1136D02*
X1467Y1136D01*
X3056Y1136D02*
X3062Y1136D01*
X3082Y1136D02*
X3089Y1136D01*
X3107Y1136D02*
X3139Y1136D01*
X3613Y1136D02*
X3620Y1136D01*
X0Y1135D02*
X26Y1135D01*
X70Y1135D02*
X76Y1135D01*
X100Y1135D02*
X119Y1135D01*
X1383Y1135D02*
X1390Y1135D01*
X1410Y1135D02*
X1417Y1135D01*
X1434Y1135D02*
X1467Y1135D01*
X3056Y1135D02*
X3062Y1135D01*
X3083Y1135D02*
X3090Y1135D01*
X3107Y1135D02*
X3140Y1135D01*
X3613Y1135D02*
X3620Y1135D01*
X0Y1134D02*
X25Y1134D01*
X71Y1134D02*
X76Y1134D01*
X102Y1134D02*
X118Y1134D01*
X1383Y1134D02*
X1389Y1134D01*
X1410Y1134D02*
X1417Y1134D01*
X1434Y1134D02*
X1466Y1134D01*
X3056Y1134D02*
X3062Y1134D01*
X3083Y1134D02*
X3090Y1134D01*
X3107Y1134D02*
X3140Y1134D01*
X3613Y1134D02*
X3620Y1134D01*
X0Y1133D02*
X24Y1133D01*
X72Y1133D02*
X74Y1133D01*
X104Y1133D02*
X115Y1133D01*
X1384Y1133D02*
X1389Y1133D01*
X1411Y1133D02*
X1417Y1133D01*
X1434Y1133D02*
X1466Y1133D01*
X3056Y1133D02*
X3062Y1133D01*
X3084Y1133D02*
X3090Y1133D01*
X3107Y1133D02*
X3140Y1133D01*
X3613Y1133D02*
X3620Y1133D01*
X0Y1132D02*
X7Y1132D01*
X1384Y1132D02*
X1389Y1132D01*
X1412Y1132D02*
X1416Y1132D01*
X1434Y1132D02*
X1465Y1132D01*
X3057Y1132D02*
X3062Y1132D01*
X3084Y1132D02*
X3089Y1132D01*
X3107Y1132D02*
X3140Y1132D01*
X3613Y1132D02*
X3620Y1132D01*
X0Y1131D02*
X7Y1131D01*
X1385Y1131D02*
X1388Y1131D01*
X1412Y1131D02*
X1416Y1131D01*
X1435Y1131D02*
X1463Y1131D01*
X3058Y1131D02*
X3061Y1131D01*
X3085Y1131D02*
X3088Y1131D01*
X3107Y1131D02*
X3139Y1131D01*
X3613Y1131D02*
X3620Y1131D01*
X0Y1130D02*
X7Y1130D01*
X3613Y1130D02*
X3620Y1130D01*
X0Y1129D02*
X7Y1129D01*
X3613Y1129D02*
X3620Y1129D01*
X0Y1128D02*
X7Y1128D01*
X3613Y1128D02*
X3620Y1128D01*
X0Y1127D02*
X7Y1127D01*
X3613Y1127D02*
X3620Y1127D01*
X0Y1126D02*
X7Y1126D01*
X3613Y1126D02*
X3620Y1126D01*
X0Y1125D02*
X7Y1125D01*
X3613Y1125D02*
X3620Y1125D01*
X0Y1124D02*
X7Y1124D01*
X3613Y1124D02*
X3620Y1124D01*
X0Y1123D02*
X7Y1123D01*
X3613Y1123D02*
X3620Y1123D01*
X0Y1122D02*
X7Y1122D01*
X3613Y1122D02*
X3620Y1122D01*
X0Y1121D02*
X7Y1121D01*
X3613Y1121D02*
X3620Y1121D01*
X0Y1120D02*
X7Y1120D01*
X3613Y1120D02*
X3620Y1120D01*
X0Y1119D02*
X7Y1119D01*
X3613Y1119D02*
X3620Y1119D01*
X0Y1118D02*
X7Y1118D01*
X3613Y1118D02*
X3620Y1118D01*
X0Y1117D02*
X7Y1117D01*
X3613Y1117D02*
X3620Y1117D01*
X0Y1116D02*
X7Y1116D01*
X3613Y1116D02*
X3620Y1116D01*
X0Y1115D02*
X7Y1115D01*
X3613Y1115D02*
X3620Y1115D01*
X0Y1114D02*
X7Y1114D01*
X3613Y1114D02*
X3620Y1114D01*
X0Y1113D02*
X7Y1113D01*
X3613Y1113D02*
X3620Y1113D01*
X0Y1112D02*
X7Y1112D01*
X3613Y1112D02*
X3620Y1112D01*
X0Y1111D02*
X7Y1111D01*
X3613Y1111D02*
X3620Y1111D01*
X0Y1110D02*
X7Y1110D01*
X3613Y1110D02*
X3620Y1110D01*
X0Y1109D02*
X7Y1109D01*
X3613Y1109D02*
X3620Y1109D01*
X0Y1108D02*
X7Y1108D01*
X3613Y1108D02*
X3620Y1108D01*
X0Y1107D02*
X7Y1107D01*
X3613Y1107D02*
X3620Y1107D01*
X0Y1106D02*
X7Y1106D01*
X3613Y1106D02*
X3620Y1106D01*
X0Y1105D02*
X7Y1105D01*
X3613Y1105D02*
X3620Y1105D01*
X0Y1104D02*
X7Y1104D01*
X3613Y1104D02*
X3620Y1104D01*
X0Y1103D02*
X7Y1103D01*
X3613Y1103D02*
X3620Y1103D01*
X0Y1102D02*
X7Y1102D01*
X3613Y1102D02*
X3620Y1102D01*
X0Y1101D02*
X7Y1101D01*
X3613Y1101D02*
X3620Y1101D01*
X0Y1100D02*
X7Y1100D01*
X3613Y1100D02*
X3620Y1100D01*
X0Y1099D02*
X7Y1099D01*
X3613Y1099D02*
X3620Y1099D01*
X0Y1098D02*
X7Y1098D01*
X3613Y1098D02*
X3620Y1098D01*
X0Y1097D02*
X7Y1097D01*
X3613Y1097D02*
X3620Y1097D01*
X0Y1096D02*
X7Y1096D01*
X3613Y1096D02*
X3620Y1096D01*
X0Y1095D02*
X7Y1095D01*
X3613Y1095D02*
X3620Y1095D01*
X0Y1094D02*
X7Y1094D01*
X3613Y1094D02*
X3620Y1094D01*
X0Y1093D02*
X7Y1093D01*
X3613Y1093D02*
X3620Y1093D01*
X0Y1092D02*
X7Y1092D01*
X3613Y1092D02*
X3620Y1092D01*
X0Y1091D02*
X7Y1091D01*
X3613Y1091D02*
X3620Y1091D01*
X0Y1090D02*
X7Y1090D01*
X3613Y1090D02*
X3620Y1090D01*
X0Y1089D02*
X7Y1089D01*
X3613Y1089D02*
X3620Y1089D01*
X0Y1088D02*
X7Y1088D01*
X3613Y1088D02*
X3620Y1088D01*
X0Y1087D02*
X7Y1087D01*
X3613Y1087D02*
X3620Y1087D01*
X0Y1086D02*
X7Y1086D01*
X3613Y1086D02*
X3620Y1086D01*
X0Y1085D02*
X7Y1085D01*
X3613Y1085D02*
X3620Y1085D01*
X0Y1084D02*
X7Y1084D01*
X3613Y1084D02*
X3620Y1084D01*
X0Y1083D02*
X7Y1083D01*
X3613Y1083D02*
X3620Y1083D01*
X0Y1082D02*
X7Y1082D01*
X3613Y1082D02*
X3620Y1082D01*
X0Y1081D02*
X7Y1081D01*
X3613Y1081D02*
X3620Y1081D01*
X0Y1080D02*
X7Y1080D01*
X3613Y1080D02*
X3620Y1080D01*
X0Y1079D02*
X7Y1079D01*
X3613Y1079D02*
X3620Y1079D01*
X0Y1078D02*
X7Y1078D01*
X3613Y1078D02*
X3620Y1078D01*
X0Y1077D02*
X7Y1077D01*
X3613Y1077D02*
X3620Y1077D01*
X0Y1076D02*
X7Y1076D01*
X3613Y1076D02*
X3620Y1076D01*
X0Y1075D02*
X7Y1075D01*
X3613Y1075D02*
X3620Y1075D01*
X0Y1074D02*
X7Y1074D01*
X3613Y1074D02*
X3620Y1074D01*
X0Y1073D02*
X7Y1073D01*
X3613Y1073D02*
X3620Y1073D01*
X0Y1072D02*
X7Y1072D01*
X3613Y1072D02*
X3620Y1072D01*
X0Y1071D02*
X7Y1071D01*
X3613Y1071D02*
X3620Y1071D01*
X0Y1070D02*
X7Y1070D01*
X3613Y1070D02*
X3620Y1070D01*
X0Y1069D02*
X7Y1069D01*
X3613Y1069D02*
X3620Y1069D01*
X0Y1068D02*
X7Y1068D01*
X3613Y1068D02*
X3620Y1068D01*
X0Y1067D02*
X7Y1067D01*
X3613Y1067D02*
X3620Y1067D01*
X0Y1066D02*
X7Y1066D01*
X3613Y1066D02*
X3620Y1066D01*
X0Y1065D02*
X7Y1065D01*
X3613Y1065D02*
X3620Y1065D01*
X0Y1064D02*
X7Y1064D01*
X3613Y1064D02*
X3620Y1064D01*
X0Y1063D02*
X7Y1063D01*
X3613Y1063D02*
X3620Y1063D01*
X0Y1062D02*
X7Y1062D01*
X3613Y1062D02*
X3620Y1062D01*
X0Y1061D02*
X7Y1061D01*
X3613Y1061D02*
X3620Y1061D01*
X0Y1060D02*
X7Y1060D01*
X3613Y1060D02*
X3620Y1060D01*
X0Y1059D02*
X7Y1059D01*
X3613Y1059D02*
X3620Y1059D01*
X0Y1058D02*
X7Y1058D01*
X3613Y1058D02*
X3620Y1058D01*
X0Y1057D02*
X7Y1057D01*
X3613Y1057D02*
X3620Y1057D01*
X0Y1056D02*
X7Y1056D01*
X3613Y1056D02*
X3620Y1056D01*
X0Y1055D02*
X7Y1055D01*
X3613Y1055D02*
X3620Y1055D01*
X0Y1054D02*
X7Y1054D01*
X3613Y1054D02*
X3620Y1054D01*
X0Y1053D02*
X7Y1053D01*
X3613Y1053D02*
X3620Y1053D01*
X0Y1052D02*
X7Y1052D01*
X3613Y1052D02*
X3620Y1052D01*
X0Y1051D02*
X7Y1051D01*
X3613Y1051D02*
X3620Y1051D01*
X0Y1050D02*
X7Y1050D01*
X3613Y1050D02*
X3620Y1050D01*
X0Y1049D02*
X7Y1049D01*
X3613Y1049D02*
X3620Y1049D01*
X0Y1048D02*
X7Y1048D01*
X3613Y1048D02*
X3620Y1048D01*
X0Y1047D02*
X7Y1047D01*
X3613Y1047D02*
X3620Y1047D01*
X0Y1046D02*
X7Y1046D01*
X3613Y1046D02*
X3620Y1046D01*
X0Y1045D02*
X7Y1045D01*
X3613Y1045D02*
X3620Y1045D01*
X0Y1044D02*
X7Y1044D01*
X3613Y1044D02*
X3620Y1044D01*
X0Y1043D02*
X7Y1043D01*
X3613Y1043D02*
X3620Y1043D01*
X0Y1042D02*
X7Y1042D01*
X3613Y1042D02*
X3620Y1042D01*
X0Y1041D02*
X7Y1041D01*
X3613Y1041D02*
X3620Y1041D01*
X0Y1040D02*
X7Y1040D01*
X3613Y1040D02*
X3620Y1040D01*
X0Y1039D02*
X7Y1039D01*
X3613Y1039D02*
X3620Y1039D01*
X0Y1038D02*
X7Y1038D01*
X3613Y1038D02*
X3620Y1038D01*
X0Y1037D02*
X7Y1037D01*
X3613Y1037D02*
X3620Y1037D01*
X0Y1036D02*
X7Y1036D01*
X3613Y1036D02*
X3620Y1036D01*
X0Y1035D02*
X7Y1035D01*
X3613Y1035D02*
X3620Y1035D01*
X0Y1034D02*
X7Y1034D01*
X3613Y1034D02*
X3620Y1034D01*
X0Y1033D02*
X7Y1033D01*
X3613Y1033D02*
X3620Y1033D01*
X0Y1032D02*
X7Y1032D01*
X3613Y1032D02*
X3620Y1032D01*
X0Y1031D02*
X7Y1031D01*
X3613Y1031D02*
X3620Y1031D01*
X0Y1030D02*
X7Y1030D01*
X3613Y1030D02*
X3620Y1030D01*
X0Y1029D02*
X7Y1029D01*
X3613Y1029D02*
X3620Y1029D01*
X0Y1028D02*
X7Y1028D01*
X3613Y1028D02*
X3620Y1028D01*
X0Y1027D02*
X7Y1027D01*
X3613Y1027D02*
X3620Y1027D01*
X0Y1026D02*
X7Y1026D01*
X3613Y1026D02*
X3620Y1026D01*
X0Y1025D02*
X7Y1025D01*
X3613Y1025D02*
X3620Y1025D01*
X0Y1024D02*
X7Y1024D01*
X3613Y1024D02*
X3620Y1024D01*
X0Y1023D02*
X7Y1023D01*
X3613Y1023D02*
X3620Y1023D01*
X0Y1022D02*
X7Y1022D01*
X3613Y1022D02*
X3620Y1022D01*
X0Y1021D02*
X7Y1021D01*
X3613Y1021D02*
X3620Y1021D01*
X0Y1020D02*
X7Y1020D01*
X3613Y1020D02*
X3620Y1020D01*
X0Y1019D02*
X7Y1019D01*
X3613Y1019D02*
X3620Y1019D01*
X0Y1018D02*
X7Y1018D01*
X3613Y1018D02*
X3620Y1018D01*
X0Y1017D02*
X7Y1017D01*
X3613Y1017D02*
X3620Y1017D01*
X0Y1016D02*
X7Y1016D01*
X3613Y1016D02*
X3620Y1016D01*
X0Y1015D02*
X7Y1015D01*
X3613Y1015D02*
X3620Y1015D01*
X0Y1014D02*
X7Y1014D01*
X3613Y1014D02*
X3620Y1014D01*
X0Y1013D02*
X7Y1013D01*
X3613Y1013D02*
X3620Y1013D01*
X0Y1012D02*
X7Y1012D01*
X3613Y1012D02*
X3620Y1012D01*
X0Y1011D02*
X7Y1011D01*
X3613Y1011D02*
X3620Y1011D01*
X0Y1010D02*
X7Y1010D01*
X3613Y1010D02*
X3620Y1010D01*
X0Y1009D02*
X7Y1009D01*
X3613Y1009D02*
X3620Y1009D01*
X0Y1008D02*
X7Y1008D01*
X3613Y1008D02*
X3620Y1008D01*
X0Y1007D02*
X7Y1007D01*
X3613Y1007D02*
X3620Y1007D01*
X0Y1006D02*
X7Y1006D01*
X3613Y1006D02*
X3620Y1006D01*
X0Y1005D02*
X7Y1005D01*
X3613Y1005D02*
X3620Y1005D01*
X0Y1004D02*
X7Y1004D01*
X3613Y1004D02*
X3620Y1004D01*
X0Y1003D02*
X7Y1003D01*
X3613Y1003D02*
X3620Y1003D01*
X0Y1002D02*
X7Y1002D01*
X3613Y1002D02*
X3620Y1002D01*
X0Y1001D02*
X7Y1001D01*
X3613Y1001D02*
X3620Y1001D01*
X0Y1000D02*
X7Y1000D01*
X3613Y1000D02*
X3620Y1000D01*
X0Y999D02*
X7Y999D01*
X3613Y999D02*
X3620Y999D01*
X0Y998D02*
X7Y998D01*
X3613Y998D02*
X3620Y998D01*
X0Y997D02*
X7Y997D01*
X3613Y997D02*
X3620Y997D01*
X0Y996D02*
X7Y996D01*
X3613Y996D02*
X3620Y996D01*
X0Y995D02*
X7Y995D01*
X3613Y995D02*
X3620Y995D01*
X0Y994D02*
X7Y994D01*
X3613Y994D02*
X3620Y994D01*
X0Y993D02*
X7Y993D01*
X3613Y993D02*
X3620Y993D01*
X0Y992D02*
X7Y992D01*
X3613Y992D02*
X3620Y992D01*
X0Y991D02*
X7Y991D01*
X3613Y991D02*
X3620Y991D01*
X0Y990D02*
X7Y990D01*
X3613Y990D02*
X3620Y990D01*
X0Y989D02*
X7Y989D01*
X3613Y989D02*
X3620Y989D01*
X0Y988D02*
X7Y988D01*
X3613Y988D02*
X3620Y988D01*
X0Y987D02*
X7Y987D01*
X3613Y987D02*
X3620Y987D01*
X0Y986D02*
X7Y986D01*
X3613Y986D02*
X3620Y986D01*
X0Y985D02*
X7Y985D01*
X3613Y985D02*
X3620Y985D01*
X0Y984D02*
X7Y984D01*
X3613Y984D02*
X3620Y984D01*
X0Y983D02*
X7Y983D01*
X3613Y983D02*
X3620Y983D01*
X0Y982D02*
X7Y982D01*
X3613Y982D02*
X3620Y982D01*
X0Y981D02*
X7Y981D01*
X3613Y981D02*
X3620Y981D01*
X0Y980D02*
X7Y980D01*
X3613Y980D02*
X3620Y980D01*
X0Y979D02*
X7Y979D01*
X3613Y979D02*
X3620Y979D01*
X0Y978D02*
X7Y978D01*
X3613Y978D02*
X3620Y978D01*
X0Y977D02*
X7Y977D01*
X3613Y977D02*
X3620Y977D01*
X0Y976D02*
X7Y976D01*
X3613Y976D02*
X3620Y976D01*
X0Y975D02*
X7Y975D01*
X3613Y975D02*
X3620Y975D01*
X0Y974D02*
X7Y974D01*
X3613Y974D02*
X3620Y974D01*
X0Y973D02*
X7Y973D01*
X3613Y973D02*
X3620Y973D01*
X0Y972D02*
X7Y972D01*
X3613Y972D02*
X3620Y972D01*
X0Y971D02*
X7Y971D01*
X3613Y971D02*
X3620Y971D01*
X0Y970D02*
X7Y970D01*
X3613Y970D02*
X3620Y970D01*
X0Y969D02*
X7Y969D01*
X3613Y969D02*
X3620Y969D01*
X0Y968D02*
X7Y968D01*
X3613Y968D02*
X3620Y968D01*
X0Y967D02*
X7Y967D01*
X3613Y967D02*
X3620Y967D01*
X0Y966D02*
X7Y966D01*
X3613Y966D02*
X3620Y966D01*
X0Y965D02*
X7Y965D01*
X3613Y965D02*
X3620Y965D01*
X0Y964D02*
X7Y964D01*
X3613Y964D02*
X3620Y964D01*
X0Y963D02*
X7Y963D01*
X3613Y963D02*
X3620Y963D01*
X0Y962D02*
X7Y962D01*
X3613Y962D02*
X3620Y962D01*
X0Y961D02*
X7Y961D01*
X3613Y961D02*
X3620Y961D01*
X0Y960D02*
X7Y960D01*
X3613Y960D02*
X3620Y960D01*
X0Y959D02*
X7Y959D01*
X3613Y959D02*
X3620Y959D01*
X0Y958D02*
X7Y958D01*
X3613Y958D02*
X3620Y958D01*
X0Y957D02*
X7Y957D01*
X3613Y957D02*
X3620Y957D01*
X0Y956D02*
X7Y956D01*
X3613Y956D02*
X3620Y956D01*
X0Y955D02*
X7Y955D01*
X3613Y955D02*
X3620Y955D01*
X0Y954D02*
X7Y954D01*
X3613Y954D02*
X3620Y954D01*
X0Y953D02*
X7Y953D01*
X3613Y953D02*
X3620Y953D01*
X0Y952D02*
X7Y952D01*
X3613Y952D02*
X3620Y952D01*
X0Y951D02*
X7Y951D01*
X3613Y951D02*
X3620Y951D01*
X0Y950D02*
X7Y950D01*
X3613Y950D02*
X3620Y950D01*
X0Y949D02*
X7Y949D01*
X3613Y949D02*
X3620Y949D01*
X0Y948D02*
X7Y948D01*
X3613Y948D02*
X3620Y948D01*
X0Y947D02*
X7Y947D01*
X3613Y947D02*
X3620Y947D01*
X0Y946D02*
X7Y946D01*
X3613Y946D02*
X3620Y946D01*
X0Y945D02*
X7Y945D01*
X3613Y945D02*
X3620Y945D01*
X0Y944D02*
X7Y944D01*
X3613Y944D02*
X3620Y944D01*
X0Y943D02*
X7Y943D01*
X3613Y943D02*
X3620Y943D01*
X0Y942D02*
X7Y942D01*
X3613Y942D02*
X3620Y942D01*
X0Y941D02*
X7Y941D01*
X3613Y941D02*
X3620Y941D01*
X0Y940D02*
X7Y940D01*
X3613Y940D02*
X3620Y940D01*
X0Y939D02*
X7Y939D01*
X3613Y939D02*
X3620Y939D01*
X0Y938D02*
X7Y938D01*
X3613Y938D02*
X3620Y938D01*
X0Y937D02*
X7Y937D01*
X3613Y937D02*
X3620Y937D01*
X0Y936D02*
X7Y936D01*
X3613Y936D02*
X3620Y936D01*
X0Y935D02*
X7Y935D01*
X3613Y935D02*
X3620Y935D01*
X0Y934D02*
X7Y934D01*
X3613Y934D02*
X3620Y934D01*
X0Y933D02*
X7Y933D01*
X3613Y933D02*
X3620Y933D01*
X0Y932D02*
X7Y932D01*
X3613Y932D02*
X3620Y932D01*
X0Y931D02*
X7Y931D01*
X3613Y931D02*
X3620Y931D01*
X0Y930D02*
X7Y930D01*
X3613Y930D02*
X3620Y930D01*
X0Y929D02*
X7Y929D01*
X3613Y929D02*
X3620Y929D01*
X0Y928D02*
X7Y928D01*
X3613Y928D02*
X3620Y928D01*
X0Y927D02*
X7Y927D01*
X3613Y927D02*
X3620Y927D01*
X0Y926D02*
X7Y926D01*
X3613Y926D02*
X3620Y926D01*
X0Y925D02*
X7Y925D01*
X3613Y925D02*
X3620Y925D01*
X0Y924D02*
X7Y924D01*
X3613Y924D02*
X3620Y924D01*
X0Y923D02*
X7Y923D01*
X3613Y923D02*
X3620Y923D01*
X0Y922D02*
X7Y922D01*
X3613Y922D02*
X3620Y922D01*
X0Y921D02*
X7Y921D01*
X3613Y921D02*
X3620Y921D01*
X0Y920D02*
X7Y920D01*
X3613Y920D02*
X3620Y920D01*
X0Y919D02*
X7Y919D01*
X3613Y919D02*
X3620Y919D01*
X0Y918D02*
X7Y918D01*
X3613Y918D02*
X3620Y918D01*
X0Y917D02*
X7Y917D01*
X3613Y917D02*
X3620Y917D01*
X0Y916D02*
X7Y916D01*
X3613Y916D02*
X3620Y916D01*
X0Y915D02*
X7Y915D01*
X3613Y915D02*
X3620Y915D01*
X0Y914D02*
X7Y914D01*
X3613Y914D02*
X3620Y914D01*
X0Y913D02*
X7Y913D01*
X3613Y913D02*
X3620Y913D01*
X0Y912D02*
X7Y912D01*
X3613Y912D02*
X3620Y912D01*
X0Y911D02*
X7Y911D01*
X3613Y911D02*
X3620Y911D01*
X0Y910D02*
X7Y910D01*
X3613Y910D02*
X3620Y910D01*
X0Y909D02*
X7Y909D01*
X3613Y909D02*
X3620Y909D01*
X0Y908D02*
X7Y908D01*
X3613Y908D02*
X3620Y908D01*
X0Y907D02*
X7Y907D01*
X3613Y907D02*
X3620Y907D01*
X0Y906D02*
X7Y906D01*
X3613Y906D02*
X3620Y906D01*
X0Y905D02*
X7Y905D01*
X3613Y905D02*
X3620Y905D01*
X0Y904D02*
X7Y904D01*
X3613Y904D02*
X3620Y904D01*
X0Y903D02*
X7Y903D01*
X3613Y903D02*
X3620Y903D01*
X0Y902D02*
X7Y902D01*
X3613Y902D02*
X3620Y902D01*
X0Y901D02*
X7Y901D01*
X3613Y901D02*
X3620Y901D01*
X0Y900D02*
X7Y900D01*
X3613Y900D02*
X3620Y900D01*
X0Y899D02*
X7Y899D01*
X3613Y899D02*
X3620Y899D01*
X0Y898D02*
X7Y898D01*
X3613Y898D02*
X3620Y898D01*
X0Y897D02*
X7Y897D01*
X3613Y897D02*
X3620Y897D01*
X0Y896D02*
X7Y896D01*
X3613Y896D02*
X3620Y896D01*
X0Y895D02*
X7Y895D01*
X3613Y895D02*
X3620Y895D01*
X0Y894D02*
X7Y894D01*
X3613Y894D02*
X3620Y894D01*
X0Y893D02*
X7Y893D01*
X3613Y893D02*
X3620Y893D01*
X0Y892D02*
X7Y892D01*
X3613Y892D02*
X3620Y892D01*
X0Y891D02*
X7Y891D01*
X3613Y891D02*
X3620Y891D01*
X0Y890D02*
X7Y890D01*
X3613Y890D02*
X3620Y890D01*
X0Y889D02*
X7Y889D01*
X3613Y889D02*
X3620Y889D01*
X0Y888D02*
X7Y888D01*
X3613Y888D02*
X3620Y888D01*
X0Y887D02*
X7Y887D01*
X3613Y887D02*
X3620Y887D01*
X0Y886D02*
X7Y886D01*
X3613Y886D02*
X3620Y886D01*
X0Y885D02*
X7Y885D01*
X3613Y885D02*
X3620Y885D01*
X0Y884D02*
X7Y884D01*
X3613Y884D02*
X3620Y884D01*
X0Y883D02*
X7Y883D01*
X3613Y883D02*
X3620Y883D01*
X0Y882D02*
X7Y882D01*
X3613Y882D02*
X3620Y882D01*
X0Y881D02*
X7Y881D01*
X3613Y881D02*
X3620Y881D01*
X0Y880D02*
X7Y880D01*
X3613Y880D02*
X3620Y880D01*
X0Y879D02*
X7Y879D01*
X3613Y879D02*
X3620Y879D01*
X0Y878D02*
X7Y878D01*
X3613Y878D02*
X3620Y878D01*
X0Y877D02*
X7Y877D01*
X3613Y877D02*
X3620Y877D01*
X0Y876D02*
X7Y876D01*
X3613Y876D02*
X3620Y876D01*
X0Y875D02*
X7Y875D01*
X3613Y875D02*
X3620Y875D01*
X0Y874D02*
X7Y874D01*
X3613Y874D02*
X3620Y874D01*
X0Y873D02*
X7Y873D01*
X3613Y873D02*
X3620Y873D01*
X0Y872D02*
X7Y872D01*
X3613Y872D02*
X3620Y872D01*
X0Y871D02*
X7Y871D01*
X3613Y871D02*
X3620Y871D01*
X0Y870D02*
X7Y870D01*
X3613Y870D02*
X3620Y870D01*
X0Y869D02*
X7Y869D01*
X3613Y869D02*
X3620Y869D01*
X0Y868D02*
X7Y868D01*
X3613Y868D02*
X3620Y868D01*
X0Y867D02*
X7Y867D01*
X3613Y867D02*
X3620Y867D01*
X0Y866D02*
X7Y866D01*
X3613Y866D02*
X3620Y866D01*
X0Y865D02*
X7Y865D01*
X3613Y865D02*
X3620Y865D01*
X0Y864D02*
X7Y864D01*
X3613Y864D02*
X3620Y864D01*
X0Y863D02*
X7Y863D01*
X3613Y863D02*
X3620Y863D01*
X0Y862D02*
X7Y862D01*
X3613Y862D02*
X3620Y862D01*
X0Y861D02*
X7Y861D01*
X3613Y861D02*
X3620Y861D01*
X0Y860D02*
X7Y860D01*
X3613Y860D02*
X3620Y860D01*
X0Y859D02*
X7Y859D01*
X3613Y859D02*
X3620Y859D01*
X0Y858D02*
X7Y858D01*
X3613Y858D02*
X3620Y858D01*
X0Y857D02*
X7Y857D01*
X3613Y857D02*
X3620Y857D01*
X0Y856D02*
X7Y856D01*
X3613Y856D02*
X3620Y856D01*
X0Y855D02*
X7Y855D01*
X3613Y855D02*
X3620Y855D01*
X0Y854D02*
X7Y854D01*
X3613Y854D02*
X3620Y854D01*
X0Y853D02*
X7Y853D01*
X3613Y853D02*
X3620Y853D01*
X0Y852D02*
X7Y852D01*
X3613Y852D02*
X3620Y852D01*
X0Y851D02*
X7Y851D01*
X3613Y851D02*
X3620Y851D01*
X0Y850D02*
X7Y850D01*
X3613Y850D02*
X3620Y850D01*
X0Y849D02*
X7Y849D01*
X3613Y849D02*
X3620Y849D01*
X0Y848D02*
X7Y848D01*
X3613Y848D02*
X3620Y848D01*
X0Y847D02*
X7Y847D01*
X3613Y847D02*
X3620Y847D01*
X0Y846D02*
X7Y846D01*
X3613Y846D02*
X3620Y846D01*
X0Y845D02*
X7Y845D01*
X3613Y845D02*
X3620Y845D01*
X0Y844D02*
X7Y844D01*
X3613Y844D02*
X3620Y844D01*
X0Y843D02*
X7Y843D01*
X3613Y843D02*
X3620Y843D01*
X0Y842D02*
X7Y842D01*
X3613Y842D02*
X3620Y842D01*
X0Y841D02*
X7Y841D01*
X3613Y841D02*
X3620Y841D01*
X0Y840D02*
X7Y840D01*
X3613Y840D02*
X3620Y840D01*
X0Y839D02*
X7Y839D01*
X3613Y839D02*
X3620Y839D01*
X0Y838D02*
X7Y838D01*
X3613Y838D02*
X3620Y838D01*
X0Y837D02*
X7Y837D01*
X3613Y837D02*
X3620Y837D01*
X0Y836D02*
X7Y836D01*
X3613Y836D02*
X3620Y836D01*
X0Y835D02*
X7Y835D01*
X3613Y835D02*
X3620Y835D01*
X0Y834D02*
X7Y834D01*
X3613Y834D02*
X3620Y834D01*
X0Y833D02*
X7Y833D01*
X3613Y833D02*
X3620Y833D01*
X0Y832D02*
X7Y832D01*
X3613Y832D02*
X3620Y832D01*
X0Y831D02*
X7Y831D01*
X3613Y831D02*
X3620Y831D01*
X0Y830D02*
X7Y830D01*
X3613Y830D02*
X3620Y830D01*
X0Y829D02*
X7Y829D01*
X3613Y829D02*
X3620Y829D01*
X0Y828D02*
X7Y828D01*
X3613Y828D02*
X3620Y828D01*
X0Y827D02*
X7Y827D01*
X3613Y827D02*
X3620Y827D01*
X0Y826D02*
X7Y826D01*
X3613Y826D02*
X3620Y826D01*
X0Y825D02*
X7Y825D01*
X3613Y825D02*
X3620Y825D01*
X0Y824D02*
X7Y824D01*
X3613Y824D02*
X3620Y824D01*
X0Y823D02*
X7Y823D01*
X3613Y823D02*
X3620Y823D01*
X0Y822D02*
X7Y822D01*
X3613Y822D02*
X3620Y822D01*
X0Y821D02*
X7Y821D01*
X3613Y821D02*
X3620Y821D01*
X0Y820D02*
X7Y820D01*
X3613Y820D02*
X3620Y820D01*
X0Y819D02*
X7Y819D01*
X3613Y819D02*
X3620Y819D01*
X0Y818D02*
X7Y818D01*
X3613Y818D02*
X3620Y818D01*
X0Y817D02*
X7Y817D01*
X3613Y817D02*
X3620Y817D01*
X0Y816D02*
X7Y816D01*
X3613Y816D02*
X3620Y816D01*
X0Y815D02*
X7Y815D01*
X3613Y815D02*
X3620Y815D01*
X0Y814D02*
X7Y814D01*
X3613Y814D02*
X3620Y814D01*
X0Y813D02*
X7Y813D01*
X3613Y813D02*
X3620Y813D01*
X0Y812D02*
X7Y812D01*
X3613Y812D02*
X3620Y812D01*
X0Y811D02*
X7Y811D01*
X3613Y811D02*
X3620Y811D01*
X0Y810D02*
X7Y810D01*
X3613Y810D02*
X3620Y810D01*
X0Y809D02*
X7Y809D01*
X3613Y809D02*
X3620Y809D01*
X0Y808D02*
X7Y808D01*
X3613Y808D02*
X3620Y808D01*
X0Y807D02*
X7Y807D01*
X3613Y807D02*
X3620Y807D01*
X0Y806D02*
X7Y806D01*
X3613Y806D02*
X3620Y806D01*
X0Y805D02*
X7Y805D01*
X3613Y805D02*
X3620Y805D01*
X0Y804D02*
X7Y804D01*
X3613Y804D02*
X3620Y804D01*
X0Y803D02*
X7Y803D01*
X3613Y803D02*
X3620Y803D01*
X0Y802D02*
X7Y802D01*
X3613Y802D02*
X3620Y802D01*
X0Y801D02*
X7Y801D01*
X3613Y801D02*
X3620Y801D01*
X0Y800D02*
X7Y800D01*
X3613Y800D02*
X3620Y800D01*
X0Y799D02*
X7Y799D01*
X3613Y799D02*
X3620Y799D01*
X0Y798D02*
X7Y798D01*
X3613Y798D02*
X3620Y798D01*
X0Y797D02*
X7Y797D01*
X3613Y797D02*
X3620Y797D01*
X0Y796D02*
X7Y796D01*
X3613Y796D02*
X3620Y796D01*
X0Y795D02*
X7Y795D01*
X3613Y795D02*
X3620Y795D01*
X0Y794D02*
X7Y794D01*
X3613Y794D02*
X3620Y794D01*
X0Y793D02*
X7Y793D01*
X3613Y793D02*
X3620Y793D01*
X0Y792D02*
X7Y792D01*
X3613Y792D02*
X3620Y792D01*
X0Y791D02*
X7Y791D01*
X3613Y791D02*
X3620Y791D01*
X0Y790D02*
X7Y790D01*
X3613Y790D02*
X3620Y790D01*
X0Y789D02*
X7Y789D01*
X3613Y789D02*
X3620Y789D01*
X0Y788D02*
X7Y788D01*
X3613Y788D02*
X3620Y788D01*
X0Y787D02*
X7Y787D01*
X3613Y787D02*
X3620Y787D01*
X0Y786D02*
X7Y786D01*
X3613Y786D02*
X3620Y786D01*
X0Y785D02*
X7Y785D01*
X3613Y785D02*
X3620Y785D01*
X0Y784D02*
X7Y784D01*
X3613Y784D02*
X3620Y784D01*
X0Y783D02*
X7Y783D01*
X3613Y783D02*
X3620Y783D01*
X0Y782D02*
X7Y782D01*
X3613Y782D02*
X3620Y782D01*
X0Y781D02*
X7Y781D01*
X3613Y781D02*
X3620Y781D01*
X0Y780D02*
X7Y780D01*
X3613Y780D02*
X3620Y780D01*
X0Y779D02*
X7Y779D01*
X3613Y779D02*
X3620Y779D01*
X0Y778D02*
X7Y778D01*
X3613Y778D02*
X3620Y778D01*
X0Y777D02*
X7Y777D01*
X3613Y777D02*
X3620Y777D01*
X0Y776D02*
X7Y776D01*
X3613Y776D02*
X3620Y776D01*
X0Y775D02*
X7Y775D01*
X3613Y775D02*
X3620Y775D01*
X0Y774D02*
X7Y774D01*
X3613Y774D02*
X3620Y774D01*
X0Y773D02*
X7Y773D01*
X3613Y773D02*
X3620Y773D01*
X0Y772D02*
X7Y772D01*
X3613Y772D02*
X3620Y772D01*
X0Y771D02*
X7Y771D01*
X3613Y771D02*
X3620Y771D01*
X0Y770D02*
X7Y770D01*
X3613Y770D02*
X3620Y770D01*
X0Y769D02*
X7Y769D01*
X3613Y769D02*
X3620Y769D01*
X0Y768D02*
X7Y768D01*
X3613Y768D02*
X3620Y768D01*
X0Y767D02*
X7Y767D01*
X3613Y767D02*
X3620Y767D01*
X0Y766D02*
X7Y766D01*
X3613Y766D02*
X3620Y766D01*
X0Y765D02*
X7Y765D01*
X3613Y765D02*
X3620Y765D01*
X0Y764D02*
X7Y764D01*
X3613Y764D02*
X3620Y764D01*
X0Y763D02*
X7Y763D01*
X3613Y763D02*
X3620Y763D01*
X0Y762D02*
X7Y762D01*
X3613Y762D02*
X3620Y762D01*
X0Y761D02*
X7Y761D01*
X3613Y761D02*
X3620Y761D01*
X0Y760D02*
X7Y760D01*
X3613Y760D02*
X3620Y760D01*
X0Y759D02*
X7Y759D01*
X3613Y759D02*
X3620Y759D01*
X0Y758D02*
X7Y758D01*
X3613Y758D02*
X3620Y758D01*
X0Y757D02*
X7Y757D01*
X3613Y757D02*
X3620Y757D01*
X0Y756D02*
X7Y756D01*
X3613Y756D02*
X3620Y756D01*
X0Y755D02*
X7Y755D01*
X3613Y755D02*
X3620Y755D01*
X0Y754D02*
X7Y754D01*
X3613Y754D02*
X3620Y754D01*
X0Y753D02*
X7Y753D01*
X3613Y753D02*
X3620Y753D01*
X0Y752D02*
X7Y752D01*
X3613Y752D02*
X3620Y752D01*
X0Y751D02*
X7Y751D01*
X3613Y751D02*
X3620Y751D01*
X0Y750D02*
X7Y750D01*
X3613Y750D02*
X3620Y750D01*
X0Y749D02*
X7Y749D01*
X3613Y749D02*
X3620Y749D01*
X0Y748D02*
X7Y748D01*
X3613Y748D02*
X3620Y748D01*
X0Y747D02*
X7Y747D01*
X3613Y747D02*
X3620Y747D01*
X0Y746D02*
X7Y746D01*
X3613Y746D02*
X3620Y746D01*
X0Y745D02*
X7Y745D01*
X3613Y745D02*
X3620Y745D01*
X0Y744D02*
X7Y744D01*
X3613Y744D02*
X3620Y744D01*
X0Y743D02*
X7Y743D01*
X3613Y743D02*
X3620Y743D01*
X0Y742D02*
X7Y742D01*
X3613Y742D02*
X3620Y742D01*
X0Y741D02*
X7Y741D01*
X3613Y741D02*
X3620Y741D01*
X0Y740D02*
X7Y740D01*
X3613Y740D02*
X3620Y740D01*
X0Y739D02*
X7Y739D01*
X3613Y739D02*
X3620Y739D01*
X0Y738D02*
X7Y738D01*
X3613Y738D02*
X3620Y738D01*
X0Y737D02*
X7Y737D01*
X3613Y737D02*
X3620Y737D01*
X0Y736D02*
X7Y736D01*
X3613Y736D02*
X3620Y736D01*
X0Y735D02*
X7Y735D01*
X3613Y735D02*
X3620Y735D01*
X0Y734D02*
X7Y734D01*
X3613Y734D02*
X3620Y734D01*
X0Y733D02*
X7Y733D01*
X3613Y733D02*
X3620Y733D01*
X0Y732D02*
X7Y732D01*
X3613Y732D02*
X3620Y732D01*
X0Y731D02*
X7Y731D01*
X3613Y731D02*
X3620Y731D01*
X0Y730D02*
X7Y730D01*
X3613Y730D02*
X3620Y730D01*
X0Y729D02*
X7Y729D01*
X3613Y729D02*
X3620Y729D01*
X0Y728D02*
X7Y728D01*
X3613Y728D02*
X3620Y728D01*
X0Y727D02*
X7Y727D01*
X3613Y727D02*
X3620Y727D01*
X0Y726D02*
X7Y726D01*
X3613Y726D02*
X3620Y726D01*
X0Y725D02*
X7Y725D01*
X3613Y725D02*
X3620Y725D01*
X0Y724D02*
X7Y724D01*
X3613Y724D02*
X3620Y724D01*
X0Y723D02*
X7Y723D01*
X3613Y723D02*
X3620Y723D01*
X0Y722D02*
X7Y722D01*
X3613Y722D02*
X3620Y722D01*
X0Y721D02*
X7Y721D01*
X3613Y721D02*
X3620Y721D01*
X0Y720D02*
X7Y720D01*
X3613Y720D02*
X3620Y720D01*
X0Y719D02*
X7Y719D01*
X3613Y719D02*
X3620Y719D01*
X0Y718D02*
X7Y718D01*
X3613Y718D02*
X3620Y718D01*
X0Y717D02*
X7Y717D01*
X3613Y717D02*
X3620Y717D01*
X0Y716D02*
X7Y716D01*
X3613Y716D02*
X3620Y716D01*
X0Y715D02*
X7Y715D01*
X3613Y715D02*
X3620Y715D01*
X0Y714D02*
X7Y714D01*
X3613Y714D02*
X3620Y714D01*
X0Y713D02*
X7Y713D01*
X3613Y713D02*
X3620Y713D01*
X0Y712D02*
X7Y712D01*
X3613Y712D02*
X3620Y712D01*
X0Y711D02*
X7Y711D01*
X3613Y711D02*
X3620Y711D01*
X0Y710D02*
X7Y710D01*
X3613Y710D02*
X3620Y710D01*
X0Y709D02*
X7Y709D01*
X3613Y709D02*
X3620Y709D01*
X0Y708D02*
X7Y708D01*
X3613Y708D02*
X3620Y708D01*
X0Y707D02*
X7Y707D01*
X3613Y707D02*
X3620Y707D01*
X0Y706D02*
X7Y706D01*
X3613Y706D02*
X3620Y706D01*
X0Y705D02*
X7Y705D01*
X3613Y705D02*
X3620Y705D01*
X0Y704D02*
X7Y704D01*
X3613Y704D02*
X3620Y704D01*
X0Y703D02*
X7Y703D01*
X3613Y703D02*
X3620Y703D01*
X0Y702D02*
X7Y702D01*
X3613Y702D02*
X3620Y702D01*
X0Y701D02*
X7Y701D01*
X3613Y701D02*
X3620Y701D01*
X0Y700D02*
X7Y700D01*
X3613Y700D02*
X3620Y700D01*
X0Y699D02*
X7Y699D01*
X3613Y699D02*
X3620Y699D01*
X0Y698D02*
X7Y698D01*
X3613Y698D02*
X3620Y698D01*
X0Y697D02*
X7Y697D01*
X3613Y697D02*
X3620Y697D01*
X0Y696D02*
X7Y696D01*
X3613Y696D02*
X3620Y696D01*
X0Y695D02*
X7Y695D01*
X3613Y695D02*
X3620Y695D01*
X0Y694D02*
X7Y694D01*
X3613Y694D02*
X3620Y694D01*
X0Y693D02*
X7Y693D01*
X3613Y693D02*
X3620Y693D01*
X0Y692D02*
X7Y692D01*
X3613Y692D02*
X3620Y692D01*
X0Y691D02*
X7Y691D01*
X3613Y691D02*
X3620Y691D01*
X0Y690D02*
X7Y690D01*
X3613Y690D02*
X3620Y690D01*
X0Y689D02*
X7Y689D01*
X3613Y689D02*
X3620Y689D01*
X0Y688D02*
X7Y688D01*
X3613Y688D02*
X3620Y688D01*
X0Y687D02*
X7Y687D01*
X3613Y687D02*
X3620Y687D01*
X0Y686D02*
X7Y686D01*
X3613Y686D02*
X3620Y686D01*
X0Y685D02*
X7Y685D01*
X3613Y685D02*
X3620Y685D01*
X0Y684D02*
X7Y684D01*
X3613Y684D02*
X3620Y684D01*
X0Y683D02*
X7Y683D01*
X3613Y683D02*
X3620Y683D01*
X0Y682D02*
X7Y682D01*
X3613Y682D02*
X3620Y682D01*
X0Y681D02*
X7Y681D01*
X3613Y681D02*
X3620Y681D01*
X0Y680D02*
X7Y680D01*
X3613Y680D02*
X3620Y680D01*
X0Y679D02*
X7Y679D01*
X3613Y679D02*
X3620Y679D01*
X0Y678D02*
X7Y678D01*
X3613Y678D02*
X3620Y678D01*
X0Y677D02*
X7Y677D01*
X3613Y677D02*
X3620Y677D01*
X0Y676D02*
X7Y676D01*
X3613Y676D02*
X3620Y676D01*
X0Y675D02*
X7Y675D01*
X3613Y675D02*
X3620Y675D01*
X0Y674D02*
X7Y674D01*
X3613Y674D02*
X3620Y674D01*
X0Y673D02*
X7Y673D01*
X329Y673D02*
X403Y673D01*
X477Y673D02*
X574Y673D01*
X3613Y673D02*
X3620Y673D01*
X0Y672D02*
X7Y672D01*
X327Y672D02*
X402Y672D01*
X478Y672D02*
X576Y672D01*
X3613Y672D02*
X3620Y672D01*
X0Y671D02*
X7Y671D01*
X326Y671D02*
X402Y671D01*
X478Y671D02*
X577Y671D01*
X3613Y671D02*
X3620Y671D01*
X0Y670D02*
X7Y670D01*
X325Y670D02*
X401Y670D01*
X479Y670D02*
X578Y670D01*
X3613Y670D02*
X3620Y670D01*
X0Y669D02*
X7Y669D01*
X325Y669D02*
X401Y669D01*
X479Y669D02*
X578Y669D01*
X3613Y669D02*
X3620Y669D01*
X0Y668D02*
X7Y668D01*
X325Y668D02*
X400Y668D01*
X480Y668D02*
X578Y668D01*
X3613Y668D02*
X3620Y668D01*
X0Y667D02*
X7Y667D01*
X325Y667D02*
X400Y667D01*
X480Y667D02*
X578Y667D01*
X3613Y667D02*
X3620Y667D01*
X0Y666D02*
X7Y666D01*
X325Y666D02*
X400Y666D01*
X480Y666D02*
X578Y666D01*
X3613Y666D02*
X3620Y666D01*
X0Y665D02*
X7Y665D01*
X326Y665D02*
X399Y665D01*
X481Y665D02*
X577Y665D01*
X3613Y665D02*
X3620Y665D01*
X0Y664D02*
X7Y664D01*
X327Y664D02*
X399Y664D01*
X481Y664D02*
X576Y664D01*
X3613Y664D02*
X3620Y664D01*
X0Y663D02*
X7Y663D01*
X329Y663D02*
X399Y663D01*
X481Y663D02*
X574Y663D01*
X3613Y663D02*
X3620Y663D01*
X0Y662D02*
X7Y662D01*
X3613Y662D02*
X3620Y662D01*
X0Y661D02*
X7Y661D01*
X3613Y661D02*
X3620Y661D01*
X0Y660D02*
X7Y660D01*
X3613Y660D02*
X3620Y660D01*
X0Y659D02*
X7Y659D01*
X3613Y659D02*
X3620Y659D01*
X0Y658D02*
X7Y658D01*
X3613Y658D02*
X3620Y658D01*
X0Y657D02*
X7Y657D01*
X3613Y657D02*
X3620Y657D01*
X0Y656D02*
X7Y656D01*
X3613Y656D02*
X3620Y656D01*
X0Y655D02*
X7Y655D01*
X3613Y655D02*
X3620Y655D01*
X0Y654D02*
X7Y654D01*
X3613Y654D02*
X3620Y654D01*
X0Y653D02*
X7Y653D01*
X3613Y653D02*
X3620Y653D01*
X0Y652D02*
X7Y652D01*
X3613Y652D02*
X3620Y652D01*
X0Y651D02*
X7Y651D01*
X3613Y651D02*
X3620Y651D01*
X0Y650D02*
X7Y650D01*
X3613Y650D02*
X3620Y650D01*
X0Y649D02*
X7Y649D01*
X3613Y649D02*
X3620Y649D01*
X0Y648D02*
X7Y648D01*
X3613Y648D02*
X3620Y648D01*
X0Y647D02*
X7Y647D01*
X3613Y647D02*
X3620Y647D01*
X0Y646D02*
X7Y646D01*
X3613Y646D02*
X3620Y646D01*
X0Y645D02*
X7Y645D01*
X3613Y645D02*
X3620Y645D01*
X0Y644D02*
X7Y644D01*
X3613Y644D02*
X3620Y644D01*
X0Y643D02*
X7Y643D01*
X3613Y643D02*
X3620Y643D01*
X0Y642D02*
X7Y642D01*
X3613Y642D02*
X3620Y642D01*
X0Y641D02*
X7Y641D01*
X3613Y641D02*
X3620Y641D01*
X0Y640D02*
X7Y640D01*
X3613Y640D02*
X3620Y640D01*
X0Y639D02*
X7Y639D01*
X3613Y639D02*
X3620Y639D01*
X0Y638D02*
X7Y638D01*
X3613Y638D02*
X3620Y638D01*
X0Y637D02*
X7Y637D01*
X3613Y637D02*
X3620Y637D01*
X0Y636D02*
X7Y636D01*
X3613Y636D02*
X3620Y636D01*
X0Y635D02*
X7Y635D01*
X3613Y635D02*
X3620Y635D01*
X0Y634D02*
X7Y634D01*
X3613Y634D02*
X3620Y634D01*
X0Y633D02*
X7Y633D01*
X3613Y633D02*
X3620Y633D01*
X0Y632D02*
X7Y632D01*
X3613Y632D02*
X3620Y632D01*
X0Y631D02*
X7Y631D01*
X3613Y631D02*
X3620Y631D01*
X0Y630D02*
X7Y630D01*
X3613Y630D02*
X3620Y630D01*
X0Y629D02*
X7Y629D01*
X3613Y629D02*
X3620Y629D01*
X0Y628D02*
X7Y628D01*
X3613Y628D02*
X3620Y628D01*
X0Y627D02*
X7Y627D01*
X3613Y627D02*
X3620Y627D01*
X0Y626D02*
X7Y626D01*
X3613Y626D02*
X3620Y626D01*
X0Y625D02*
X7Y625D01*
X3613Y625D02*
X3620Y625D01*
X0Y624D02*
X7Y624D01*
X3613Y624D02*
X3620Y624D01*
X0Y623D02*
X7Y623D01*
X3613Y623D02*
X3620Y623D01*
X0Y622D02*
X7Y622D01*
X3613Y622D02*
X3620Y622D01*
X0Y621D02*
X7Y621D01*
X3613Y621D02*
X3620Y621D01*
X0Y620D02*
X7Y620D01*
X3613Y620D02*
X3620Y620D01*
X0Y619D02*
X7Y619D01*
X3613Y619D02*
X3620Y619D01*
X0Y618D02*
X7Y618D01*
X3613Y618D02*
X3620Y618D01*
X0Y617D02*
X7Y617D01*
X3613Y617D02*
X3620Y617D01*
X0Y616D02*
X7Y616D01*
X3613Y616D02*
X3620Y616D01*
X0Y615D02*
X7Y615D01*
X3613Y615D02*
X3620Y615D01*
X0Y614D02*
X7Y614D01*
X3613Y614D02*
X3620Y614D01*
X0Y613D02*
X7Y613D01*
X3613Y613D02*
X3620Y613D01*
X0Y612D02*
X7Y612D01*
X3613Y612D02*
X3620Y612D01*
X0Y611D02*
X7Y611D01*
X3613Y611D02*
X3620Y611D01*
X0Y610D02*
X7Y610D01*
X3613Y610D02*
X3620Y610D01*
X0Y609D02*
X7Y609D01*
X3613Y609D02*
X3620Y609D01*
X0Y608D02*
X7Y608D01*
X3613Y608D02*
X3620Y608D01*
X0Y607D02*
X7Y607D01*
X3613Y607D02*
X3620Y607D01*
X0Y606D02*
X7Y606D01*
X3613Y606D02*
X3620Y606D01*
X0Y605D02*
X7Y605D01*
X3613Y605D02*
X3620Y605D01*
X0Y604D02*
X7Y604D01*
X3613Y604D02*
X3620Y604D01*
X0Y603D02*
X7Y603D01*
X3613Y603D02*
X3620Y603D01*
X0Y602D02*
X7Y602D01*
X3613Y602D02*
X3620Y602D01*
X0Y601D02*
X7Y601D01*
X3613Y601D02*
X3620Y601D01*
X0Y600D02*
X7Y600D01*
X3613Y600D02*
X3620Y600D01*
X0Y599D02*
X7Y599D01*
X3613Y599D02*
X3620Y599D01*
X0Y598D02*
X7Y598D01*
X3613Y598D02*
X3620Y598D01*
X0Y597D02*
X7Y597D01*
X3613Y597D02*
X3620Y597D01*
X0Y596D02*
X7Y596D01*
X3613Y596D02*
X3620Y596D01*
X0Y595D02*
X7Y595D01*
X3613Y595D02*
X3620Y595D01*
X0Y594D02*
X7Y594D01*
X3613Y594D02*
X3620Y594D01*
X0Y593D02*
X7Y593D01*
X3613Y593D02*
X3620Y593D01*
X0Y592D02*
X7Y592D01*
X3613Y592D02*
X3620Y592D01*
X0Y591D02*
X7Y591D01*
X3613Y591D02*
X3620Y591D01*
X0Y590D02*
X7Y590D01*
X3613Y590D02*
X3620Y590D01*
X0Y589D02*
X7Y589D01*
X3613Y589D02*
X3620Y589D01*
X0Y588D02*
X7Y588D01*
X3613Y588D02*
X3620Y588D01*
X0Y587D02*
X7Y587D01*
X3613Y587D02*
X3620Y587D01*
X0Y586D02*
X7Y586D01*
X3613Y586D02*
X3620Y586D01*
X0Y585D02*
X7Y585D01*
X3613Y585D02*
X3620Y585D01*
X0Y584D02*
X7Y584D01*
X3613Y584D02*
X3620Y584D01*
X0Y583D02*
X7Y583D01*
X3613Y583D02*
X3620Y583D01*
X0Y582D02*
X7Y582D01*
X3613Y582D02*
X3620Y582D01*
X0Y581D02*
X7Y581D01*
X3613Y581D02*
X3620Y581D01*
X0Y580D02*
X7Y580D01*
X3613Y580D02*
X3620Y580D01*
X0Y579D02*
X7Y579D01*
X3613Y579D02*
X3620Y579D01*
X0Y578D02*
X7Y578D01*
X3613Y578D02*
X3620Y578D01*
X0Y577D02*
X7Y577D01*
X3613Y577D02*
X3620Y577D01*
X0Y576D02*
X7Y576D01*
X3613Y576D02*
X3620Y576D01*
X0Y575D02*
X7Y575D01*
X3613Y575D02*
X3620Y575D01*
X0Y574D02*
X7Y574D01*
X3613Y574D02*
X3620Y574D01*
X0Y573D02*
X7Y573D01*
X3613Y573D02*
X3620Y573D01*
X0Y572D02*
X7Y572D01*
X3613Y572D02*
X3620Y572D01*
X0Y571D02*
X7Y571D01*
X3613Y571D02*
X3620Y571D01*
X0Y570D02*
X7Y570D01*
X3613Y570D02*
X3620Y570D01*
X0Y569D02*
X7Y569D01*
X3613Y569D02*
X3620Y569D01*
X0Y568D02*
X7Y568D01*
X3613Y568D02*
X3620Y568D01*
X0Y567D02*
X7Y567D01*
X3613Y567D02*
X3620Y567D01*
X0Y566D02*
X7Y566D01*
X3613Y566D02*
X3620Y566D01*
X0Y565D02*
X7Y565D01*
X3613Y565D02*
X3620Y565D01*
X0Y564D02*
X7Y564D01*
X3613Y564D02*
X3620Y564D01*
X0Y563D02*
X7Y563D01*
X3613Y563D02*
X3620Y563D01*
X0Y562D02*
X7Y562D01*
X3613Y562D02*
X3620Y562D01*
X0Y561D02*
X7Y561D01*
X3613Y561D02*
X3620Y561D01*
X0Y560D02*
X7Y560D01*
X3613Y560D02*
X3620Y560D01*
X0Y559D02*
X7Y559D01*
X3613Y559D02*
X3620Y559D01*
X0Y558D02*
X7Y558D01*
X3613Y558D02*
X3620Y558D01*
X0Y557D02*
X7Y557D01*
X3613Y557D02*
X3620Y557D01*
X0Y556D02*
X7Y556D01*
X3613Y556D02*
X3620Y556D01*
X0Y555D02*
X7Y555D01*
X3613Y555D02*
X3620Y555D01*
X0Y554D02*
X7Y554D01*
X3613Y554D02*
X3620Y554D01*
X0Y553D02*
X7Y553D01*
X3613Y553D02*
X3620Y553D01*
X0Y552D02*
X7Y552D01*
X3613Y552D02*
X3620Y552D01*
X0Y551D02*
X7Y551D01*
X3613Y551D02*
X3620Y551D01*
X0Y550D02*
X7Y550D01*
X3613Y550D02*
X3620Y550D01*
X0Y549D02*
X7Y549D01*
X3613Y549D02*
X3620Y549D01*
X0Y548D02*
X7Y548D01*
X3613Y548D02*
X3620Y548D01*
X0Y547D02*
X7Y547D01*
X3613Y547D02*
X3620Y547D01*
X0Y546D02*
X7Y546D01*
X3613Y546D02*
X3620Y546D01*
X0Y545D02*
X7Y545D01*
X3613Y545D02*
X3620Y545D01*
X0Y544D02*
X7Y544D01*
X3613Y544D02*
X3620Y544D01*
X0Y543D02*
X7Y543D01*
X3613Y543D02*
X3620Y543D01*
X0Y542D02*
X7Y542D01*
X3613Y542D02*
X3620Y542D01*
X0Y541D02*
X7Y541D01*
X3613Y541D02*
X3620Y541D01*
X0Y540D02*
X7Y540D01*
X3613Y540D02*
X3620Y540D01*
X0Y539D02*
X7Y539D01*
X3613Y539D02*
X3620Y539D01*
X0Y538D02*
X7Y538D01*
X3613Y538D02*
X3620Y538D01*
X0Y537D02*
X7Y537D01*
X3613Y537D02*
X3620Y537D01*
X0Y536D02*
X7Y536D01*
X3613Y536D02*
X3620Y536D01*
X0Y535D02*
X7Y535D01*
X3613Y535D02*
X3620Y535D01*
X0Y534D02*
X7Y534D01*
X3613Y534D02*
X3620Y534D01*
X0Y533D02*
X7Y533D01*
X3613Y533D02*
X3620Y533D01*
X0Y532D02*
X7Y532D01*
X3613Y532D02*
X3620Y532D01*
X0Y531D02*
X7Y531D01*
X3613Y531D02*
X3620Y531D01*
X0Y530D02*
X7Y530D01*
X3613Y530D02*
X3620Y530D01*
X0Y529D02*
X7Y529D01*
X3613Y529D02*
X3620Y529D01*
X0Y528D02*
X7Y528D01*
X3613Y528D02*
X3620Y528D01*
X0Y527D02*
X7Y527D01*
X3613Y527D02*
X3620Y527D01*
X0Y526D02*
X7Y526D01*
X3613Y526D02*
X3620Y526D01*
X0Y525D02*
X7Y525D01*
X3613Y525D02*
X3620Y525D01*
X0Y524D02*
X7Y524D01*
X3613Y524D02*
X3620Y524D01*
X0Y523D02*
X7Y523D01*
X3613Y523D02*
X3620Y523D01*
X0Y522D02*
X7Y522D01*
X3613Y522D02*
X3620Y522D01*
X0Y521D02*
X7Y521D01*
X3613Y521D02*
X3620Y521D01*
X0Y520D02*
X7Y520D01*
X3613Y520D02*
X3620Y520D01*
X0Y519D02*
X7Y519D01*
X3613Y519D02*
X3620Y519D01*
X0Y518D02*
X7Y518D01*
X3613Y518D02*
X3620Y518D01*
X0Y517D02*
X7Y517D01*
X3613Y517D02*
X3620Y517D01*
X0Y516D02*
X7Y516D01*
X3613Y516D02*
X3620Y516D01*
X0Y515D02*
X7Y515D01*
X3613Y515D02*
X3620Y515D01*
X0Y514D02*
X7Y514D01*
X3613Y514D02*
X3620Y514D01*
X0Y513D02*
X7Y513D01*
X3613Y513D02*
X3620Y513D01*
X0Y512D02*
X7Y512D01*
X3613Y512D02*
X3620Y512D01*
X0Y511D02*
X7Y511D01*
X3613Y511D02*
X3620Y511D01*
X0Y510D02*
X7Y510D01*
X3613Y510D02*
X3620Y510D01*
X0Y509D02*
X7Y509D01*
X3613Y509D02*
X3620Y509D01*
X0Y508D02*
X7Y508D01*
X3613Y508D02*
X3620Y508D01*
X0Y507D02*
X7Y507D01*
X3613Y507D02*
X3620Y507D01*
X0Y506D02*
X7Y506D01*
X3613Y506D02*
X3620Y506D01*
X0Y505D02*
X7Y505D01*
X3613Y505D02*
X3620Y505D01*
X0Y504D02*
X7Y504D01*
X3613Y504D02*
X3620Y504D01*
X0Y503D02*
X7Y503D01*
X3613Y503D02*
X3620Y503D01*
X0Y502D02*
X7Y502D01*
X3613Y502D02*
X3620Y502D01*
X0Y501D02*
X7Y501D01*
X3613Y501D02*
X3620Y501D01*
X0Y500D02*
X7Y500D01*
X3613Y500D02*
X3620Y500D01*
X0Y499D02*
X7Y499D01*
X3613Y499D02*
X3620Y499D01*
X0Y498D02*
X7Y498D01*
X3613Y498D02*
X3620Y498D01*
X0Y497D02*
X7Y497D01*
X3613Y497D02*
X3620Y497D01*
X0Y496D02*
X7Y496D01*
X3613Y496D02*
X3620Y496D01*
X0Y495D02*
X7Y495D01*
X3613Y495D02*
X3620Y495D01*
X0Y494D02*
X7Y494D01*
X3613Y494D02*
X3620Y494D01*
X0Y493D02*
X7Y493D01*
X3613Y493D02*
X3620Y493D01*
X0Y492D02*
X7Y492D01*
X3613Y492D02*
X3620Y492D01*
X0Y491D02*
X7Y491D01*
X3613Y491D02*
X3620Y491D01*
X0Y490D02*
X7Y490D01*
X3613Y490D02*
X3620Y490D01*
X0Y489D02*
X7Y489D01*
X3613Y489D02*
X3620Y489D01*
X0Y488D02*
X7Y488D01*
X3613Y488D02*
X3620Y488D01*
X0Y487D02*
X7Y487D01*
X3613Y487D02*
X3620Y487D01*
X0Y486D02*
X7Y486D01*
X3613Y486D02*
X3620Y486D01*
X0Y485D02*
X7Y485D01*
X3613Y485D02*
X3620Y485D01*
X0Y484D02*
X7Y484D01*
X3613Y484D02*
X3620Y484D01*
X0Y483D02*
X7Y483D01*
X3613Y483D02*
X3620Y483D01*
X0Y482D02*
X7Y482D01*
X3613Y482D02*
X3620Y482D01*
X0Y481D02*
X7Y481D01*
X3613Y481D02*
X3620Y481D01*
X0Y480D02*
X7Y480D01*
X3613Y480D02*
X3620Y480D01*
X0Y479D02*
X7Y479D01*
X3613Y479D02*
X3620Y479D01*
X0Y478D02*
X7Y478D01*
X3613Y478D02*
X3620Y478D01*
X0Y477D02*
X7Y477D01*
X3613Y477D02*
X3620Y477D01*
X0Y476D02*
X7Y476D01*
X3613Y476D02*
X3620Y476D01*
X0Y475D02*
X7Y475D01*
X3613Y475D02*
X3620Y475D01*
X0Y474D02*
X7Y474D01*
X3613Y474D02*
X3620Y474D01*
X0Y473D02*
X7Y473D01*
X3613Y473D02*
X3620Y473D01*
X0Y472D02*
X7Y472D01*
X3613Y472D02*
X3620Y472D01*
X0Y471D02*
X7Y471D01*
X3613Y471D02*
X3620Y471D01*
X0Y470D02*
X7Y470D01*
X3613Y470D02*
X3620Y470D01*
X0Y469D02*
X7Y469D01*
X3613Y469D02*
X3620Y469D01*
X0Y468D02*
X7Y468D01*
X3613Y468D02*
X3620Y468D01*
X0Y467D02*
X7Y467D01*
X3613Y467D02*
X3620Y467D01*
X0Y466D02*
X7Y466D01*
X3613Y466D02*
X3620Y466D01*
X0Y465D02*
X7Y465D01*
X3613Y465D02*
X3620Y465D01*
X0Y464D02*
X7Y464D01*
X3613Y464D02*
X3620Y464D01*
X0Y463D02*
X7Y463D01*
X3613Y463D02*
X3620Y463D01*
X0Y462D02*
X7Y462D01*
X3613Y462D02*
X3620Y462D01*
X0Y461D02*
X7Y461D01*
X3613Y461D02*
X3620Y461D01*
X0Y460D02*
X7Y460D01*
X3613Y460D02*
X3620Y460D01*
X0Y459D02*
X7Y459D01*
X3613Y459D02*
X3620Y459D01*
X0Y458D02*
X7Y458D01*
X3613Y458D02*
X3620Y458D01*
X0Y457D02*
X7Y457D01*
X3613Y457D02*
X3620Y457D01*
X0Y456D02*
X7Y456D01*
X3613Y456D02*
X3620Y456D01*
X0Y455D02*
X7Y455D01*
X3613Y455D02*
X3620Y455D01*
X0Y454D02*
X7Y454D01*
X3613Y454D02*
X3620Y454D01*
X0Y453D02*
X7Y453D01*
X3613Y453D02*
X3620Y453D01*
X0Y452D02*
X7Y452D01*
X3613Y452D02*
X3620Y452D01*
X0Y451D02*
X7Y451D01*
X3613Y451D02*
X3620Y451D01*
X0Y450D02*
X7Y450D01*
X3613Y450D02*
X3620Y450D01*
X0Y449D02*
X7Y449D01*
X3613Y449D02*
X3620Y449D01*
X0Y448D02*
X7Y448D01*
X3613Y448D02*
X3620Y448D01*
X0Y447D02*
X7Y447D01*
X3613Y447D02*
X3620Y447D01*
X0Y446D02*
X7Y446D01*
X3613Y446D02*
X3620Y446D01*
X0Y445D02*
X7Y445D01*
X3613Y445D02*
X3620Y445D01*
X0Y444D02*
X7Y444D01*
X3613Y444D02*
X3620Y444D01*
X0Y443D02*
X7Y443D01*
X3613Y443D02*
X3620Y443D01*
X0Y442D02*
X7Y442D01*
X3613Y442D02*
X3620Y442D01*
X0Y441D02*
X7Y441D01*
X3613Y441D02*
X3620Y441D01*
X0Y440D02*
X7Y440D01*
X3613Y440D02*
X3620Y440D01*
X0Y439D02*
X7Y439D01*
X3613Y439D02*
X3620Y439D01*
X0Y438D02*
X7Y438D01*
X3613Y438D02*
X3620Y438D01*
X0Y437D02*
X7Y437D01*
X3613Y437D02*
X3620Y437D01*
X0Y436D02*
X7Y436D01*
X3613Y436D02*
X3620Y436D01*
X0Y435D02*
X7Y435D01*
X3613Y435D02*
X3620Y435D01*
X0Y434D02*
X7Y434D01*
X3613Y434D02*
X3620Y434D01*
X0Y433D02*
X7Y433D01*
X3613Y433D02*
X3620Y433D01*
X0Y432D02*
X7Y432D01*
X3613Y432D02*
X3620Y432D01*
X0Y431D02*
X7Y431D01*
X3613Y431D02*
X3620Y431D01*
X0Y430D02*
X7Y430D01*
X3613Y430D02*
X3620Y430D01*
X0Y429D02*
X7Y429D01*
X3613Y429D02*
X3620Y429D01*
X0Y428D02*
X7Y428D01*
X3613Y428D02*
X3620Y428D01*
X0Y427D02*
X7Y427D01*
X3613Y427D02*
X3620Y427D01*
X0Y426D02*
X7Y426D01*
X3613Y426D02*
X3620Y426D01*
X0Y425D02*
X7Y425D01*
X3613Y425D02*
X3620Y425D01*
X0Y424D02*
X7Y424D01*
X3613Y424D02*
X3620Y424D01*
X0Y423D02*
X7Y423D01*
X3613Y423D02*
X3620Y423D01*
X0Y422D02*
X7Y422D01*
X3613Y422D02*
X3620Y422D01*
X0Y421D02*
X7Y421D01*
X3613Y421D02*
X3620Y421D01*
X0Y420D02*
X7Y420D01*
X3613Y420D02*
X3620Y420D01*
X0Y419D02*
X7Y419D01*
X3613Y419D02*
X3620Y419D01*
X0Y418D02*
X7Y418D01*
X3613Y418D02*
X3620Y418D01*
X0Y417D02*
X7Y417D01*
X3613Y417D02*
X3620Y417D01*
X0Y416D02*
X7Y416D01*
X3613Y416D02*
X3620Y416D01*
X0Y415D02*
X7Y415D01*
X3613Y415D02*
X3620Y415D01*
X0Y414D02*
X7Y414D01*
X3613Y414D02*
X3620Y414D01*
X0Y413D02*
X7Y413D01*
X3613Y413D02*
X3620Y413D01*
X0Y412D02*
X7Y412D01*
X3613Y412D02*
X3620Y412D01*
X0Y411D02*
X7Y411D01*
X3613Y411D02*
X3620Y411D01*
X0Y410D02*
X7Y410D01*
X3613Y410D02*
X3620Y410D01*
X0Y409D02*
X7Y409D01*
X3613Y409D02*
X3620Y409D01*
X0Y408D02*
X7Y408D01*
X3613Y408D02*
X3620Y408D01*
X0Y407D02*
X7Y407D01*
X3613Y407D02*
X3620Y407D01*
X0Y406D02*
X7Y406D01*
X3613Y406D02*
X3620Y406D01*
X0Y405D02*
X7Y405D01*
X3613Y405D02*
X3620Y405D01*
X0Y404D02*
X7Y404D01*
X3613Y404D02*
X3620Y404D01*
X0Y403D02*
X7Y403D01*
X3613Y403D02*
X3620Y403D01*
X0Y402D02*
X7Y402D01*
X3613Y402D02*
X3620Y402D01*
X0Y401D02*
X7Y401D01*
X3613Y401D02*
X3620Y401D01*
X0Y400D02*
X7Y400D01*
X3613Y400D02*
X3620Y400D01*
X0Y399D02*
X7Y399D01*
X3613Y399D02*
X3620Y399D01*
X0Y398D02*
X7Y398D01*
X3613Y398D02*
X3620Y398D01*
X0Y397D02*
X7Y397D01*
X3613Y397D02*
X3620Y397D01*
X0Y396D02*
X7Y396D01*
X3613Y396D02*
X3620Y396D01*
X0Y395D02*
X7Y395D01*
X3613Y395D02*
X3620Y395D01*
X0Y394D02*
X7Y394D01*
X3613Y394D02*
X3620Y394D01*
X0Y393D02*
X7Y393D01*
X3613Y393D02*
X3620Y393D01*
X0Y392D02*
X7Y392D01*
X3613Y392D02*
X3620Y392D01*
X0Y391D02*
X7Y391D01*
X3613Y391D02*
X3620Y391D01*
X0Y390D02*
X7Y390D01*
X3613Y390D02*
X3620Y390D01*
X0Y389D02*
X7Y389D01*
X3613Y389D02*
X3620Y389D01*
X0Y388D02*
X7Y388D01*
X3613Y388D02*
X3620Y388D01*
X0Y387D02*
X7Y387D01*
X3613Y387D02*
X3620Y387D01*
X0Y386D02*
X7Y386D01*
X3613Y386D02*
X3620Y386D01*
X0Y385D02*
X7Y385D01*
X3613Y385D02*
X3620Y385D01*
X0Y384D02*
X7Y384D01*
X3613Y384D02*
X3620Y384D01*
X0Y383D02*
X7Y383D01*
X3613Y383D02*
X3620Y383D01*
X0Y382D02*
X7Y382D01*
X3613Y382D02*
X3620Y382D01*
X0Y381D02*
X7Y381D01*
X3613Y381D02*
X3620Y381D01*
X0Y380D02*
X7Y380D01*
X3613Y380D02*
X3620Y380D01*
X0Y379D02*
X7Y379D01*
X3613Y379D02*
X3620Y379D01*
X0Y378D02*
X7Y378D01*
X3613Y378D02*
X3620Y378D01*
X0Y377D02*
X7Y377D01*
X3613Y377D02*
X3620Y377D01*
X0Y376D02*
X7Y376D01*
X3613Y376D02*
X3620Y376D01*
X0Y375D02*
X7Y375D01*
X3613Y375D02*
X3620Y375D01*
X0Y374D02*
X7Y374D01*
X3613Y374D02*
X3620Y374D01*
X0Y373D02*
X7Y373D01*
X3613Y373D02*
X3620Y373D01*
X0Y372D02*
X7Y372D01*
X3613Y372D02*
X3620Y372D01*
X0Y371D02*
X7Y371D01*
X3613Y371D02*
X3620Y371D01*
X0Y370D02*
X7Y370D01*
X3613Y370D02*
X3620Y370D01*
X0Y369D02*
X7Y369D01*
X3613Y369D02*
X3620Y369D01*
X0Y368D02*
X7Y368D01*
X3613Y368D02*
X3620Y368D01*
X0Y367D02*
X7Y367D01*
X3613Y367D02*
X3620Y367D01*
X0Y366D02*
X7Y366D01*
X3613Y366D02*
X3620Y366D01*
X0Y365D02*
X7Y365D01*
X3613Y365D02*
X3620Y365D01*
X0Y364D02*
X7Y364D01*
X3613Y364D02*
X3620Y364D01*
X0Y363D02*
X7Y363D01*
X3613Y363D02*
X3620Y363D01*
X0Y362D02*
X7Y362D01*
X3613Y362D02*
X3620Y362D01*
X0Y361D02*
X7Y361D01*
X3613Y361D02*
X3620Y361D01*
X0Y360D02*
X7Y360D01*
X3613Y360D02*
X3620Y360D01*
X0Y359D02*
X7Y359D01*
X3613Y359D02*
X3620Y359D01*
X0Y358D02*
X7Y358D01*
X3613Y358D02*
X3620Y358D01*
X0Y357D02*
X7Y357D01*
X3613Y357D02*
X3620Y357D01*
X0Y356D02*
X7Y356D01*
X3613Y356D02*
X3620Y356D01*
X0Y355D02*
X7Y355D01*
X3613Y355D02*
X3620Y355D01*
X0Y354D02*
X7Y354D01*
X3613Y354D02*
X3620Y354D01*
X0Y353D02*
X7Y353D01*
X3613Y353D02*
X3620Y353D01*
X0Y352D02*
X7Y352D01*
X3613Y352D02*
X3620Y352D01*
X0Y351D02*
X7Y351D01*
X3613Y351D02*
X3620Y351D01*
X0Y350D02*
X7Y350D01*
X3613Y350D02*
X3620Y350D01*
X0Y349D02*
X7Y349D01*
X3613Y349D02*
X3620Y349D01*
X0Y348D02*
X7Y348D01*
X3613Y348D02*
X3620Y348D01*
X0Y347D02*
X7Y347D01*
X3613Y347D02*
X3620Y347D01*
X0Y346D02*
X7Y346D01*
X3613Y346D02*
X3620Y346D01*
X0Y345D02*
X7Y345D01*
X3613Y345D02*
X3620Y345D01*
X0Y344D02*
X7Y344D01*
X3613Y344D02*
X3620Y344D01*
X0Y343D02*
X7Y343D01*
X3613Y343D02*
X3620Y343D01*
X0Y342D02*
X7Y342D01*
X3613Y342D02*
X3620Y342D01*
X0Y341D02*
X7Y341D01*
X3613Y341D02*
X3620Y341D01*
X0Y340D02*
X7Y340D01*
X3613Y340D02*
X3620Y340D01*
X0Y339D02*
X7Y339D01*
X3613Y339D02*
X3620Y339D01*
X0Y338D02*
X7Y338D01*
X3613Y338D02*
X3620Y338D01*
X0Y337D02*
X7Y337D01*
X3613Y337D02*
X3620Y337D01*
X0Y336D02*
X7Y336D01*
X3613Y336D02*
X3620Y336D01*
X0Y335D02*
X7Y335D01*
X3613Y335D02*
X3620Y335D01*
X0Y334D02*
X7Y334D01*
X3613Y334D02*
X3620Y334D01*
X0Y333D02*
X7Y333D01*
X3613Y333D02*
X3620Y333D01*
X0Y332D02*
X7Y332D01*
X3613Y332D02*
X3620Y332D01*
X0Y331D02*
X7Y331D01*
X3613Y331D02*
X3620Y331D01*
X0Y330D02*
X7Y330D01*
X3613Y330D02*
X3620Y330D01*
X0Y329D02*
X7Y329D01*
X3613Y329D02*
X3620Y329D01*
X0Y328D02*
X7Y328D01*
X3613Y328D02*
X3620Y328D01*
X0Y327D02*
X7Y327D01*
X3613Y327D02*
X3620Y327D01*
X0Y326D02*
X7Y326D01*
X3613Y326D02*
X3620Y326D01*
X0Y325D02*
X7Y325D01*
X3613Y325D02*
X3620Y325D01*
X0Y324D02*
X7Y324D01*
X3613Y324D02*
X3620Y324D01*
X0Y323D02*
X7Y323D01*
X3613Y323D02*
X3620Y323D01*
X0Y322D02*
X7Y322D01*
X3613Y322D02*
X3620Y322D01*
X0Y321D02*
X7Y321D01*
X3613Y321D02*
X3620Y321D01*
X0Y320D02*
X7Y320D01*
X3613Y320D02*
X3620Y320D01*
X0Y319D02*
X7Y319D01*
X3613Y319D02*
X3620Y319D01*
X0Y318D02*
X7Y318D01*
X3613Y318D02*
X3620Y318D01*
X0Y317D02*
X7Y317D01*
X3613Y317D02*
X3620Y317D01*
X0Y316D02*
X7Y316D01*
X3613Y316D02*
X3620Y316D01*
X0Y315D02*
X7Y315D01*
X3613Y315D02*
X3620Y315D01*
X0Y314D02*
X7Y314D01*
X3613Y314D02*
X3620Y314D01*
X0Y313D02*
X7Y313D01*
X3613Y313D02*
X3620Y313D01*
X0Y312D02*
X7Y312D01*
X3613Y312D02*
X3620Y312D01*
X0Y311D02*
X7Y311D01*
X3613Y311D02*
X3620Y311D01*
X0Y310D02*
X7Y310D01*
X3613Y310D02*
X3620Y310D01*
X0Y309D02*
X7Y309D01*
X3613Y309D02*
X3620Y309D01*
X0Y308D02*
X7Y308D01*
X3613Y308D02*
X3620Y308D01*
X0Y307D02*
X7Y307D01*
X3613Y307D02*
X3620Y307D01*
X0Y306D02*
X7Y306D01*
X3613Y306D02*
X3620Y306D01*
X0Y305D02*
X7Y305D01*
X3613Y305D02*
X3620Y305D01*
X0Y304D02*
X7Y304D01*
X3613Y304D02*
X3620Y304D01*
X0Y303D02*
X7Y303D01*
X3613Y303D02*
X3620Y303D01*
X0Y302D02*
X7Y302D01*
X3613Y302D02*
X3620Y302D01*
X0Y301D02*
X7Y301D01*
X3613Y301D02*
X3620Y301D01*
X0Y300D02*
X7Y300D01*
X3613Y300D02*
X3620Y300D01*
X0Y299D02*
X7Y299D01*
X3613Y299D02*
X3620Y299D01*
X0Y298D02*
X7Y298D01*
X3613Y298D02*
X3620Y298D01*
X0Y297D02*
X7Y297D01*
X3613Y297D02*
X3620Y297D01*
X0Y296D02*
X7Y296D01*
X3613Y296D02*
X3620Y296D01*
X0Y295D02*
X7Y295D01*
X3613Y295D02*
X3620Y295D01*
X0Y294D02*
X7Y294D01*
X3613Y294D02*
X3620Y294D01*
X0Y293D02*
X7Y293D01*
X3613Y293D02*
X3620Y293D01*
X0Y292D02*
X7Y292D01*
X3613Y292D02*
X3620Y292D01*
X0Y291D02*
X7Y291D01*
X3613Y291D02*
X3620Y291D01*
X0Y290D02*
X7Y290D01*
X3613Y290D02*
X3620Y290D01*
X0Y289D02*
X7Y289D01*
X3613Y289D02*
X3620Y289D01*
X0Y288D02*
X7Y288D01*
X3613Y288D02*
X3620Y288D01*
X0Y287D02*
X7Y287D01*
X3613Y287D02*
X3620Y287D01*
X0Y286D02*
X7Y286D01*
X3613Y286D02*
X3620Y286D01*
X0Y285D02*
X7Y285D01*
X3613Y285D02*
X3620Y285D01*
X0Y284D02*
X7Y284D01*
X3613Y284D02*
X3620Y284D01*
X0Y283D02*
X7Y283D01*
X3613Y283D02*
X3620Y283D01*
X0Y282D02*
X7Y282D01*
X3613Y282D02*
X3620Y282D01*
X0Y281D02*
X7Y281D01*
X3613Y281D02*
X3620Y281D01*
X0Y280D02*
X7Y280D01*
X3613Y280D02*
X3620Y280D01*
X0Y279D02*
X7Y279D01*
X3613Y279D02*
X3620Y279D01*
X0Y278D02*
X7Y278D01*
X3613Y278D02*
X3620Y278D01*
X0Y277D02*
X7Y277D01*
X3613Y277D02*
X3620Y277D01*
X0Y276D02*
X7Y276D01*
X3613Y276D02*
X3620Y276D01*
X0Y275D02*
X7Y275D01*
X3613Y275D02*
X3620Y275D01*
X0Y274D02*
X7Y274D01*
X3613Y274D02*
X3620Y274D01*
X0Y273D02*
X7Y273D01*
X3613Y273D02*
X3620Y273D01*
X0Y272D02*
X7Y272D01*
X3613Y272D02*
X3620Y272D01*
X0Y271D02*
X7Y271D01*
X3613Y271D02*
X3620Y271D01*
X0Y270D02*
X7Y270D01*
X3613Y270D02*
X3620Y270D01*
X0Y269D02*
X7Y269D01*
X3613Y269D02*
X3620Y269D01*
X0Y268D02*
X7Y268D01*
X3613Y268D02*
X3620Y268D01*
X0Y267D02*
X7Y267D01*
X3613Y267D02*
X3620Y267D01*
X0Y266D02*
X7Y266D01*
X3613Y266D02*
X3620Y266D01*
X0Y265D02*
X7Y265D01*
X3613Y265D02*
X3620Y265D01*
X0Y264D02*
X7Y264D01*
X3613Y264D02*
X3620Y264D01*
X0Y263D02*
X7Y263D01*
X3613Y263D02*
X3620Y263D01*
X0Y262D02*
X7Y262D01*
X3613Y262D02*
X3620Y262D01*
X0Y261D02*
X7Y261D01*
X3613Y261D02*
X3620Y261D01*
X0Y260D02*
X7Y260D01*
X3613Y260D02*
X3620Y260D01*
X0Y259D02*
X7Y259D01*
X3613Y259D02*
X3620Y259D01*
X0Y258D02*
X7Y258D01*
X3613Y258D02*
X3620Y258D01*
X0Y257D02*
X7Y257D01*
X3613Y257D02*
X3620Y257D01*
X0Y256D02*
X7Y256D01*
X3613Y256D02*
X3620Y256D01*
X0Y255D02*
X7Y255D01*
X3613Y255D02*
X3620Y255D01*
X0Y254D02*
X7Y254D01*
X3613Y254D02*
X3620Y254D01*
X0Y253D02*
X7Y253D01*
X3613Y253D02*
X3620Y253D01*
X0Y252D02*
X7Y252D01*
X3613Y252D02*
X3620Y252D01*
X0Y251D02*
X7Y251D01*
X3613Y251D02*
X3620Y251D01*
X0Y250D02*
X7Y250D01*
X3613Y250D02*
X3620Y250D01*
X0Y249D02*
X7Y249D01*
X3613Y249D02*
X3620Y249D01*
X0Y248D02*
X7Y248D01*
X3613Y248D02*
X3620Y248D01*
X0Y247D02*
X7Y247D01*
X3613Y247D02*
X3620Y247D01*
X0Y246D02*
X7Y246D01*
X3613Y246D02*
X3620Y246D01*
X0Y245D02*
X7Y245D01*
X3613Y245D02*
X3620Y245D01*
X0Y244D02*
X7Y244D01*
X3613Y244D02*
X3620Y244D01*
X0Y243D02*
X7Y243D01*
X3613Y243D02*
X3620Y243D01*
X0Y242D02*
X7Y242D01*
X3613Y242D02*
X3620Y242D01*
X0Y241D02*
X7Y241D01*
X3613Y241D02*
X3620Y241D01*
X0Y240D02*
X7Y240D01*
X3613Y240D02*
X3620Y240D01*
X0Y239D02*
X7Y239D01*
X3613Y239D02*
X3620Y239D01*
X0Y238D02*
X7Y238D01*
X3613Y238D02*
X3620Y238D01*
X0Y237D02*
X7Y237D01*
X3613Y237D02*
X3620Y237D01*
X0Y236D02*
X7Y236D01*
X3613Y236D02*
X3620Y236D01*
X0Y235D02*
X7Y235D01*
X3613Y235D02*
X3620Y235D01*
X0Y234D02*
X7Y234D01*
X3613Y234D02*
X3620Y234D01*
X0Y233D02*
X7Y233D01*
X3613Y233D02*
X3620Y233D01*
X0Y232D02*
X7Y232D01*
X3613Y232D02*
X3620Y232D01*
X0Y231D02*
X7Y231D01*
X3613Y231D02*
X3620Y231D01*
X0Y230D02*
X7Y230D01*
X3613Y230D02*
X3620Y230D01*
X0Y229D02*
X7Y229D01*
X3613Y229D02*
X3620Y229D01*
X0Y228D02*
X7Y228D01*
X3613Y228D02*
X3620Y228D01*
X0Y227D02*
X7Y227D01*
X3613Y227D02*
X3620Y227D01*
X0Y226D02*
X7Y226D01*
X3613Y226D02*
X3620Y226D01*
X0Y225D02*
X7Y225D01*
X3613Y225D02*
X3620Y225D01*
X0Y224D02*
X7Y224D01*
X3613Y224D02*
X3620Y224D01*
X0Y223D02*
X7Y223D01*
X3613Y223D02*
X3620Y223D01*
X0Y222D02*
X7Y222D01*
X3613Y222D02*
X3620Y222D01*
X0Y221D02*
X7Y221D01*
X3613Y221D02*
X3620Y221D01*
X0Y220D02*
X7Y220D01*
X3613Y220D02*
X3620Y220D01*
X0Y219D02*
X7Y219D01*
X3613Y219D02*
X3620Y219D01*
X0Y218D02*
X7Y218D01*
X3613Y218D02*
X3620Y218D01*
X0Y217D02*
X7Y217D01*
X3613Y217D02*
X3620Y217D01*
X0Y216D02*
X7Y216D01*
X3613Y216D02*
X3620Y216D01*
X0Y215D02*
X7Y215D01*
X3613Y215D02*
X3620Y215D01*
X0Y214D02*
X7Y214D01*
X3613Y214D02*
X3620Y214D01*
X0Y213D02*
X7Y213D01*
X3613Y213D02*
X3620Y213D01*
X0Y212D02*
X7Y212D01*
X3613Y212D02*
X3620Y212D01*
X0Y211D02*
X7Y211D01*
X3613Y211D02*
X3620Y211D01*
X0Y210D02*
X7Y210D01*
X3613Y210D02*
X3620Y210D01*
X0Y209D02*
X7Y209D01*
X3613Y209D02*
X3620Y209D01*
X0Y208D02*
X7Y208D01*
X3613Y208D02*
X3620Y208D01*
X0Y207D02*
X7Y207D01*
X3613Y207D02*
X3620Y207D01*
X0Y206D02*
X7Y206D01*
X3613Y206D02*
X3620Y206D01*
X0Y205D02*
X7Y205D01*
X3613Y205D02*
X3620Y205D01*
X0Y204D02*
X7Y204D01*
X3613Y204D02*
X3620Y204D01*
X0Y203D02*
X7Y203D01*
X3613Y203D02*
X3620Y203D01*
X0Y202D02*
X7Y202D01*
X3613Y202D02*
X3620Y202D01*
X0Y201D02*
X7Y201D01*
X3613Y201D02*
X3620Y201D01*
X0Y200D02*
X7Y200D01*
X3613Y200D02*
X3620Y200D01*
X0Y199D02*
X7Y199D01*
X3613Y199D02*
X3620Y199D01*
X0Y198D02*
X7Y198D01*
X3613Y198D02*
X3620Y198D01*
X0Y197D02*
X7Y197D01*
X3613Y197D02*
X3620Y197D01*
X0Y196D02*
X7Y196D01*
X3613Y196D02*
X3620Y196D01*
X0Y195D02*
X7Y195D01*
X3613Y195D02*
X3620Y195D01*
X0Y194D02*
X7Y194D01*
X3613Y194D02*
X3620Y194D01*
X0Y193D02*
X7Y193D01*
X3613Y193D02*
X3620Y193D01*
X0Y192D02*
X7Y192D01*
X3613Y192D02*
X3620Y192D01*
X0Y191D02*
X7Y191D01*
X3613Y191D02*
X3620Y191D01*
X0Y190D02*
X7Y190D01*
X3613Y190D02*
X3620Y190D01*
X0Y189D02*
X7Y189D01*
X3613Y189D02*
X3620Y189D01*
X0Y188D02*
X7Y188D01*
X3613Y188D02*
X3620Y188D01*
X0Y187D02*
X7Y187D01*
X3613Y187D02*
X3620Y187D01*
X0Y186D02*
X7Y186D01*
X3613Y186D02*
X3620Y186D01*
X0Y185D02*
X7Y185D01*
X3613Y185D02*
X3620Y185D01*
X0Y184D02*
X7Y184D01*
X3613Y184D02*
X3620Y184D01*
X0Y183D02*
X7Y183D01*
X3613Y183D02*
X3620Y183D01*
X0Y182D02*
X7Y182D01*
X3613Y182D02*
X3620Y182D01*
X0Y181D02*
X7Y181D01*
X3613Y181D02*
X3620Y181D01*
X0Y180D02*
X7Y180D01*
X3613Y180D02*
X3620Y180D01*
X0Y179D02*
X7Y179D01*
X3613Y179D02*
X3620Y179D01*
X0Y178D02*
X7Y178D01*
X3613Y178D02*
X3620Y178D01*
X0Y177D02*
X7Y177D01*
X3613Y177D02*
X3620Y177D01*
X0Y176D02*
X7Y176D01*
X3613Y176D02*
X3620Y176D01*
X0Y175D02*
X7Y175D01*
X3613Y175D02*
X3620Y175D01*
X0Y174D02*
X7Y174D01*
X3613Y174D02*
X3620Y174D01*
X0Y173D02*
X7Y173D01*
X3613Y173D02*
X3620Y173D01*
X0Y172D02*
X7Y172D01*
X3613Y172D02*
X3620Y172D01*
X0Y171D02*
X7Y171D01*
X3613Y171D02*
X3620Y171D01*
X0Y170D02*
X7Y170D01*
X3613Y170D02*
X3620Y170D01*
X0Y169D02*
X7Y169D01*
X3613Y169D02*
X3620Y169D01*
X0Y168D02*
X7Y168D01*
X3613Y168D02*
X3620Y168D01*
X0Y167D02*
X7Y167D01*
X3613Y167D02*
X3620Y167D01*
X0Y166D02*
X7Y166D01*
X3613Y166D02*
X3620Y166D01*
X0Y165D02*
X7Y165D01*
X3613Y165D02*
X3620Y165D01*
X0Y164D02*
X7Y164D01*
X3613Y164D02*
X3620Y164D01*
X0Y163D02*
X7Y163D01*
X3613Y163D02*
X3620Y163D01*
X0Y162D02*
X7Y162D01*
X3613Y162D02*
X3620Y162D01*
X0Y161D02*
X7Y161D01*
X3613Y161D02*
X3620Y161D01*
X0Y160D02*
X7Y160D01*
X3613Y160D02*
X3620Y160D01*
X0Y159D02*
X7Y159D01*
X3613Y159D02*
X3620Y159D01*
X0Y158D02*
X7Y158D01*
X3613Y158D02*
X3620Y158D01*
X0Y157D02*
X7Y157D01*
X3613Y157D02*
X3620Y157D01*
X0Y156D02*
X7Y156D01*
X3613Y156D02*
X3620Y156D01*
X0Y155D02*
X7Y155D01*
X3613Y155D02*
X3620Y155D01*
X0Y154D02*
X7Y154D01*
X3613Y154D02*
X3620Y154D01*
X0Y153D02*
X7Y153D01*
X3613Y153D02*
X3620Y153D01*
X0Y152D02*
X7Y152D01*
X3613Y152D02*
X3620Y152D01*
X0Y151D02*
X7Y151D01*
X3613Y151D02*
X3620Y151D01*
X0Y150D02*
X7Y150D01*
X3613Y150D02*
X3620Y150D01*
X0Y149D02*
X7Y149D01*
X3613Y149D02*
X3620Y149D01*
X0Y148D02*
X7Y148D01*
X3613Y148D02*
X3620Y148D01*
X0Y147D02*
X7Y147D01*
X3613Y147D02*
X3620Y147D01*
X0Y146D02*
X7Y146D01*
X3613Y146D02*
X3620Y146D01*
X0Y145D02*
X7Y145D01*
X3613Y145D02*
X3620Y145D01*
X0Y144D02*
X7Y144D01*
X3613Y144D02*
X3620Y144D01*
X0Y143D02*
X7Y143D01*
X3613Y143D02*
X3620Y143D01*
X0Y142D02*
X7Y142D01*
X3613Y142D02*
X3620Y142D01*
X0Y141D02*
X7Y141D01*
X3613Y141D02*
X3620Y141D01*
X0Y140D02*
X7Y140D01*
X3613Y140D02*
X3620Y140D01*
X0Y139D02*
X7Y139D01*
X3613Y139D02*
X3620Y139D01*
X0Y138D02*
X7Y138D01*
X3613Y138D02*
X3620Y138D01*
X0Y137D02*
X7Y137D01*
X3613Y137D02*
X3620Y137D01*
X0Y136D02*
X7Y136D01*
X3613Y136D02*
X3620Y136D01*
X0Y135D02*
X7Y135D01*
X3613Y135D02*
X3620Y135D01*
X0Y134D02*
X7Y134D01*
X3613Y134D02*
X3620Y134D01*
X0Y133D02*
X7Y133D01*
X3613Y133D02*
X3620Y133D01*
X0Y132D02*
X7Y132D01*
X3613Y132D02*
X3620Y132D01*
X0Y131D02*
X7Y131D01*
X3613Y131D02*
X3620Y131D01*
X0Y130D02*
X7Y130D01*
X3613Y130D02*
X3620Y130D01*
X0Y129D02*
X7Y129D01*
X3613Y129D02*
X3620Y129D01*
X0Y128D02*
X7Y128D01*
X3613Y128D02*
X3620Y128D01*
X0Y127D02*
X7Y127D01*
X3613Y127D02*
X3620Y127D01*
X0Y126D02*
X7Y126D01*
X3613Y126D02*
X3620Y126D01*
X0Y125D02*
X7Y125D01*
X3613Y125D02*
X3620Y125D01*
X0Y124D02*
X7Y124D01*
X3613Y124D02*
X3620Y124D01*
X0Y123D02*
X7Y123D01*
X3613Y123D02*
X3620Y123D01*
X0Y122D02*
X7Y122D01*
X3613Y122D02*
X3620Y122D01*
X0Y121D02*
X7Y121D01*
X3613Y121D02*
X3620Y121D01*
X0Y120D02*
X7Y120D01*
X3613Y120D02*
X3620Y120D01*
X0Y119D02*
X7Y119D01*
X3613Y119D02*
X3620Y119D01*
X0Y118D02*
X7Y118D01*
X3613Y118D02*
X3620Y118D01*
X0Y117D02*
X7Y117D01*
X3613Y117D02*
X3620Y117D01*
X0Y116D02*
X7Y116D01*
X3613Y116D02*
X3620Y116D01*
X0Y115D02*
X7Y115D01*
X3613Y115D02*
X3620Y115D01*
X0Y114D02*
X7Y114D01*
X3613Y114D02*
X3620Y114D01*
X0Y113D02*
X7Y113D01*
X3613Y113D02*
X3620Y113D01*
X0Y112D02*
X7Y112D01*
X3613Y112D02*
X3620Y112D01*
X0Y111D02*
X7Y111D01*
X3613Y111D02*
X3620Y111D01*
X0Y110D02*
X7Y110D01*
X3613Y110D02*
X3620Y110D01*
X0Y109D02*
X7Y109D01*
X3613Y109D02*
X3620Y109D01*
X0Y108D02*
X7Y108D01*
X3613Y108D02*
X3620Y108D01*
X0Y107D02*
X7Y107D01*
X3613Y107D02*
X3620Y107D01*
X0Y106D02*
X7Y106D01*
X3613Y106D02*
X3620Y106D01*
X0Y105D02*
X7Y105D01*
X3613Y105D02*
X3620Y105D01*
X0Y104D02*
X7Y104D01*
X3613Y104D02*
X3620Y104D01*
X0Y103D02*
X7Y103D01*
X3613Y103D02*
X3620Y103D01*
X0Y102D02*
X7Y102D01*
X3613Y102D02*
X3620Y102D01*
X0Y101D02*
X7Y101D01*
X3613Y101D02*
X3620Y101D01*
X0Y100D02*
X7Y100D01*
X3613Y100D02*
X3620Y100D01*
X0Y99D02*
X7Y99D01*
X3613Y99D02*
X3620Y99D01*
X0Y98D02*
X7Y98D01*
X3613Y98D02*
X3620Y98D01*
X0Y97D02*
X7Y97D01*
X3613Y97D02*
X3620Y97D01*
X0Y96D02*
X7Y96D01*
X3613Y96D02*
X3620Y96D01*
X0Y95D02*
X7Y95D01*
X3613Y95D02*
X3620Y95D01*
X0Y94D02*
X7Y94D01*
X3613Y94D02*
X3620Y94D01*
X0Y93D02*
X7Y93D01*
X3613Y93D02*
X3620Y93D01*
X0Y92D02*
X7Y92D01*
X3613Y92D02*
X3620Y92D01*
X0Y91D02*
X7Y91D01*
X3613Y91D02*
X3620Y91D01*
X0Y90D02*
X7Y90D01*
X3613Y90D02*
X3620Y90D01*
X0Y89D02*
X7Y89D01*
X3613Y89D02*
X3620Y89D01*
X0Y88D02*
X7Y88D01*
X3613Y88D02*
X3620Y88D01*
X0Y87D02*
X7Y87D01*
X3613Y87D02*
X3620Y87D01*
X0Y86D02*
X7Y86D01*
X3613Y86D02*
X3620Y86D01*
X0Y85D02*
X7Y85D01*
X3613Y85D02*
X3620Y85D01*
X0Y84D02*
X7Y84D01*
X3613Y84D02*
X3620Y84D01*
X0Y83D02*
X7Y83D01*
X3613Y83D02*
X3620Y83D01*
X0Y82D02*
X7Y82D01*
X3613Y82D02*
X3620Y82D01*
X0Y81D02*
X7Y81D01*
X3613Y81D02*
X3620Y81D01*
X0Y80D02*
X7Y80D01*
X3613Y80D02*
X3620Y80D01*
X0Y79D02*
X7Y79D01*
X3613Y79D02*
X3620Y79D01*
X0Y78D02*
X7Y78D01*
X3613Y78D02*
X3620Y78D01*
X0Y77D02*
X7Y77D01*
X3613Y77D02*
X3620Y77D01*
X0Y76D02*
X7Y76D01*
X3613Y76D02*
X3620Y76D01*
X0Y75D02*
X7Y75D01*
X3613Y75D02*
X3620Y75D01*
X0Y74D02*
X7Y74D01*
X3613Y74D02*
X3620Y74D01*
X0Y73D02*
X7Y73D01*
X3613Y73D02*
X3620Y73D01*
X0Y72D02*
X7Y72D01*
X3613Y72D02*
X3620Y72D01*
X0Y71D02*
X7Y71D01*
X3613Y71D02*
X3620Y71D01*
X0Y70D02*
X7Y70D01*
X3613Y70D02*
X3620Y70D01*
X0Y69D02*
X7Y69D01*
X3613Y69D02*
X3620Y69D01*
X0Y68D02*
X7Y68D01*
X3613Y68D02*
X3620Y68D01*
X0Y67D02*
X7Y67D01*
X3613Y67D02*
X3620Y67D01*
X0Y66D02*
X7Y66D01*
X3613Y66D02*
X3620Y66D01*
X0Y65D02*
X7Y65D01*
X3613Y65D02*
X3620Y65D01*
X0Y64D02*
X7Y64D01*
X3613Y64D02*
X3620Y64D01*
X0Y63D02*
X7Y63D01*
X3613Y63D02*
X3620Y63D01*
X0Y62D02*
X7Y62D01*
X3613Y62D02*
X3620Y62D01*
X0Y61D02*
X7Y61D01*
X3613Y61D02*
X3620Y61D01*
X0Y60D02*
X7Y60D01*
X3613Y60D02*
X3620Y60D01*
X0Y59D02*
X7Y59D01*
X3613Y59D02*
X3620Y59D01*
X0Y58D02*
X7Y58D01*
X3613Y58D02*
X3620Y58D01*
X0Y57D02*
X7Y57D01*
X3613Y57D02*
X3620Y57D01*
X0Y56D02*
X7Y56D01*
X3613Y56D02*
X3620Y56D01*
X0Y55D02*
X7Y55D01*
X3613Y55D02*
X3620Y55D01*
X0Y54D02*
X7Y54D01*
X3613Y54D02*
X3620Y54D01*
X0Y53D02*
X7Y53D01*
X3613Y53D02*
X3620Y53D01*
X0Y52D02*
X7Y52D01*
X3613Y52D02*
X3620Y52D01*
X0Y51D02*
X7Y51D01*
X3613Y51D02*
X3620Y51D01*
X0Y50D02*
X7Y50D01*
X3613Y50D02*
X3620Y50D01*
X0Y49D02*
X7Y49D01*
X3613Y49D02*
X3620Y49D01*
X0Y48D02*
X7Y48D01*
X3613Y48D02*
X3620Y48D01*
X0Y47D02*
X7Y47D01*
X3613Y47D02*
X3620Y47D01*
X0Y46D02*
X7Y46D01*
X3613Y46D02*
X3620Y46D01*
X0Y45D02*
X7Y45D01*
X3613Y45D02*
X3620Y45D01*
X0Y44D02*
X7Y44D01*
X3613Y44D02*
X3620Y44D01*
X0Y43D02*
X7Y43D01*
X3613Y43D02*
X3620Y43D01*
X0Y42D02*
X7Y42D01*
X3613Y42D02*
X3620Y42D01*
X0Y41D02*
X7Y41D01*
X3613Y41D02*
X3620Y41D01*
X0Y40D02*
X7Y40D01*
X3613Y40D02*
X3620Y40D01*
X0Y39D02*
X7Y39D01*
X3613Y39D02*
X3620Y39D01*
X0Y38D02*
X7Y38D01*
X3613Y38D02*
X3620Y38D01*
X0Y37D02*
X7Y37D01*
X3613Y37D02*
X3620Y37D01*
X0Y36D02*
X7Y36D01*
X3613Y36D02*
X3620Y36D01*
X0Y35D02*
X7Y35D01*
X3613Y35D02*
X3620Y35D01*
X0Y34D02*
X7Y34D01*
X3613Y34D02*
X3620Y34D01*
X0Y33D02*
X7Y33D01*
X3613Y33D02*
X3620Y33D01*
X0Y32D02*
X7Y32D01*
X3613Y32D02*
X3620Y32D01*
X0Y31D02*
X7Y31D01*
X3613Y31D02*
X3620Y31D01*
X0Y30D02*
X7Y30D01*
X3613Y30D02*
X3620Y30D01*
X0Y29D02*
X7Y29D01*
X3613Y29D02*
X3620Y29D01*
X0Y28D02*
X7Y28D01*
X3613Y28D02*
X3620Y28D01*
X0Y27D02*
X7Y27D01*
X3613Y27D02*
X3620Y27D01*
X0Y26D02*
X7Y26D01*
X3613Y26D02*
X3620Y26D01*
X0Y25D02*
X7Y25D01*
X3613Y25D02*
X3620Y25D01*
X0Y24D02*
X7Y24D01*
X3613Y24D02*
X3620Y24D01*
X0Y23D02*
X7Y23D01*
X3613Y23D02*
X3620Y23D01*
X0Y22D02*
X7Y22D01*
X3613Y22D02*
X3620Y22D01*
X0Y21D02*
X7Y21D01*
X3613Y21D02*
X3620Y21D01*
X0Y20D02*
X7Y20D01*
X3613Y20D02*
X3620Y20D01*
X0Y19D02*
X7Y19D01*
X3613Y19D02*
X3620Y19D01*
X0Y18D02*
X7Y18D01*
X3613Y18D02*
X3620Y18D01*
X0Y17D02*
X7Y17D01*
X3613Y17D02*
X3620Y17D01*
X0Y16D02*
X7Y16D01*
X3613Y16D02*
X3620Y16D01*
X0Y15D02*
X7Y15D01*
X3613Y15D02*
X3620Y15D01*
X0Y14D02*
X7Y14D01*
X3613Y14D02*
X3620Y14D01*
X0Y13D02*
X7Y13D01*
X3613Y13D02*
X3620Y13D01*
X0Y12D02*
X7Y12D01*
X3613Y12D02*
X3620Y12D01*
X0Y11D02*
X7Y11D01*
X3613Y11D02*
X3620Y11D01*
X0Y10D02*
X7Y10D01*
X3613Y10D02*
X3620Y10D01*
X0Y9D02*
X3620Y9D01*
X0Y8D02*
X3620Y8D01*
X0Y7D02*
X3620Y7D01*
X0Y6D02*
X3620Y6D01*
X0Y5D02*
X3620Y5D01*
X0Y4D02*
X3620Y4D01*
X0Y3D02*
X3620Y3D01*
X0Y2D02*
X3620Y2D01*
D02*
G04 End of Silk0*
M02*