; NON-PLATED HOLES START AT T1
; THROUGH (PLATED) HOLES START AT T100
M48
INCH
T1C0.052333
T2C0.052306
T100C0.035000
T101C0.080000
T102C0.046111
T103C0.031250
T104C0.051139
%
T1
X014804Y023502
X031405Y023502
X024405Y023502
X015804Y023502
X022804Y023502
X017805Y023502
X018805Y023502
X028404Y023502
X025405Y023502
X030405Y023502
X019805Y023502
X020805Y023502
X013804Y023502
X027405Y023502
X016805Y023502
X029405Y023502
X021805Y023502
X026405Y023502
T2
X028404Y004502
X018405Y004502
X021405Y004502
X020405Y004502
X027405Y004502
X031405Y004502
X024405Y004502
X017405Y004502
X019405Y004502
X023404Y004502
X026405Y004502
X030405Y004502
X022405Y004502
X029405Y004502
T100
X017405Y010502
X031405Y025502
X016405Y025502
X024405Y024502
X021405Y025502
X004405Y006502
X023405Y010502
X017405Y025502
X026405Y025502
X017405Y006502
X022405Y025502
X033405Y025502
X003405Y005502
X021405Y018502
X025405Y025502
X008405Y021502
X024405Y025502
X026405Y028502
X027405Y025502
X018405Y025502
X003405Y019502
X032405Y025502
X030405Y025502
X028405Y025502
X032405Y026502
X020405Y025502
X013405Y007502
X027405Y021502
X026405Y010502
X030405Y027502
X022405Y018502
X023405Y025502
X029405Y025502
X016405Y021502
X003405Y015502
X019405Y025502
T101
X003405Y017402
X003405Y022502
T102
X022405Y021502
X021405Y021502
X024405Y021502
X023405Y021502
T103
X012405Y025502
X008405Y025502
X011405Y025502
X009405Y025502
X010404Y025502
X013405Y025502
T104
X004405Y008879
X004405Y011636
X004405Y007502
X004405Y010257
T00
M30
