<?xml version='1.0' encoding='UTF-8' standalone='no'?>
<!-- Created with Fritzing (http://www.fritzing.org/) -->
<svg xmlns="http://www.w3.org/2000/svg" baseProfile="tiny" x="0in" width="3.6218in" version="1.2" y="0in" height="3.0168in" xmlns:svg="http://www.w3.org/2000/svg" viewBox="0 0 260.769 217.21" >
 <g partID="57470">
  <g id="board" >
   <rect x="0.288" width="260.193" y="0.288" height="216.634" fill-opacity="0.5" fill="none" stroke-width="0.5" stroke="black" id="boardoutline" />
  </g>
 </g>
 <g partID="854219360">
  <g transform="translate(41.6428,126.119)">
   <g transform="matrix(0,1,-1,0,0,0)">
    <g flipped="1" id="copper0">
     <g transform="matrix(-1, 0, 0, 1, 43.379, 0)">
      <g>
       <g>
        <g>
         <g id="copper0">
          <g cx="6.304" fill="none" stroke-width="0.9" stroke="black" id="0" cy="9.926" r="2.291"/>
          <g d="M3.424,7.046l5.76,0l0,5.761l-5.76,0L3.424,7.046zM4.603,9.926c0,0.939,0.762,1.7,1.701,1.7c0.939,0,1.7,-0.761,1.7,-1.7l0,0c0,-0.939,-0.761,-1.701,-1.7,-1.701C5.365,8.225,4.603,8.987,4.603,9.926z" fill="black" stroke-width="0" id="1"/>
          <g cx="16.224" fill="none" stroke-width="0.9" stroke="black" id="2" cy="9.926" r="2.291"/>
          <g cx="26.146" fill="none" stroke-width="0.9" stroke="black" id="3" cy="9.926" r="2.291"/>
          <g cx="36.068" fill="none" stroke-width="0.9" stroke="black" id="4" cy="9.926" r="2.291"/>
         </g>
        </g>
        <g>
         <g cx="6.304" fill="none" stroke-width="0.9" stroke="black" id="5" cy="9.926" r="2.291"/>
         <g d="M3.424,7.046l5.76,0l0,5.761l-5.76,0L3.424,7.046zM4.603,9.926c0,0.939,0.762,1.7,1.701,1.7c0.939,0,1.7,-0.761,1.7,-1.7l0,0c0,-0.939,-0.761,-1.701,-1.7,-1.701C5.365,8.225,4.603,8.987,4.603,9.926z" fill="black" stroke-width="0" id="6"/>
         <g cx="16.224" fill="none" stroke-width="0.9" stroke="black" id="7" cy="9.926" r="2.291"/>
         <g cx="26.146" fill="none" stroke-width="0.9" stroke="black" id="8" cy="9.926" r="2.291"/>
         <g cx="36.068" fill="none" stroke-width="0.9" stroke="black" id="9" cy="9.926" r="2.291"/>
        </g>
       </g>
      </g>
     </g>
    </g>
   </g>
  </g>
 </g>
 <g partID="854289040">
  <g transform="translate(120.565,136.842)">
   <g id="copper0" >
    <g cx="4.752" fill="none" stroke-width="1.44" stroke="black" id="10"  cy="33.552" r="1.98"/>
    <g cx="4.752" fill="none" stroke-width="1.44" stroke="black" id="11"  cy="4.752" r="1.98"/>
   </g>
  </g>
 </g>
 <g partID="854289860">
  <g transform="translate(163.765,136.842)">
   <g id="copper0" >
    <g cx="4.752" fill="none" stroke-width="1.44" stroke="black" id="12"  cy="4.752" r="1.98"/>
    <g cx="26.352" fill="none" stroke-width="1.44" stroke="black" id="13"  cy="4.752" r="1.98"/>
   </g>
  </g>
 </g>
 <g partID="854295450">
  <g transform="translate(19.7648,158.442)">
   <g id="copper0" >
    <g cx="4.752" fill="none" stroke-width="1.44" stroke="black" id="14"  cy="19.152" r="1.98"/>
    <g cx="76.752" fill="none" stroke-width="1.44" stroke="black" id="15"  cy="4.752" r="1.98"/>
   </g>
  </g>
 </g>
 <g partID="854301570">
  <g transform="translate(192.565,21.642)">
   <g id="copper0" >
    <g cx="4.752" fill="none" stroke-width="1.44" stroke="black" id="16"  cy="40.752" r="1.98"/>
    <g cx="40.752" fill="none" stroke-width="1.44" stroke="black" id="17"  cy="4.752" r="1.98"/>
   </g>
  </g>
 </g>
 <g partID="854302160">
  <g transform="translate(170.965,14.442)">
   <g id="copper0" >
    <g cx="4.752" fill="none" stroke-width="1.44" stroke="black" id="18"  cy="26.352" r="1.98"/>
    <g cx="47.952" fill="none" stroke-width="1.44" stroke="black" id="19"  cy="4.752" r="1.98"/>
   </g>
  </g>
 </g>
 <g partID="854302340">
  <g transform="translate(19.7648,100.842)">
   <g id="copper0" >
    <g cx="11.952" fill="none" stroke-width="1.44" stroke="black" id="20"  cy="69.552" r="1.98"/>
    <g cx="4.752" fill="none" stroke-width="1.44" stroke="black" id="21"  cy="4.752" r="1.98"/>
   </g>
  </g>
 </g>
 <g partID="854305670">
  <g transform="translate(113.365,28.842)">
   <g id="copper0" >
    <g cx="4.752" fill="none" stroke-width="1.44" stroke="black" id="22"  cy="33.552" r="1.98"/>
    <g cx="11.952" fill="none" stroke-width="1.44" stroke="black" id="23"  cy="4.752" r="1.98"/>
   </g>
  </g>
 </g>
 <g partID="854306240">
  <g transform="translate(113.365,28.842)">
   <g id="copper0" >
    <g cx="40.752" fill="none" stroke-width="1.44" stroke="black" id="24"  cy="55.152" r="1.98"/>
    <g cx="4.752" fill="none" stroke-width="1.44" stroke="black" id="25"  cy="4.752" r="1.98"/>
   </g>
  </g>
 </g>
 <g partID="854306750">
  <g transform="translate(156.565,7.242)">
   <g id="copper0" >
    <g cx="33.552" fill="none" stroke-width="1.44" stroke="black" id="26"  cy="4.752" r="1.98"/>
    <g cx="4.752" fill="none" stroke-width="1.44" stroke="black" id="27"  cy="76.752" r="1.98"/>
   </g>
  </g>
 </g>
 <g partID="854310620">
  <g transform="translate(19.7648,57.642)">
   <g id="copper0" >
    <g cx="4.752" fill="none" stroke-width="1.44" stroke="black" id="28"  cy="19.152" r="1.98"/>
    <g cx="40.752" fill="none" stroke-width="1.44" stroke="black" id="29"  cy="4.752" r="1.98"/>
   </g>
  </g>
 </g>
 <g partID="854184250">
  <g transform="translate(-126.143,30.534)">
   <g id="copper0" >
    <g cx="150.66" stroke-width="0.72" fill="none" connectorname="V+" stroke="black" id="30"  cy="24.66" r="3.24"/>
    <g d="m147.06,21.06,7.2,0,0,7.2,-7.2,0,0,-7.2zM147.78,24.66a2.88,2.88,0,1,0,5.76,0,2.88,2.88,0,1,0,-5.76,0z" stroke-width="0" fill="black" stroke="none" id="31" />
    <g cx="150.66" stroke-width="0.72" fill="none" connectorname="V-" stroke="black" id="32"  cy="61.38" r="3.24"/>
    <g d="m147.06,57.78,7.2,0,0,7.2,-7.2,0,0,-7.2zM147.78,61.38a2.88,2.88,0,1,0,5.76,0,2.88,2.88,0,1,0,-5.76,0z" stroke-width="0" fill="black" stroke="none" id="33" />
    <circle cx="77.22" stroke-width="0" fill="black" stroke="black" id="34"  cy="74.34" r="3.24"/>
    <circle cx="39.06" stroke-width="0" fill="black" stroke="black" id="35"  cy="10.98" r="3.24"/>
    <circle cx="115.38" stroke-width="0" fill="black" stroke="black" id="36"  cy="10.98" r="3.24"/>
   </g>
  </g>
 </g>
 <g partID="59950">
  <g transform="translate(45.9316,40.794)">
   <g id="copper0" >
    <g cx="151.384" fill="none" stroke-width="1" stroke="black" id="37"  cy="144" r="1.883"/>
    <g cx="158.583" fill="none" stroke-width="1" stroke="black" id="38"  cy="144" r="1.883"/>
    <g cx="165.786" fill="none" stroke-width="1" stroke="black" id="39"  cy="144" r="1.883"/>
    <g cx="172.985" fill="none" stroke-width="1" stroke="black" id="40"  cy="144" r="1.883"/>
    <g cx="180.185" fill="none" stroke-width="1" stroke="black" id="41"  cy="144" r="1.883"/>
    <g cx="118.263" fill="none" stroke-width="1" stroke="black" id="42"  cy="7.2" r="1.884"/>
    <g cx="111.065" fill="none" stroke-width="1" stroke="black" id="43"  cy="7.2" r="1.884"/>
    <g cx="103.864" fill="none" stroke-width="1" stroke="black" id="44"  cy="7.2" r="1.884"/>
    <g cx="96.664" fill="none" stroke-width="1" stroke="black" id="45"  cy="7.2" r="1.884"/>
    <g cx="89.464" fill="none" stroke-width="1" stroke="black" id="46"  cy="7.2" r="1.884"/>
    <g cx="82.264" fill="none" stroke-width="1" stroke="black" id="47"  cy="7.2" r="1.884"/>
    <g cx="75.064" fill="none" stroke-width="1" stroke="black" id="48"  cy="7.2" r="1.884"/>
    <g cx="67.864" fill="none" stroke-width="1" stroke="black" id="49"  cy="7.2" r="1.884"/>
    <g cx="60.664" fill="none" stroke-width="1" stroke="black" id="50"  cy="7.2" r="1.884"/>
    <g cx="53.463" fill="none" stroke-width="1" stroke="black" id="51"  cy="7.2" r="1.884"/>
    <g cx="180.185" fill="none" stroke-width="1" stroke="black" id="52"  cy="7.2" r="1.884"/>
    <g cx="172.985" fill="none" stroke-width="1" stroke="black" id="53"  cy="7.2" r="1.884"/>
    <g cx="165.786" fill="none" stroke-width="1" stroke="black" id="54"  cy="7.2" r="1.884"/>
    <g cx="158.583" fill="none" stroke-width="1" stroke="black" id="55"  cy="7.2" r="1.884"/>
    <g cx="151.384" fill="none" stroke-width="1" stroke="black" id="56"  cy="7.2" r="1.884"/>
    <g cx="144.185" fill="none" stroke-width="1" stroke="black" id="57"  cy="7.2" r="1.884"/>
    <g cx="136.985" fill="none" stroke-width="1" stroke="black" id="58"  cy="7.2" r="1.884"/>
    <g cx="129.784" fill="none" stroke-width="1" stroke="black" id="59"  cy="7.2" r="1.884"/>
    <g cx="86.584" fill="none" stroke-width="1" stroke="black" id="60"  cy="144" r="1.883"/>
    <g cx="79.384" fill="none" stroke-width="1" stroke="black" id="61"  cy="144" r="1.883"/>
    <g cx="93.784" fill="none" stroke-width="1" stroke="black" id="62"  cy="144" r="1.883"/>
    <g cx="100.985" fill="none" stroke-width="1" stroke="black" id="63"  cy="144" r="1.883"/>
    <g cx="108.185" fill="none" stroke-width="1" stroke="black" id="64"  cy="144" r="1.883"/>
    <g cx="115.384" fill="none" stroke-width="1" stroke="black" id="65"  cy="144" r="1.883"/>
    <g cx="122.583" fill="none" stroke-width="1" stroke="black" id="66"  cy="144" r="1.883"/>
    <g cx="129.784" fill="none" stroke-width="1" stroke="black" id="67"  cy="144" r="1.883"/>
    <g cx="144.185" fill="none" stroke-width="1" stroke="black" id="68"  cy="144" r="1.883"/>
   </g>
  </g>
 </g>
 <g partID="60570">
  <g transform="translate(263.197,40.794)">
   <g transform="matrix(-1,0,0,-1,0,0)">
    <g id="copper0" >
     <g x="20.664" width="3.96" y="5.184" height="3.96" fill="none" stroke-width="1.44" stroke="black" id="69" />
     <g cx="22.68" fill="none" stroke-width="1.44" stroke="black" id="70"  cy="7.2" r="1.98"/>
     <g cx="29.88" fill="none" stroke-width="1.44" stroke="black" id="71"  cy="7.2" r="1.98"/>
     <g cx="37.08" fill="none" stroke-width="1.44" stroke="black" id="72"  cy="7.2" r="1.98"/>
     <g cx="44.28" fill="none" stroke-width="1.44" stroke="black" id="73"  cy="7.2" r="1.98"/>
     <g cx="51.48" fill="none" stroke-width="1.44" stroke="black" id="74"  cy="7.2" r="1.98"/>
     <g cx="58.68" fill="none" stroke-width="1.44" stroke="black" id="75"  cy="7.2" r="1.98"/>
     <g cx="65.88" fill="none" stroke-width="1.44" stroke="black" id="76"  cy="7.2" r="1.98"/>
     <g cx="73.08" fill="none" stroke-width="1.44" stroke="black" id="77"  cy="7.2" r="1.98"/>
     <g cx="80.28" fill="none" stroke-width="1.44" stroke="black" id="78"  cy="7.2" r="1.98"/>
     <g cx="87.48" fill="none" stroke-width="1.44" stroke="black" id="79"  cy="7.2" r="1.98"/>
     <g cx="94.68" fill="none" stroke-width="1.44" stroke="black" id="80"  cy="7.2" r="1.98"/>
     <g cx="101.88" fill="none" stroke-width="1.44" stroke="black" id="81"  cy="7.2" r="1.98"/>
     <g cx="109.08" fill="none" stroke-width="1.44" stroke="black" id="82"  cy="7.2" r="1.98"/>
     <g cx="116.28" fill="none" stroke-width="1.44" stroke="black" id="83"  cy="7.2" r="1.98"/>
     <g cx="123.48" fill="none" stroke-width="1.44" stroke="black" id="84"  cy="7.2" r="1.98"/>
     <g cx="130.68" fill="none" stroke-width="1.44" stroke="black" id="85"  cy="7.2" r="1.98"/>
    </g>
   </g>
  </g>
 </g>
 <g partID="854104990">
  <g transform="translate(186.451,49.365)">
   <g transform="matrix(0,1,-1,0,0,0)">
    <g id="copper0" >
     <g id="copper1" >
      <g cx="13.029" fill="none" stroke-width="0.999999" stroke="black" id="86"  cy="32.333" r="2.16"/>
      <g cx="13.029" fill="none" stroke-width="0.999999" stroke="black" id="87"  cy="25.134" r="2.16"/>
      <g cx="13.029" fill="none" stroke-width="0.999999" stroke="black" id="88"  cy="17.934" r="2.16"/>
      <g cx="13.029" fill="none" stroke-width="0.999999" stroke="black" id="89"  cy="10.734" r="2.16"/>
     </g>
    </g>
   </g>
  </g>
 </g>
 <g partID="854105790">
  <g transform="translate(112.019,44.8756)">
   <g transform="matrix(-1,0,0,-1,0,0)">
    <g id="copper0" >
     <g d="M15.503,9.532c-0.966,0,-1.75,0.783,-1.75,1.75s0.784,1.75,1.75,1.75c0.966,0,1.75,-0.782,1.75,-1.75C17.252,10.316,16.469,9.532,15.503,9.532z" stroke-miterlimit="10" fill="none" stroke-width="1.25" stroke="black" id="90" />
     <g d="M22.702,9.532c-0.966,0,-1.75,0.783,-1.75,1.75s0.783,1.75,1.75,1.75c0.966,0,1.75,-0.783,1.75,-1.75C24.452,10.315,23.668,9.532,22.702,9.532z" stroke-miterlimit="10" fill="none" stroke-width="1.25" stroke="black" id="91" />
     <g d="M29.902,9.532c-0.965,0,-1.75,0.783,-1.75,1.75s0.783,1.75,1.75,1.75s1.75,-0.783,1.75,-1.75C31.653,10.315,30.869,9.532,29.902,9.532z" stroke-miterlimit="10" fill="none" stroke-width="1.25" stroke="black" id="92" />
     <g d="M37.103,9.532c-0.965,0,-1.749,0.783,-1.749,1.75s0.784,1.75,1.749,1.75c0.967,0,1.751,-0.783,1.751,-1.75C38.853,10.315,38.07,9.532,37.103,9.532z" stroke-miterlimit="10" fill="none" stroke-width="1.25" stroke="black" id="93" />
     <g d="M44.302,9.531c-0.966,0,-1.75,0.784,-1.75,1.75s0.783,1.75,1.75,1.75s1.75,-0.783,1.75,-1.75C46.052,10.315,45.269,9.531,44.302,9.531z" stroke-miterlimit="10" fill="none" stroke-width="1.25" stroke="black" id="94" />
     <g d="M51.502,9.532c-0.966,0,-1.75,0.783,-1.75,1.75s0.783,1.75,1.75,1.75s1.75,-0.783,1.75,-1.75C53.252,10.315,52.469,9.532,51.502,9.532z" stroke-miterlimit="10" fill="none" stroke-width="1.25" stroke="black" id="95" />
    </g>
   </g>
  </g>
 </g>
 <g partID="854257760">
  <g transform="translate(237.144,117.443)">
   <g transform="matrix(0,1,-1,0,0,0)">
    <g flipped="1" id="copper0">
     <g transform="matrix(-1, 0, 0, 1, 17.5748, 0)">
      <g>
       <g>
        <g>
         <rect x="0" stroke-linecap="round" width="5.10235" y="0" height="7.65353" stroke-width="0" fill="black" connectorname="1" stroke="none" id="96"/>
         <rect x="12.4724" stroke-linecap="round" width="5.10235" y="0" height="7.65353" stroke-width="0" fill="black" connectorname="2" stroke="none" id="97"/>
         <g id="98"/>
        </g>
        <g id="99"/>
       </g>
      </g>
     </g>
    </g>
   </g>
  </g>
 </g>
 <g partID="854257740">
  <g transform="translate(201.966,137.768)">
   <g flipped="1" id="copper0">
    <g transform="matrix(-1, 0, 0, 1, 17.5748, 0)">
     <g>
      <g>
       <g>
        <rect x="0" stroke-linecap="round" width="5.10235" y="0" height="7.65353" stroke-width="0" fill="black" connectorname="1" stroke="none" id="100"/>
        <rect x="12.4724" stroke-linecap="round" width="5.10235" y="0" height="7.65353" stroke-width="0" fill="black" connectorname="2" stroke="none" id="101"/>
        <g id="102"/>
       </g>
       <g id="103"/>
      </g>
     </g>
    </g>
   </g>
  </g>
 </g>
 <g partID="854257720">
  <g transform="translate(99.068,145.421)">
   <g transform="matrix(-1,0,0,-1,0,0)">
    <g flipped="1" id="copper0">
     <g transform="matrix(-1, 0, 0, 1, 17.5748, 0)">
      <g>
       <g>
        <g>
         <rect x="0" stroke-linecap="round" width="5.10235" y="0" height="7.65353" stroke-width="0" fill="black" connectorname="1" stroke="none" id="104"/>
         <rect x="12.4724" stroke-linecap="round" width="5.10235" y="0" height="7.65353" stroke-width="0" fill="black" connectorname="2" stroke="none" id="105"/>
         <g id="106"/>
        </g>
        <g id="107"/>
       </g>
      </g>
     </g>
    </g>
   </g>
  </g>
 </g>
</svg>
